<svg xmlns="http://www.w3.org/2000/svg" xmlns:xlink="http://www.w3.org/1999/xlink" width="388" height="466.238" viewBox="0 0 388 466.238"><defs><filter id="a" x="0" y="123.998" width="388" height="342.24" filterUnits="userSpaceOnUse"><feOffset dy="10" input="SourceAlpha"/><feGaussianBlur stdDeviation="10" result="b"/><feFlood flood-opacity="0.161"/><feComposite operator="in" in2="b"/><feComposite in="SourceGraphic"/></filter><filter id="c" x="97" y="3.947" width="205" height="202" filterUnits="userSpaceOnUse"><feOffset dx="5" dy="5" input="SourceAlpha"/><feGaussianBlur stdDeviation="5" result="d"/><feFlood flood-opacity="0.161"/><feComposite operator="in" in2="d"/><feComposite in="SourceGraphic"/></filter><clipPath id="e"><circle cx="82.93" cy="82.93" r="82.93" transform="translate(0)" fill="#fff"/></clipPath><filter id="f" x="94.229" y="0" width="199.541" height="199.542" filterUnits="userSpaceOnUse"><feOffset dy="3" input="SourceAlpha"/><feGaussianBlur stdDeviation="3" result="g"/><feFlood flood-opacity="0.161"/><feComposite operator="in" in2="g"/><feComposite in="SourceGraphic"/></filter></defs><g transform="translate(-1133 -1159.053)"><g transform="translate(295 -46)"><g transform="translate(420 -370)"><g transform="matrix(1, 0, 0, 1, 418, 1575.05)" filter="url(#a)"><path d="M10,0H318a10,10,0,0,1,10,10V232.24a50,50,0,0,1-50,50H10a10,10,0,0,1-10-10V10A10,10,0,0,1,10,0Z" transform="translate(30 144)" fill="#f8f8f8"/></g><text transform="translate(614.5 1889.962)" fill="#5c5c5c" font-size="18" font-family="NotoSansCJKkr-DemiLight, Noto Sans CJK KR DemiLight" font-weight="300" letter-spacing="-0.03em"><tspan x="-103.338" y="0">출산을 계획중인 신혼부부 및 </tspan><tspan x="-127.845" y="30">36개월 미만의 영아(태아) 자녀를 둔 </tspan><tspan font-family="NotoSansCJKkr-Bold, Noto Sans CJK KR" font-weight="700"><tspan x="-75.906" y="60">부모를 위한 기질분석</tspan></tspan></text><text transform="translate(612.96 1825.344)" fill="#509dea" font-size="28" font-family="NotoSansCJKkr-Bold, Noto Sans CJK KR" font-weight="700" letter-spacing="-0.03em"><tspan x="-77.938" y="0">부모 기질분석</tspan></text><line x2="31.192" transform="translate(598.762 1850.53)" fill="none" stroke="#509dea" stroke-width="1"/><g transform="translate(2.329 9.243)"><g transform="matrix(1, 0, 0, 1, 415.67, 1565.81)" filter="url(#c)"><ellipse cx="87.5" cy="86" rx="87.5" ry="86" transform="translate(107 13.95)" fill="#fff"/></g><g transform="translate(525.827 1582.552)"><g transform="translate(0 0)" fill="#fff" stroke="#fff" stroke-width="4"><circle cx="83.401" cy="83.401" r="83.401" stroke="none"/><circle cx="83.401" cy="83.401" r="85.401" fill="none"/></g><g transform="translate(0.943 0.942)"><g transform="translate(0 0)" clip-path="url(#e)"><path d="M83.1,0A83.1,83.1,0,1,1,0,83.1,83.1,83.1,0,0,1,83.1,0Z" transform="translate(-0.712 -0.257)" fill="#fff"/><g transform="translate(7.368 35.18)"><g transform="translate(75.601 12.393)"><path d="M-949.475,1422.471s-3.637,7.006.373,17.234l2.359-1.016,1.573-12.659" transform="translate(950.987 -1422.471)" fill="#333"/></g><g transform="translate(76.203)"><path d="M-946.033,1396.469s-9.985-20.017,12.344-25.678c0,0,2.918-5.661,11.375-4.245s15.717,3.528,18.975,11.007c4.613,10.588.472,18.916.472,18.916l-4.01-6.572-10.259-12.108-11.964,2.437-12.766,5.111" transform="translate(948.258 -1366.318)" fill="#333"/></g><g transform="translate(120.937 73.155)"><path d="M-705.489,1781.27c-1.521-3.061-6.756-8.543-8.9-10.725h0a23.077,23.077,0,0,1-2.145-6.082v0c-1.5-11.762-3.824-49.693-15.715-65.222l-13.307-1.442,19.883,68.317h0a21.671,21.671,0,0,1-.251,8.105h0c-.117.321-.255.717-.4,1.166-.607,1.919-1.285,4.8-.716,6.839.584,2.014,1.405,2.14,1.973,1.7.583-.454,1.495-4.138,1.888-4.555l3.831,4.25c1.256,1.549,2.191,6.866,4.2,6.789s.584-5.315-.225-7.355c1.273,1.382,3.657,8.065,5.124,6.984s-.662-5.353-2.618-8.647c3.75,4.4,3.973,7.243,5.594,6.316s-1.785-6.783-2.54-8.008c1.054.85,2.456,3.106,3.189,3.9C-704.9,1785.466-704.151,1783.968-705.489,1781.27Z" transform="translate(745.559 -1697.796)" fill="#fdc4b1"/></g><g transform="translate(75.105 232.107)"><rect width="13.563" height="24.217" fill="#f8d0be"/></g><g transform="translate(115.093 232.107)"><rect width="13.769" height="24.217" fill="#f8d0be"/></g><g transform="translate(69.243 115.452)"><g transform="translate(28.471)"><path d="M-822.726,1890.96c6.053,39.59,8.6,124.243,8.6,124.243l-25.8.379-10.857-117.428S-823.62,1885.114-822.726,1890.96Z" transform="translate(850.785 -1889.452)" fill="#8ad5d3"/></g><g transform="translate(0 0.08)"><path d="M-971.052,1891.887c-5.617,34.406-8.741,125.359-8.741,125.359l25.667-1.7,13.182-121.313S-970.109,1886.115-971.052,1891.887Z" transform="translate(979.793 -1889.815)" fill="#8ad5d3"/></g></g><g transform="translate(67.083 248.223)"><g transform="translate(0.868)"><path d="M-978.378,2491.118c-1.286.264-7.832,7.871-7.231,13.037H-959.9s.479-5.905-5.079-13.1c-10.218,2.958-13.9,1.375-13.4.058Z" transform="translate(985.648 -2491.06)" fill="#fff" fill-rule="evenodd"/></g><g transform="translate(0 12.67)"><path d="M-988.214,2548.472h24.535a1.371,1.371,0,0,1,1.367,1.367h0a1.371,1.371,0,0,1-1.367,1.367h-24.535a1.371,1.371,0,0,1-1.368-1.367h0a1.371,1.371,0,0,1,1.368-1.367Z" transform="translate(989.581 -2548.472)" fill="#081e31" fill-rule="evenodd"/></g></g><g transform="translate(111.446 247.22)"><g transform="translate(0.69)"><path d="M-782.454,2487.518s-2.3,1.635-2.834,5.765a18.573,18.573,0,0,0,.527,7.393l27.772,1.058,3.174-1.429c.875-7.244-11.2-11.62-14.917-13.79-.981,1.688-10.8,6.793-13.722,1Z" transform="translate(785.439 -2486.514)" fill="#fff" fill-rule="evenodd"/></g><g transform="translate(0 13.674)"><path d="M-787.2,2548.472h30.629a1.372,1.372,0,0,1,1.368,1.367h0a1.372,1.372,0,0,1-1.368,1.367H-787.2a1.372,1.372,0,0,1-1.368-1.367h0a1.371,1.371,0,0,1,1.368-1.367Z" transform="translate(788.566 -2548.472)" fill="#081e31" fill-rule="evenodd"/></g></g><g transform="translate(55.447 58.725)"><path d="M-951.133,1668.069c-1.458-10.221-6.716-21.906-11.857-26.3l0-.005c-5.22-5.492-17.617-9.354-35.649-9.354s-28.621,8.182-28.623,8.184c-5.8,4.21-13.35,15.628-15.04,27.476l17.964,6.684-3.591,43.455s44.21,10.036,63.643-2.187l-3.745-41.49Z" transform="translate(1042.306 -1632.409)" fill="#304d97"/></g><g transform="translate(89.62 44.335)"><path d="M-887.461,1567.68l.633,15.526s3.832,4.777,9.526,4.21a32.372,32.372,0,0,0,10.555-3.127l-.7-17.083Z" transform="translate(887.461 -1567.207)" fill="#eea593"/></g><g transform="translate(74.54 10.428)"><path d="M-909.279,1430.955a5.227,5.227,0,0,0-.831.072c-2.2-9.473-10.23-17.46-19.8-17.46s-17.6,7.991-19.8,17.467a5.224,5.224,0,0,0-.879-.08,5.2,5.2,0,0,0-5.2,5.2,5.2,5.2,0,0,0,5.2,5.2,5.243,5.243,0,0,0,.83-.072c2.126,9.589,10.2,16.726,19.85,16.726s17.72-7.134,19.848-16.719a5.247,5.247,0,0,0,.783.065,5.2,5.2,0,0,0,5.2-5.2A5.2,5.2,0,0,0-909.279,1430.955Z" transform="translate(955.795 -1413.567)" fill="#fdc4b1" fill-rule="evenodd"/></g><g transform="translate(93.128 31.72)"><rect width="2.234" height="3.202" rx="1.117" fill="#2b2e30"/><g transform="translate(11.964)"><rect width="2.234" height="3.202" rx="1.117" fill="#2b2e30"/></g></g><g transform="translate(94.165 42.334)"><path d="M-866.511,1559.775c2.13,1.93,6.055,6.139,11.794-.011.591-.633.333-1.624-.533-1.624H-866A.9.9,0,0,0-866.511,1559.775Z" transform="translate(866.867 -1558.14)" fill="#fff"/></g><g transform="translate(99.11 35.598)"><path d="M-843.044,1527.618s-1.952,1.519-1.275,2.874a1.31,1.31,0,0,0,2,.431s-1.469-.369-1.277-1.354A14.118,14.118,0,0,1-843.044,1527.618Z" transform="translate(844.462 -1527.618)" fill="#f2917d"/></g><g transform="translate(91.22 29.103)"><path d="M-880.213,1499.236a3.869,3.869,0,0,1,5.241,0" transform="translate(880.213 -1498.188)" fill="#2b2e30"/></g><g transform="translate(104.014 29.103)"><path d="M-817,1499.236a3.869,3.869,0,0,0-5.241,0" transform="translate(822.242 -1498.188)" fill="#2b2e30"/></g><g transform="translate(87.161 58.221)"><path d="M-885.366,1638.816c7.689,0,11.31-4.065,12.985-7.257-2.415-.69-7.927-.656-9.245-.926-3.322-.68-7.81-.967-16.978,1.1C-897.583,1634.368-894.508,1638.816-885.366,1638.816Z" transform="translate(898.605 -1630.128)" fill="#eea593"/></g><g transform="translate(78.114 7.303)"><path d="M-933.492,1408.373s1.311,7.582,12.24,7.582c0,0-3.258-3.258-3.333-5.617a12.311,12.311,0,0,0,9.911,6.448,27.352,27.352,0,0,0,5.268,0,8.768,8.768,0,0,1-3.215-6.369s2.979,5.661,7.067,7c0,0,5.9,2.044,6.211,5.425v3.7l2.752-7.705-4.639-12.659-13.445-6.212-8.02-.55-7.863,2.28-7.234,10.143-1.808,6.231,3.459,8.472s-.55-6.132,1.258-7.627c0,0,3.538-1.494,3.931-9.356" transform="translate(939.598 -1399.41)" fill="#333"/></g><g transform="translate(76.197 3.567)"><path d="M-931.353,1382.5s-17.29-1.048-16.925,14.887l4.873,1.153,7.024-10.274" transform="translate(948.284 -1382.482)" fill="#333"/></g><g transform="translate(0 9.698)"><g transform="translate(48.029 195.777)"><path d="M-1061.49,2297.357h-14.427c.072.807.14,1.553.2,2.195,1.121,11.85,2.071,40.793,2.071,40.793-1.245,6.069,6.2,9.869,10.859,5.832a6.781,6.781,0,0,0,2.219-5.832C-1060.8,2322.045-1061.261,2310.643-1061.49,2297.357Z" transform="translate(1075.917 -2297.357)" fill="#f8d0be"/></g><g transform="translate(45.331 238.73)"><path d="M-1070.116,2491.985h0c1.228.254,5.914,7.54,5.34,12.476h-23.079a12.108,12.108,0,0,1,4.682-12.441s-.927,6.138,6.107,5.991C-1069.909,2497.86-1070.623,2495.372-1070.116,2491.985Z" transform="translate(1088.142 -2491.985)" fill="#1d66a1" fill-rule="evenodd"/></g><g transform="translate(44.676 250.91)"><path d="M-1067.525,2547.174h-22.28a1.31,1.31,0,0,0-1.306,1.306h0a1.311,1.311,0,0,0,1.306,1.306h22.28a1.31,1.31,0,0,0,1.306-1.306h0a1.31,1.31,0,0,0-1.306-1.306Z" transform="translate(1091.111 -2547.174)" fill="#004367" fill-rule="evenodd"/></g><g transform="translate(0 195.777)"><g transform="translate(6.865)"><path d="M-1253.6,2339.04c-3,1.781-7.682,4.067-8.844,5.574.082.6,1.586,1.542,5.532,1.935,6.48.648,13.678.066,16.366-5.245,0,0,.718-29.9,1.839-41.751.061-.642.128-1.387.2-2.195h-14.3C-1252.974,2310.4-1253.369,2321.441-1253.6,2339.04Z" transform="translate(1262.441 -2297.357)" fill="#f8d0be"/></g><g transform="translate(0.576 42.949)"><path d="M-1262.747,2491.968s1.788,1.531,2.3,5.476a17.751,17.751,0,0,1-.5,7.063l-26.529,1.01-3.032-1.367s-1.389-1.727.838-4.32a12.935,12.935,0,0,1,5.024-3.554c.082.6,1.587,1.54,5.532,1.934,6.48.646,13.684-.932,16.37-6.242Z" transform="translate(1290.939 -2491.968)" fill="#1d66a1" fill-rule="evenodd"/></g><g transform="translate(0 55.133)"><path d="M-1262.983,2547.174h-29.258a1.31,1.31,0,0,0-1.306,1.307h0a1.311,1.311,0,0,0,1.306,1.306h29.258a1.311,1.311,0,0,0,1.306-1.306h0a1.31,1.31,0,0,0-1.306-1.307Z" transform="translate(1293.547 -2547.174)" fill="#004367" fill-rule="evenodd"/></g></g><g transform="translate(55.038 74.69)"><path d="M-1014.135,1815.5c-1.14-2.294-5.062-6.4-6.671-8.037h0a17.289,17.289,0,0,1-1.607-4.557v0c-1.128-8.814-4.481-42.569-13.392-54.206l-8.356,4.25,14.9,51.194h0a16.244,16.244,0,0,1-.188,6.074h0c-.088.24-.191.537-.3.874a10.157,10.157,0,0,0-.537,5.125c.438,1.509,1.053,1.6,1.478,1.272s1.12-3.1,1.415-3.413l2.871,3.185c.941,1.161,1.641,5.145,3.145,5.088s.438-3.983-.169-5.512c.954,1.036,2.741,6.044,3.839,5.234s-.5-4.011-1.962-6.48c2.81,3.294,2.977,5.427,4.192,4.733s-1.338-5.083-1.9-6a29.93,29.93,0,0,1,2.39,2.922C-1013.69,1818.64-1013.132,1817.518-1014.135,1815.5Z" transform="translate(1044.161 -1748.693)" fill="#fdc4b1"/></g><g transform="translate(2.032 74.69)"><path d="M-1283.825,1815.5c1.14-2.294,5.062-6.4,6.671-8.037h0a17.29,17.29,0,0,0,1.607-4.557v0c1.128-8.814,4.481-42.569,13.391-54.206l8.357,4.25-14.9,51.194h0a16.24,16.24,0,0,0,.188,6.074h0c.088.24.191.537.3.874a10.155,10.155,0,0,1,.537,5.125c-.438,1.509-1.053,1.6-1.478,1.272s-1.12-3.1-1.415-3.413l-2.871,3.185c-.941,1.161-1.641,5.145-3.145,5.088s-.438-3.983.169-5.512c-.954,1.036-2.741,6.044-3.839,5.234s.5-4.011,1.962-6.48c-2.81,3.294-2.977,5.427-4.192,4.733s1.338-5.083,1.9-6a29.9,29.9,0,0,0-2.39,2.922C-1284.269,1818.64-1284.828,1817.518-1283.825,1815.5Z" transform="translate(1284.339 -1748.693)" fill="#fdc4b1"/></g><g transform="translate(8.899 58.706)"><path d="M-1233.611,1676.268s-16.064,1.711-15.769,25.851-6.966,25.24-2.241,42.433c0,0,11.549,3.49,17.673-.4v-51.83Z" transform="translate(1253.222 -1676.268)" fill="#91bfff"/></g><g transform="translate(62.355 58.012)"><path d="M-1011,1673.124s15.279,1.592,14.984,25.732,6.966,25.24,2.241,42.433c0,0-10.584,3.491-16.708-.4v-51.83Z" transform="translate(1011.004 -1673.124)" fill="#91bfff"/></g><g transform="translate(8 94.429)"><path d="M-1235.378,1839.257s-5.47,7.458-9.539,26.971c-4.283,20.538-12.38,108.575-12.38,108.575l25.29,1.115,10.3-95.121.1,95.121h24.368s9.905-117.563-11.849-137.783Z" transform="translate(1257.297 -1838.135)" fill="#1d66a1"/></g><g transform="translate(43.377 220.218)"><path d="M-1071.421,2408.708H-1096.7a.3.3,0,0,1-.3-.3.3.3,0,0,1,.3-.3h25.276a.3.3,0,0,1,.3.3A.3.3,0,0,1-1071.421,2408.708Z" transform="translate(1096.999 -2408.105)" fill="#fff"/></g><g transform="translate(8.73 220.218)"><path d="M-1228.411,2408.708h-25.276a.3.3,0,0,1-.3-.3.3.3,0,0,1,.3-.3h25.276a.3.3,0,0,1,.3.3A.3.3,0,0,1-1228.411,2408.708Z" transform="translate(1253.989 -2408.105)" fill="#fff"/></g><g transform="translate(16.67 57.204)"><path d="M-1206.173,1670.964s-7.132,2.072-6.17,17.064-12.56,33.583-.913,35.744h48.119l-5.368-51.6a2.147,2.147,0,0,0-1.769-1.893l-4.719-.818Z" transform="translate(1218.014 -1669.462)" fill="#91bfff"/></g><g transform="translate(28.511 54.2)"><path d="M-1151.753,1656.349l-12.606,4.006s3.245,7.671,14.089,8.172,15.091-9.674,15.091-9.674l-12.653-3Z" transform="translate(1164.359 -1655.848)" fill="#f2a395"/></g><g transform="translate(12.692)"><path d="M-1175.715,1444.523c-1.6-6.083-2.186-5-7.58-17.095-3.222-7.228-5.715-10.134-7.2-11.3h0a21.709,21.709,0,0,0-15.2-5.865,21.515,21.515,0,0,0-14.695,5.573h0c-1.413.942-4.07,3.673-7.6,11.6-5.394,12.1-5.976,11.011-7.58,17.095s.437,17.307,12.973,19.494a9.319,9.319,0,0,1-2.186-4.227s5.247,7.142,12.391,6.705h13.5c7.143.437,12.39-6.705,12.39-6.705a9.319,9.319,0,0,1-2.186,4.227C-1176.152,1461.83-1174.111,1450.606-1175.715,1444.523Z" transform="translate(1236.039 -1410.26)" fill="#2b2e30"/></g><g transform="translate(35.523 43.765)"><rect width="15.035" height="20.514" rx="7.518" fill="#eea593"/></g><g transform="translate(18.808 11.183)"><path d="M-1164.648,1476.352a4.9,4.9,0,0,0-.781.068c-2.068-8.9-9.606-15.49-18.592-15.49s-16.527,6.6-18.594,15.5a4.882,4.882,0,0,0-.825-.075,4.886,4.886,0,0,0-4.886,4.887,4.887,4.887,0,0,0,4.886,4.887,4.911,4.911,0,0,0,.78-.068c2,9,9.581,15.706,18.639,15.706s16.639-6.7,18.638-15.7a4.851,4.851,0,0,0,.735.062,4.887,4.887,0,0,0,4.887-4.887A4.887,4.887,0,0,0-1164.648,1476.352Z" transform="translate(1208.326 -1460.93)" fill="#fdc4b1" fill-rule="evenodd"/><g transform="translate(18.396 26.69)"><path d="M-1124.635,1583.412c2.011,1.822,5.717,5.8,11.136-.011.558-.6.315-1.534-.5-1.534h-10.146A.855.855,0,0,0-1124.635,1583.412Z" transform="translate(1124.971 -1581.868)" fill="#fff"/></g><g transform="translate(23.268 21.411)"><path d="M-1101.824,1557.946s-1.475,1.148-.963,2.171a.99.99,0,0,0,1.512.325s-1.11-.279-.965-1.023A10.663,10.663,0,0,1-1101.824,1557.946Z" transform="translate(1102.895 -1557.946)" fill="#f2917d"/></g><g transform="translate(15.443 15.057)"><g transform="translate(2.011 2.539)"><rect width="2.097" height="3.006" rx="1.049" fill="#2b2e30"/><g transform="translate(11.234)"><rect width="2.097" height="3.006" rx="1.049" fill="#2b2e30"/></g></g><path d="M-1132.876,1530.192a12.692,12.692,0,0,0-2.869-.123,5.038,5.038,0,0,0-1.295.315,10.074,10.074,0,0,0-1.312.66,2.618,2.618,0,0,1,.96-1.286,3.052,3.052,0,0,1,1.552-.585,3.868,3.868,0,0,1,1.614.2A3.354,3.354,0,0,1-1132.876,1530.192Z" transform="translate(1138.351 -1529.156)" fill="#2b2e30"/><g transform="translate(11.793)"><path d="M-1084.913,1530.192a3.356,3.356,0,0,1,1.35-.823,3.868,3.868,0,0,1,1.614-.2,3.052,3.052,0,0,1,1.552.585,2.622,2.622,0,0,1,.96,1.286,10.12,10.12,0,0,0-1.312-.66,5.04,5.04,0,0,0-1.295-.315A12.7,12.7,0,0,0-1084.913,1530.192Z" transform="translate(1084.913 -1529.156)" fill="#2b2e30"/></g></g></g><g transform="translate(64.602 74.111)"><path d="M-1000.824,1783.472l1.053-37.4s4.259,32.2,1.062,47.2" transform="translate(1000.824 -1746.068)" fill="#6cadf1"/></g><g transform="translate(19.594 74.111)"><path d="M-1201.217,1783.472l-1.053-37.4s-4.551,31.769-1.355,46.771" transform="translate(1204.763 -1746.068)" fill="#6cadf1"/></g><g transform="translate(18.184 4.729)"><path d="M-1179.019,1435.189s-7.227,18.3-32.134,18.3c0,0,2.35-19.839,15.114-21.486C-1196.039,1432-1183.551,1430.206-1179.019,1435.189Z" transform="translate(1211.153 -1431.687)" fill="#2b2e30"/></g><g transform="translate(45.065 6.041)"><path d="M-1084.1,1437.635s-17.808,2.216,12.157,21.685l1.621-6.558S-1068.527,1439.03-1084.1,1437.635Z" transform="translate(1089.348 -1437.635)" fill="#2b2e30"/></g><g transform="translate(23.988 22.911)"><path d="M-1180.475,1514.073l-3.054,8.555-1.325-8.555Z" transform="translate(1184.854 -1514.073)" fill="#2b2e30"/></g><g transform="translate(58.872 23.23)"><path d="M-1026.786,1515.521l3.165,7.836,1.214-7.836Z" transform="translate(1026.786 -1515.521)" fill="#2b2e30"/></g><g transform="translate(39.726 13.871)"><path d="M-1109.573,1473.113s-.947,6.767-3.969,9.359c0,0,8.737-2.44,9.867-9.359" transform="translate(1113.542 -1473.113)" fill="#2b2e30"/></g></g></g></g></g></g></g></g><g transform="matrix(1, 0, 0, 1, 838, 1205.05)" filter="url(#f)"><ellipse cx="88.271" cy="88.271" rx="88.271" ry="88.271" transform="translate(105.73 8.5)" fill="none" stroke="#f8f8f8" stroke-width="5"/></g></g></g></svg>