<svg xmlns="http://www.w3.org/2000/svg" xmlns:xlink="http://www.w3.org/1999/xlink" width="388" height="467.356" viewBox="0 0 388 467.356"><defs><filter id="a" x="0" y="125.116" width="388" height="342.24" filterUnits="userSpaceOnUse"><feOffset dy="10" input="SourceAlpha"/><feGaussianBlur stdDeviation="10" result="b"/><feFlood flood-opacity="0.161"/><feComposite operator="in" in2="b"/><feComposite in="SourceGraphic"/></filter><filter id="c" x="99.501" y="0" width="206.999" height="204.129" filterUnits="userSpaceOnUse"><feOffset dx="5" dy="5" input="SourceAlpha"/><feGaussianBlur stdDeviation="5" result="d"/><feFlood flood-opacity="0.161"/><feComposite operator="in" in2="d"/><feComposite in="SourceGraphic"/></filter><clipPath id="e"><ellipse cx="87.237" cy="87.237" rx="87.237" ry="87.237" fill="none"/></clipPath><clipPath id="f"><path d="M-181.736,1716.941c11.114,1.923,18.155.9,18.155.9l3.908-38.692-13.739-8.822c0-.042,0-.071,0-.071l-.109-.1-.119.027-.1-.066-.14.06-.028.065-15.948,3.5-9.78,37.639s6.248,3.4,17.337,5.462c.017,0,.032.009.049.012l.236.041.236.044C-181.77,1716.937-181.754,1716.937-181.736,1716.941Z" transform="translate(199.645 -1670.113)" fill="none"/></clipPath><filter id="g" x="98.001" y="1.118" width="199.541" height="199.542" filterUnits="userSpaceOnUse"><feOffset dy="3" input="SourceAlpha"/><feGaussianBlur stdDeviation="3" result="h"/><feFlood flood-opacity="0.161"/><feComposite operator="in" in2="h"/><feComposite in="SourceGraphic"/></filter></defs><g transform="translate(-1503.218 -1157.936)"><g transform="translate(295 -46)"><g transform="matrix(1, 0, 0, 1, 1208.22, 1203.94)" filter="url(#a)"><path d="M10,0H318a10,10,0,0,1,10,10V232.24a50,50,0,0,1-50,50H10a10,10,0,0,1-10-10V10A10,10,0,0,1,10,0Z" transform="translate(30 145.12)" fill="#f8f8f8"/></g><text transform="translate(1399.614 1519.962)" fill="#5c5c5c" font-size="18" font-family="NotoSansCJKkr-DemiLight, Noto Sans CJK KR DemiLight" font-weight="300" letter-spacing="-0.03em"><tspan x="-77.166" y="0">36개월 이상의 자녀와</tspan><tspan x="-61.551" y="30">부모가 함께 하는 </tspan><tspan font-family="NotoSansCJKkr-Bold, Noto Sans CJK KR" font-weight="700"><tspan x="-71.154" y="60">부모+자녀 기질분석</tspan></tspan></text><text transform="translate(1402.218 1455.344)" fill="#5ac29f" font-size="28" font-family="NotoSansCJKkr-Bold, Noto Sans CJK KR" font-weight="700" letter-spacing="-0.03em"><tspan x="-90.398" y="0">패밀리 기질분석</tspan></text><g transform="matrix(1, 0, 0, 1, 1208.22, 1203.94)" filter="url(#c)"><ellipse cx="88.5" cy="87.064" rx="88.5" ry="87.064" transform="translate(109.5 10)" fill="#fff"/></g><g transform="translate(1317.365 1212.729)"><g transform="translate(-0.075 -0.02)" fill="#fff" stroke="#fff" stroke-width="4"><circle cx="87.464" cy="87.464" r="87.464" stroke="none"/><circle cx="87.464" cy="87.464" r="89.464" fill="none"/></g><g transform="translate(0.348 0.815)"><g transform="translate(0 0)" clip-path="url(#e)"><path d="M87.237,0A87.237,87.237,0,1,1,0,87.237,87.237,87.237,0,0,1,87.237,0Z" transform="translate(0)" fill="#fff"/><g transform="translate(11.283 36.677)"><path d="M-357.983,1479.513s3.745,7.007-.836,10.133-5.7-8.075-5.7-8.075l1.082-6.213,1.887.485" transform="translate(379.251 -1449.449)" fill="#2b2e30"/><g transform="translate(3.638)"><g transform="translate(61.942)"><path d="M-126.668,1893.2s-1.958,14.987-2.02,15.4-16.624,5.252-16.118,8.286c.807,4.838,32.876,1.012,33.8-.442s-1.965-7.063-1.965-7.063l8.421-14.409S-117.272,1887.992-126.668,1893.2Z" transform="translate(144.817 -1769.098)" fill="#fdc4b1"/><path d="M261.367,1925.3s15.062-1.266,15.473-1.292,8.659,15.131,11.516,13.993c4.557-1.815-5.408-32.057-7.025-32.655s-6.142,2.295-6.142,2.295l-16.788-4.333S254.289,1917.221,261.367,1925.3Z" transform="translate(-164.166 -1778.351)" fill="#fdc4b1"/><g transform="translate(14.66 79.349)"><path d="M-35.135,1729.238s-2.369-2.949-3.672-3.542-19.19-16.478-23.929-18.848-13.86,2.843-16.11,6.989-3.216,47.667-2.269,48.615,15.181,2.246,18.142,1.89,7.463-3.24,8.055-3.951-3.317-18.6-2.843-18.953,2.454,6.989,11.888,11.254,19.385-2.961,22.82-5.923,4.975-17.865,4.975-17.865Z" transform="translate(81.477 -1706.256)" fill="#0d4f7c"/></g><path d="M-74.078,1724.947a7.735,7.735,0,0,1,1.744,4.734,6.41,6.41,0,0,1-1.2,4.581,23.782,23.782,0,0,0-5.714,2.085h0c-2.152,2.126-7.559,7.311-10.58,8.82-2.664,1.329-4.146.595-2.3-1.122.782-.726,3.008-2.117,3.846-3.16-1.209.749-6.989,4.127-7.908,2.527s1.894-1.826,6.23-5.541c-3.252,1.94-7.469,4.053-8.54,2.606s5.528-3.817,6.891-5.078c-2.014.8-7.188,2.221-7.268.238s5.172-2.917,6.7-4.162l4.192-3.8c-.414-.387-4.056-1.281-4.506-1.856s-.315-1.371,1.674-1.953c2.015-.566,4.862.1,6.761.694.443.139.835.275,1.153.39h0a21.413,21.413,0,0,0,8.01.231Z" transform="translate(109.512 -1640.28)" fill="#fdc4b1"/><g transform="translate(29.168 41.881)"><g transform="translate(1.91)"><path d="M-10.276,1584.5c-1.02.844.98,13.837,5.726,17.952.658.572,18.4-7.693,21.948-12.711s5.65-21.114,5.925-28.942-.985-15.18-6.72-16.28-12.6,3.732-14.225,11.588-1.353,19.636-2.168,21.177S-9.311,1583.706-10.276,1584.5Z" transform="translate(10.536 -1544.369)" fill="#67dce0"/></g><path d="M-18.66,1703.641c-.517,2.113.629,9.563,1.584,11.505s5.578,6.1,6.37,6.157,6.571-2.149,6.935-2.5-4.031-5.663-4.818-7.936-1.509-11.886-2.161-12.339S-18.358,1702.4-18.66,1703.641Z" transform="translate(18.789 -1662.827)" fill="#2b3f7f"/></g><path d="M-29.135,1762.552a7.733,7.733,0,0,1,1.744,4.734,6.412,6.412,0,0,1-1.2,4.582,23.763,23.763,0,0,0-5.714,2.085h0c-2.152,2.126-7.559,7.311-10.58,8.82-2.664,1.328-4.146.595-2.3-1.122.782-.726,3.008-2.117,3.846-3.16-1.209.749-6.989,4.127-7.908,2.527s1.894-1.826,6.23-5.541c-3.252,1.94-7.469,4.053-8.541,2.606s5.528-3.817,6.891-5.078c-2.014.8-7.188,2.221-7.268.238s5.172-2.918,6.7-4.162l4.192-3.8c-.414-.387-4.056-1.281-4.506-1.855s-.315-1.371,1.675-1.953c2.015-.566,4.862.1,6.76.694.444.139.836.275,1.153.39h0a21.418,21.418,0,0,0,8.01.231Z" transform="translate(74.971 -1669.181)" fill="#fdc4b1"/><g transform="translate(30.737 101.999)"><path d="M53.625,1804.12s1.832,6.352,1.516,11.169c-.228,3.471-2.691,10.881-9.562,13.25-4.743,1.636-32.537,6.476-32.537,6.476s18.953-5.844,23.376-6.634,22.121-2.545,23.7-2.071,4.256,10.442,4.73,13.285-3.439,10.69-4.545,11.005-56.285-.808-61.269-2.16c-9.605-2.606-11.9-12.793-10.79-17.848s23.849-17.431,25.271-18.824,2.28-7.518,2.28-7.518Z" transform="translate(12.01 -1804.12)" fill="#0d4f7c"/></g><g transform="translate(47.132 37.77)"><path d="M71.822,1540.738c-9.118,1.04-12.347,10.768-12.768,21.776-.694,18.128.26,46.736,1.96,48.965s14.942-2.194,30.659-2.194c8.888,0,15.682,12.765,18.648,9.887,2.793-2.709,3.087-12.382,2.365-17.436-1.019-7.126-11.829-48.381-14.556-52.991S79.732,1539.835,71.822,1540.738Z" transform="translate(-58.825 -1537.374)" fill="#67dce0"/><path d="M75.676,1526.61c1.243.087,3.874,1.513,5.793,3.763.725.85-1.81,13.428-8.037,19.952-.561.588-4.114-7.581-4.606-7.581s-3.791,7.646-3.906,7.581-2.323-6.6-2.232-8.692a24.944,24.944,0,0,1,3.751-10.391C68.531,1528.431,73.933,1526.488,75.676,1526.61Z" transform="translate(-61.793 -1526.604)" fill="#2b3f7f"/></g><g transform="translate(45.73 29.402)"><path d="M70.474,1502.859c-.57,4.591-3.962,11.324-7.3,11.8a4.956,4.956,0,0,1-5.65-3.434c-.236-1.253.175-2.543-.113-4.03a4.662,4.662,0,0,0-.249-.888,35.447,35.447,0,0,0-4.4-7.467l10.449-7.378s1.146-1.354,1.309-.931c.819,2.078,1.876,4.274,2.873,6.228C69.038,1499.973,70.513,1502.542,70.474,1502.859Z" transform="translate(-52.766 -1490.45)" fill="#eea593"/></g><path d="M43.89,1607.432c-1.089.753-.223,13.87,4.148,18.381.607.626,18.995-6.069,22.968-10.761s15.142-23.106,16.095-30.88.334-15.208-5.284-16.8-18,5.408-20.308,13.094-5.6,19.223-6.547,20.687S44.921,1606.719,43.89,1607.432Z" transform="translate(0.113 -1519.99)" fill="#67dce0"/><path d="M101.775,1694.494c.925-1.339-.973-13.211-.973-13.211s.543,9.476-1.113,11.96c0,0-16.945,13.254-31.418,20.545l-4.426.86.4,2.8s13.055-5.105,21.584-11.41C92.636,1701,101,1695.619,101.775,1694.494Z" transform="translate(-15.551 -1607.714)" fill="#44c5c6"/><path d="M23.416,1732.964c-.7,2.136-.2,9.934.588,12.025s5.032,6.8,5.816,6.928,6.732-1.634,7.124-1.961-3.529-6.209-4.117-8.627-.481-12.412-1.092-12.937S23.823,1731.714,23.416,1732.964Z" transform="translate(15.776 -1643.882)" fill="#2b3f7f"/><path d="M111.521,1509.066s.233-2.668-1.027-3.665a5.718,5.718,0,0,0-3.428-.719.713.713,0,0,0-.661.533c-.2.779-.433,2.261.573,2.81,1.732.944.769,2.985,1.749,3.459S111.521,1509.066,111.521,1509.066Z" transform="translate(-48.125 -1471.979)" fill="#fdc4b1"/><path d="M149.971,1432.33l-.643,16.94s9.677-8.44,3.021-18.811" transform="translate(-81.25 -1414.941)" fill="#232323"/><ellipse cx="19.213" cy="17.365" rx="19.213" ry="17.365" transform="matrix(0.009, -1, 1, 0.009, 34.599, 46.629)" fill="#fdc4b1"/><path d="M42.773,1522.615c2.232,1.472,6.438,4.786,10.842-1.681.454-.666.076-1.541-.72-1.418l-9.879,1.523A.842.842,0,0,0,42.773,1522.615Z" transform="translate(0.987 -1483.377)" fill="#fff"/><path d="M58.442,1497.607s-1.781,1.359-1.18,2.592a1.187,1.187,0,0,0,1.809.407s-1.328-.347-1.146-1.238A12.784,12.784,0,0,1,58.442,1497.607Z" transform="translate(-10.397 -1466.549)" fill="#f2917d"/><g transform="translate(41.666 27.227)"><g transform="translate(0 0)"><rect width="1.83" height="2.623" rx="0.915" transform="translate(0 1.236) rotate(-6.1)" fill="#2b2e30"/><rect width="1.83" height="2.623" rx="0.915" transform="translate(9.747 0.194) rotate(-6.1)" fill="#2b2e30"/></g></g><path d="M-5.061,1385.9c1.454.438,4.353-.747,5.618-1.653a8.472,8.472,0,0,0,3.029-3.867,10.572,10.572,0,0,0,.43-1.135s1.176,5.1,8.41,6.083v0a20.112,20.112,0,0,0,3.9.234c-.939-.428-2.761-4.5-2.761-4.5s2.73,5,9.857,5.066l.426.712L30.39,1385a4,4,0,0,0-.091-.434s3.048-13.423-9.991-16.21a9.507,9.507,0,0,0-5.131-4.921.331.331,0,0,0-.341.542,6.415,6.415,0,0,1,1.237,2.006c-4.409-2.331-12.646-3.492-21.064,4.563h0c-2.582.219-5.705,4.9-6.5,8.28-1.191,5.05.656,9.66,3.28,10.88C-8.216,1389.7-5.159,1387.754-5.061,1385.9Z" transform="translate(42.637 -1363.413)" fill="#232323"/><ellipse cx="4.791" cy="3.353" rx="4.791" ry="3.353" transform="matrix(0.159, -0.987, 0.987, 0.159, 63.424, 29.968)" fill="#fdc4b1"/><path d="M71.5,1471.577a2.393,2.393,0,0,1,.953-1.03,2.937,2.937,0,0,1,1.473-.426,2.487,2.487,0,0,1,1.525.469,1.923,1.923,0,0,1,.811,1.246,3.874,3.874,0,0,0-2.029-.627A11.163,11.163,0,0,0,71.5,1471.577Z" transform="translate(-21.432 -1445.422)" fill="#2b2e30"/><path d="M26.289,1478.315a2.392,2.392,0,0,1,.528-1.3,2.937,2.937,0,0,1,1.228-.919,2.488,2.488,0,0,1,1.592-.1,1.922,1.922,0,0,1,1.2.879,3.874,3.874,0,0,0-2.12.129A11.145,11.145,0,0,0,26.289,1478.315Z" transform="translate(13.313 -1449.875)" fill="#2b2e30"/><path d="M60.462,1651.278s15.86-5.471,17.714-7.7,1.113-15.575,1.113-15.575-3.152,13.536-4.635,14.185S60.462,1651.278,60.462,1651.278Z" transform="translate(-12.951 -1566.768)" fill="#44c5c6"/></g><path d="M-360.987,1457.653c5.109-.459,2.279-15.865,2.279-15.865,10.651-10.26,4.09-30.553,4.09-30.553-6.852-19-20.532-17.144-20.532-17.144s-10.124-5.035-18.254,3.344c-8.154,8.4-7.309,25.51-5.421,30.494s-.889,14.293-1.5,16.78.927,9.418,7.237,8.309" transform="translate(403.228 -1385.838)" fill="#2b2e30"/><path d="M-258.974,1609.887s2.987-1.316,7.77,2.127,11.474,17.954,11.474,17.954l-6.079,9" transform="translate(294.495 -1552.652)" fill="#ffb52c"/><g transform="translate(9.063 107.464)"><g transform="translate(16.385)"><path d="M-244.836,1858.513a63.473,63.473,0,0,1-11.489-.109c-13.557-1.036-32.7-4.484-40.1-8.078a11.639,11.639,0,0,1-1.856-1.081c-7.055-5.231-5.561-19.675,6.7-21.449,6.919-1,41.857,9.607,48.636,13.417S-233.994,1857.151-244.836,1858.513Z" transform="translate(302.5 -1827.73)" fill="#f7dea2"/><path d="M-236.144,1873.261c-13.557-1.036-32.7-4.485-40.1-8.077.882-4.05,2.285-9.367,3.914-11.444,2.778-3.548,2.122-6.679,2.122-6.679C-249.746,1850.911-233.23,1868.984-236.144,1873.261Z" transform="translate(282.318 -1842.586)" fill="#f7dea2" opacity="0.2" style="mix-blend-mode:multiply;isolation:isolate"/></g><g transform="translate(0 0.036)"><path d="M-365.592,1827.886s-7.994,12.519-7.693,22.927,7.248,16.29,14.409,18.4,47.887,5.43,54.976.754,6.486-12.972,1.509-16.743-44.6-14.329-44.6-14.329a26.029,26.029,0,0,0,2.095-11.011Z" transform="translate(373.293 -1827.886)" fill="#f7dea2"/></g></g><path d="M-326.951,1666.971l-3.58-21.177c-.869-9.788.741-14.633.741-14.633h0a9.056,9.056,0,0,0,.631-5.848c-.953-4.375-5.471-7.707-8.361-10.854-1.5-1.631-2.731-4.832-4.939-5.569-2.165-.723-5.322-.038-7.573-.03-5.374.019-10.746.072-16.119.116a2.645,2.645,0,0,0-2.589,2.632c-.3,9.547-2.977,20.08-.488,29.332,2.427,9.024-.116,13.6-.388,25.229-.053,2.262-.423,4.461,1.883,4.442l38.292-.314C-327.868,1670.284-326.32,1668.579-326.951,1666.971Z" transform="translate(380.038 -1551.821)" fill="#ffb52c"/><path d="M-201.312,1683.594a19.173,19.173,0,0,0-15.7,13.233s12.214,6.9,21.092,6.743" transform="translate(262.246 -1609.49)" fill="#5db894" fill-rule="evenodd"/><ellipse cx="21.707" cy="5.389" rx="21.707" ry="5.389" transform="translate(9.829 111.356) rotate(-0.47)" fill="#ffb52c"/><path d="M-346.233,1972.76s-2.779,9.142-2.86,9.39-10.912,1.547-10.912,3.491c0,3.1,20.4,4.049,21.124,3.239a5.878,5.878,0,0,0,.83-2.834l5.428-9.885S-339.833,1970.492-346.233,1972.76Z" transform="translate(372.143 -1831.318)" fill="#fdc4b1"/><path d="M-227.911,1996.832s-1.238,9.474-1.277,9.733-10.509,3.32-10.189,5.238c.51,3.059,20.783.64,21.369-.279a5.875,5.875,0,0,0,.353-2.932l3.729-10.643S-221.971,1993.542-227.911,1996.832Z" transform="translate(279.439 -1849.293)" fill="#fdc4b1"/><g transform="translate(23.871 101.018)"><path d="M-276.8,1799.881s-.694,4.674-1.609,5.232-13.423,8.18-17.228,12.142-13.674,22.36-13.674,23.428,10.036,7.75,16.167,5.617c1.347-.469,7.267-16.851,8.639-18.527s15.089-5.792,22.4-8.84,8.83-19,8.83-19Z" transform="translate(309.31 -1799.881)" fill="#5db894"/><path d="M-168.871,1799.931c1.585,1.626,5.971,11.228,4.295,17.782s-10.229,9.754-13.125,12.8-4.171,20.335-5.238,21.1-12.494,1.331-16.319-2.58c-1.449-1.482,4.107-17.631,5.785-24.315.84-3.347,9.982-12.382,9.982-12.382s-7.166-5.138-7.318-12.454Z" transform="translate(224.912 -1799.881)" fill="#5db894"/></g><path d="M-71.948,1728.824c-.942-1.4,4.967,2.059,6.646,5.637.648,1.379-1.8,7.128-3.981,6.364s-3-5.042-2.665-6.675S-71.13,1730.042-71.948,1728.824Z" transform="translate(150.833 -1644.006)" fill="#fdad9f"/><g transform="translate(21.965 39.135)"><path d="M-307.138,1561.028c-5.22.506-10.211-7.887-10.4-9.044a63.42,63.42,0,0,1,.987-8.666l.218-1.2c.073-.4.147-.781.23-1.159.1-.507.21-1,.317-1.5.809-3.752,1.527-6.955,1.527-6.955l1.571,1.069,10.832,8.013-2.767,9.4-.164.575-.059.187S-304.086,1560.732-307.138,1561.028Z" transform="translate(317.546 -1532.505)" fill="#eea593"/><path d="M-301.477,1551.561a10.2,10.2,0,0,1-4.853-.673c-3.524-1.361-5.526-4.291-6.911-7.57l.218-1.2c.073-.4.147-.781.23-1.159.1-.507.21-1,.317-1.5.809-3.752,1.527-6.955,1.527-6.955l1.571,1.069,10.832,8.013-2.767,9.4Z" transform="translate(314.237 -1532.505)" fill="#eea593"/></g><g transform="translate(6.804 13.556)"><ellipse cx="16.697" cy="18.473" rx="16.697" ry="18.473" transform="matrix(0.941, -0.339, 0.339, 0.941, 0, 11.326)" fill="#fdc4b1"/><path d="M-329.994,1439.553s-10.44,1.405-15.835-6.878c0,0,2.1,3.9-2.348,7.769,0,0,.921-3.731-.54-5.961,0,0,.069,7.216-11.851,14.639l-2.4-.7.231-13.277,10.388-8.562,9.466-1.424,8.825,3.277,3.77,6.108.568,1.575,1,1.525-1.355,1.8" transform="translate(367.62 -1424.421)" fill="#2b2e30"/><ellipse cx="3.224" cy="4.606" rx="3.224" ry="4.606" transform="matrix(0.963, -0.268, 0.268, 0.963, 2.675, 21.448)" fill="#fdc4b1"/><g transform="translate(18.064 17.604)"><g transform="translate(1.967 2.43)"><rect width="2.077" height="2.977" rx="1.038" transform="translate(13.449 2.959) rotate(173.643)" fill="#2b2e30"/><rect width="2.077" height="2.977" rx="1.038" transform="translate(2.394 4.19) rotate(173.642)" fill="#2b2e30"/></g><path d="M-255.262,1499.374a12.536,12.536,0,0,1,2.81-.436,4.972,4.972,0,0,1,1.309.168,10,10,0,0,1,1.363.505,2.593,2.593,0,0,0-1.085-1.16,3.023,3.023,0,0,0-1.591-.406,3.832,3.832,0,0,0-1.566.37A3.319,3.319,0,0,0-255.262,1499.374Z" transform="translate(266.775 -1498.043)" fill="#2b2e30"/><path d="M-299.711,1504.276a3.319,3.319,0,0,0-1.419-.662,3.828,3.828,0,0,0-1.609-.016,3.02,3.02,0,0,0-1.463.746,2.6,2.6,0,0,0-.8,1.37,10.037,10.037,0,0,1,1.219-.793,4.986,4.986,0,0,1,1.24-.452A12.55,12.55,0,0,1-299.711,1504.276Z" transform="translate(305.006 -1502.252)" fill="#2b2e30"/></g><path d="M-263.855,1525.055s1.578.968,1.186,2.031-1.452.486-1.452.486,1.062-.4.838-1.113A10.548,10.548,0,0,0-263.855,1525.055Z" transform="translate(291.647 -1501.199)" fill="#f2917d"/><path d="M-280.531,1544.615c-1.807,1.787-5.111,5.659-10.419.449-.547-.536-.358-1.422.408-1.455l9.492-.418A.8.8,0,0,1-280.531,1544.615Z" transform="translate(312.508 -1515.136)" fill="#fff"/></g><g transform="translate(51.173 34.947)"><path d="M-166.737,1514.816a9.425,9.425,0,0,0-6.2.436c-6.065,2.351-11.5,9.755-12.592,17.516-.662,4.724-3.026,6.38-4.775,6.954a1.493,1.493,0,0,0-.792,2.241,23.6,23.6,0,0,0,4.659,5.79c7.309,5.745,15.3,7.01,24.48,6.623a35.358,35.358,0,0,0,20.474-7.193,2.126,2.126,0,0,0-.059-3.38c-1.562-1.145-3.326-3.376-3.447-7.683C-145.247,1526.967-149.538,1511.721-166.737,1514.816Z" transform="translate(191.345 -1514.409)" fill="#2b2e30"/></g><path d="M-182.929,1717.437c11.085,2.087,18.139,1.17,18.139,1.17l4.479-38.63-13.606-9.024c0-.042,0-.071,0-.071l-.108-.106-.119.024-.1-.068-.141.058-.029.065-15.935,3.107-10.4,37.645s6.2,3.5,17.254,5.718c.017,0,.032.01.049.013l.236.044.235.047C-182.962,1717.434-182.946,1717.434-182.929,1717.437Z" transform="translate(249.749 -1599.605)" fill="#fff26f"/><g transform="translate(49.252 70.984)"><g clip-path="url(#f)"><path d="M-109.49,1669.077c-.534,2.743-4.525,4.274-8.914,3.42s-7.515-3.771-6.981-6.513,4.525-4.274,8.914-3.421S-108.956,1666.334-109.49,1669.077Z" transform="translate(142.617 -1664.128)" fill="#5db894"/></g></g><path d="M-113.891,1655.647l-1.576,4.867s.016,3.572,4.635,4.5c6.49,1.3,6.861-2.457,6.861-2.457l1.947-6.4" transform="translate(184.202 -1588.011)" fill="#ffae9c"/><g transform="translate(58.653 37.721)"><g transform="translate(3.095)"><path d="M-145.658,1541.554s2.51-16.132,15.775-15.114c14.4,1.106,16.788,10.389,15.941,19.167" transform="translate(145.658 -1526.394)" fill="#61b896"/></g><g transform="translate(0 3.541)"><path d="M-124.7,1555.852a3.8,3.8,0,0,0-.611-.032c-.635-7.1-5.747-13.014-12.693-13.988s-13.49,3.309-16.052,9.963a3.866,3.866,0,0,0-.63-.147,3.815,3.815,0,0,0-4.307,3.248,3.814,3.814,0,0,0,3.248,4.307,3.84,3.84,0,0,0,.61.032c.568,7.176,5.7,13.178,12.706,14.16s13.587-3.375,16.107-10.115a3.828,3.828,0,0,0,.562.127,3.814,3.814,0,0,0,4.307-3.248A3.814,3.814,0,0,0-124.7,1555.852Z" transform="translate(159.029 -1541.695)" fill="#fdc4b1" fill-rule="evenodd"/></g><g transform="translate(18.149 3.554)"><path d="M-66.049,1560.044l-1.021-2.32s-7.191-3.2-10.725-7.881a13.971,13.971,0,0,1-2.818-8.058,14.1,14.1,0,0,1,2.949.1,15.093,15.093,0,0,1,12.57,12.97,6.149,6.149,0,0,1-.006,1.855l-.493,3.251A.246.246,0,0,1-66.049,1560.044Z" transform="translate(80.612 -1541.75)" fill="#2b2e30"/></g><g transform="translate(4.819 3.52)"><path d="M-137.38,1555.207l1.631-3.217s12.867-2.036,13.569-10.252c-6.938-.96-13.468,3.321-16.026,9.967l.257,3.389A.3.3,0,0,0-137.38,1555.207Z" transform="translate(138.206 -1541.604)" fill="#2b2e30"/></g><g transform="translate(13.335 17.691)"><g transform="translate(0 0)"><rect width="1.637" height="2.346" rx="0.819" transform="matrix(0.99, 0.139, -0.139, 0.99, 0.326, 0)" fill="#2b2e30"/></g><g transform="translate(8.684 1.217)"><rect width="1.637" height="2.346" rx="0.819" transform="translate(0.326 0) rotate(7.979)" fill="#2b2e30"/></g></g><g transform="translate(13.551 23.175)"><path d="M-100.293,1627.676c1.358,1.626,3.792,5.1,8.609,1.2.5-.4.409-1.151-.223-1.24l-7.842-1.1A.667.667,0,0,0-100.293,1627.676Z" transform="translate(100.481 -1626.527)" fill="#fff"/></g><g transform="translate(23.528 22.921)"><ellipse cx="2.647" cy="2.647" rx="2.647" ry="2.647" fill="#ffae9c"/></g><g transform="translate(7.186 20.63)"><ellipse cx="2.647" cy="2.647" rx="2.647" ry="2.647" fill="#ffae9c"/></g><g transform="translate(17.71 20.233)"><path d="M-81.489,1613.813s-1.265.727-.98,1.574,1.133.416,1.133.416-.828-.336-.635-.9A8.334,8.334,0,0,1-81.489,1613.813Z" transform="translate(82.51 -1613.813)" fill="#f2917d"/></g><g transform="translate(12.177 15.877)"><path d="M-102.091,1596.022a7.484,7.484,0,0,0-2.2-.492,3.493,3.493,0,0,0-1.063.125,5.913,5.913,0,0,0-1.06.432,2.206,2.206,0,0,1,.906-.826,2.45,2.45,0,0,1,1.235-.262,3.178,3.178,0,0,1,1.207.3A2.886,2.886,0,0,1-102.091,1596.022Z" transform="translate(106.415 -1594.994)" fill="#2b2e30"/></g><g transform="translate(21.386 17.123)"><path d="M-66.629,1600.843a2.878,2.878,0,0,1,1.137-.424,3.17,3.17,0,0,1,1.243.041,2.449,2.449,0,0,1,1.115.591,2.21,2.21,0,0,1,.644,1.043,5.95,5.95,0,0,0-.9-.707,3.485,3.485,0,0,0-.988-.413A7.486,7.486,0,0,0-66.629,1600.843Z" transform="translate(66.629 -1600.376)" fill="#2b2e30"/></g></g><path d="M-204.962,1750.3l-4.059,14.475-3.987,2.364s-2.057-4.312,1.837-19.563" transform="translate(259.584 -1658.662)" fill="#fdc4b1"/><g transform="translate(35.801 100.823)"><g transform="translate(0 0.389)"><path d="M-210.83,1808.777c-.037.458-5.421,6.225-9.418,10.382-2.269,2.358-4.091,4.2-4.239,4.26-.41.168-15.978-4.023-16.036-4.012s-.034.474-.206.468a18.8,18.8,0,0,1-2.834-1.2c-.059-.144-.1-.553-.212-.608s-13.975-5.325-13.987-5.757,16.328-11.684,16.932-11.593a40.667,40.667,0,0,1,10.686,3.761c.89.441,1.424.735,1.424.735C-220.445,1805-210.771,1808.056-210.83,1808.777Z" transform="translate(257.763 -1800.716)" fill="#3e4e98"/></g><g transform="translate(0.436)"><path d="M-240.569,1818.575a18.751,18.751,0,0,0-7.341-3.753,34.874,34.874,0,0,1-7.97-3.17l16.5-10.932s10.081,2.339,11.771,4.861a33.454,33.454,0,0,1,7.577-.077,49.928,49.928,0,0,1,7.749,1.943c1.254.426,2.369.9,2.369.9s-13.17,14.205-13.406,14.246-5.375-1.208-7.3-1.826C-232.993,1820.008-236.744,1818.656-240.569,1818.575Z" transform="translate(255.881 -1800.33)" fill="#f4ece5"/><g transform="translate(1.667 11.691)"><path d="M-218.448,1858.9a25.627,25.627,0,0,1-7.026-2.239,16.419,16.419,0,0,0-6.341-2.022,6.115,6.115,0,0,0-3.091.648l-.037-.045a.029.029,0,0,0,.022-.044,8.45,8.45,0,0,0-5.253-4c-2.613-.825-5.382-.925-8.019-1.65-.009,0-.011.012,0,.014,4.483,1.273,10.508.907,13.129,5.522-3.274-4.028-9.278-3.372-13.6-5.528-.01-.005-.017.011-.007.016,4.373,2.24,10.486,1.487,13.721,5.733l0,0c-.019.01-.008.042.013.032l.014-.006,0,0a.024.024,0,0,0,.041-.024c2.65-1.231,5.49-.381,8.013.762,1.361.616,2.694,1.293,4.1,1.8a23.208,23.208,0,0,0,4.313,1.084A.03.03,0,0,0-218.448,1858.9Z" transform="translate(248.677 -1849.551)" fill="#f4ece5"/><path d="M-226.8,1859.668l-.02-.025a.019.019,0,0,0-.005-.019c-.018-.02-.038-.037-.056-.056a6.133,6.133,0,0,0-1.886-1.63,21.882,21.882,0,0,0-2.91-1.227,26.867,26.867,0,0,0-2.929-.76q-1.727-.393-3.407-.956c-.008,0-.013.009-.005.012q1.436.5,2.91.862c1.048.259,2.114.455,3.142.79a25.9,25.9,0,0,1,2.756,1.114,6.055,6.055,0,0,1,1.935,1.416,9.465,9.465,0,0,0-2.864-1.679,35.7,35.7,0,0,0-4.367-1.32s0,0,0,0a37.944,37.944,0,0,1,4.236,1.306,9.178,9.178,0,0,1,3.353,2.1c.027.033.054.064.081.1S-226.784,1859.692-226.8,1859.668Z" transform="translate(240.492 -1853.735)" fill="#f4ece5"/><path d="M-174.509,1877.541c-1.3-.368-2.617-.7-3.9-1.141-1.232-.42-2.417-.954-3.623-1.438a15,15,0,0,0-3.558-1.039,12.771,12.771,0,0,0-3.739.172.009.009,0,0,0,0,.018,14.5,14.5,0,0,1,4.01-.1,16.965,16.965,0,0,1,3.665,1.156c1.159.477,2.307.973,3.5,1.367s2.417.732,3.642,1.031C-174.5,1877.572-174.493,1877.545-174.509,1877.541Z" transform="translate(203.072 -1868.224)" fill="#f4ece5"/><path d="M-178.182,1878.16c-1.932-.473-3.728-1.354-5.625-1.938a17.7,17.7,0,0,0-5.663-.7c-.014,0-.011.021,0,.021a19.089,19.089,0,0,1,6.047.849c1.752.58,3.432,1.362,5.236,1.779C-178.176,1878.173-178.174,1878.161-178.182,1878.16Z" transform="translate(203.179 -1869.506)" fill="#f4ece5"/><path d="M-176.834,1878.8c-2.1-.287-3.952-1.363-5.924-2.064a17.681,17.681,0,0,0-5.938-1.046s0,0,0,0a19.291,19.291,0,0,1,6.342,1.2c1.821.694,3.558,1.669,5.517,1.919A.007.007,0,0,0-176.834,1878.8Z" transform="translate(202.58 -1869.639)" fill="#f4ece5"/></g><g transform="translate(0.358)"><path d="M-208.455,1805.253l-13.891,14.9a33.558,33.558,0,0,1-5.594-1.848c-1.742-.918-6.5-4.726-11.294-1.974l0,0a8.151,8.151,0,0,0-4.784-4.466c-3.529-1.151-7.682-.937-10.314-2.233,0,0,12.186-8.7,16.229-10.6a24.8,24.8,0,0,0,3.506,1.185c3.643.8,6.743,1.2,8.176,4.066h0a24.536,24.536,0,0,1,6.667-.675A104.091,104.091,0,0,1-208.455,1805.253Z" transform="translate(254.333 -1799.037)" fill="#fff"/><g transform="translate(2.713 2.146)"><path d="M-230.228,1846.03a9.013,9.013,0,0,0-4.917-3.8c-2.429-.771-5.034-.1-7.456-.869-.01,0-.017.011-.007.015,2.282.821,4.771.2,7.092.844a9.4,9.4,0,0,1,5.251,3.838C-230.247,1846.081-230.212,1846.054-230.228,1846.03Z" transform="translate(242.612 -1833.71)" fill="#f4ece5"/><path d="M-222.7,1842.346a8.528,8.528,0,0,0-4.457-3.627,9.352,9.352,0,0,0-2.987-.518,15.029,15.029,0,0,1-3.719-.278c-.013,0-.019.019-.007.023a11.325,11.325,0,0,0,3.145.317,10.63,10.63,0,0,1,3.368.464,9.1,9.1,0,0,1,4.628,3.639C-222.713,1842.385-222.687,1842.365-222.7,1842.346Z" transform="translate(235.897 -1831.069)" fill="#f4ece5"/><path d="M-159.984,1868.395a19.916,19.916,0,0,1-3.3-1.2,22.171,22.171,0,0,1-2.972-1.853,7.718,7.718,0,0,0-6.019-1.305c-.008,0-.007.015,0,.013a7.679,7.679,0,0,1,3.3.114,8.956,8.956,0,0,1,2.988,1.479,17.206,17.206,0,0,0,2.9,1.722,19.222,19.222,0,0,0,3.109,1.062C-159.972,1868.431-159.966,1868.4-159.984,1868.395Z" transform="translate(188.562 -1851.025)" fill="#f4ece5"/><path d="M-155.379,1863.286a22.36,22.36,0,0,1-3.356-1.146c-1.02-.467-1.98-1.065-2.954-1.627-1.722-.994-3.825-2.1-5.875-1.679-.021,0-.02.04,0,.037a6.729,6.729,0,0,1,3.329.471,18.9,18.9,0,0,1,2.84,1.421,29.166,29.166,0,0,0,2.868,1.532,17.412,17.412,0,0,0,3.141,1.027C-155.366,1863.326-155.359,1863.292-155.379,1863.286Z" transform="translate(184.946 -1847.071)" fill="#f4ece5"/><path d="M-176.006,1822.135a140.385,140.385,0,0,0-12.716,11.78c-.011.011.008.026.019.015,2.072-2.047,4.137-4.1,6.277-6.073,2.105-1.945,4.265-3.827,6.459-5.672C-175.938,1822.16-175.975,1822.109-176.006,1822.135Z" transform="translate(201.197 -1818.93)" fill="#f4ece5"/><path d="M-211.714,1833.88a6.127,6.127,0,0,0-1.67-1.971,9.585,9.585,0,0,0-2.512-1.6c-1.958-.775-4.126-.687-6.156-1.162-.007,0-.009.01,0,.011,1.933.494,3.985.435,5.874,1.114a8.968,8.968,0,0,1,2.509,1.5,7.034,7.034,0,0,1,1.937,2.117C-211.728,1833.9-211.708,1833.892-211.714,1833.88Z" transform="translate(226.816 -1824.325)" fill="#f4ece5"/><path d="M-207.419,1830.671a6.516,6.516,0,0,0-3.7-3.489,29.529,29.529,0,0,0-6.29-1.45c-.007,0-.008.009,0,.01,3.6.8,8.29,1,9.956,4.942A.018.018,0,0,0-207.419,1830.671Z" transform="translate(223.244 -1821.699)" fill="#f4ece5"/><path d="M-194.868,1828.908a6.113,6.113,0,0,0-2.559-3.232,15.315,15.315,0,0,0-4.765-1.452c-.005,0-.006.007,0,.008,1.574.45,3.262.588,4.691,1.452a6.137,6.137,0,0,1,2.6,3.238C-194.894,1828.944-194.86,1828.93-194.868,1828.908Z" transform="translate(211.551 -1820.541)" fill="#f4ece5"/><path d="M-196.528,1824.445c-1.444-3.72-5.82-4.6-9.313-5.133a.007.007,0,0,0,0,.014c3.5.606,7.762,1.437,9.287,5.13A.015.015,0,0,0-196.528,1824.445Z" transform="translate(214.358 -1816.766)" fill="#f4ece5"/><path d="M-192.373,1811.228c-.009,0-.013.013,0,.016,2.858.929,7.71,1.018,9.02,4.78,0,.011.02,0,.017-.007C-184.494,1812.319-189.266,1812.082-192.373,1811.228Z" transform="translate(204.008 -1810.553)" fill="#f4ece5"/><path d="M-171.847,1810.578a4.631,4.631,0,0,0-1.791-1.014,27.81,27.81,0,0,0-4.835-1.253.014.014,0,0,0,0,.027,29.09,29.09,0,0,1,4.63,1.206,5.338,5.338,0,0,1,1.829.946,6.371,6.371,0,0,1,1.2,1.75s.01,0,.008,0A5.488,5.488,0,0,0-171.847,1810.578Z" transform="translate(193.329 -1808.311)" fill="#f4ece5"/><path d="M-181.235,1810.847c-1.857-.786-3.917-.87-5.835-1.448-.013,0-.022.015-.009.02,3.041,1,7.767.785,8.834,4.605.006.022.045.013.04-.01A4.88,4.88,0,0,0-181.235,1810.847Z" transform="translate(199.936 -1809.147)" fill="#f4ece5"/><path d="M-103.2,1827.579a37.835,37.835,0,0,0-9.73-1.3c-.009,0-.009.015,0,.015a46,46,0,0,1,9.723,1.331C-103.175,1827.637-103.169,1827.588-103.2,1827.579Z" transform="translate(142.949 -1822.124)" fill="#f4ece5"/><path d="M-120.137,1831.874a51.259,51.259,0,0,0-13.129-1.35c-.028,0-.022.043.005.042a54.093,54.093,0,0,1,13.115,1.366C-120.109,1831.94-120.1,1831.883-120.137,1831.874Z" transform="translate(158.587 -1825.368)" fill="#f4ece5"/><path d="M-126.659,1836.516a26.553,26.553,0,0,0-3.269-.775q-1.683-.325-3.389-.511a39.085,39.085,0,0,0-6.779-.191c-.009,0-.007.014,0,.014a49.438,49.438,0,0,1,6.84.244q1.667.188,3.317.5c1.1.209,2.177.507,3.27.743C-126.651,1836.547-126.643,1836.521-126.659,1836.516Z" transform="translate(163.827 -1828.799)" fill="#f4ece5"/><path d="M-140.668,1850.57c-4.1-1.283-8.158-3.459-12.574-3.212a.013.013,0,0,0,0,.026c4.445-.15,8.417,1.973,12.563,3.229C-140.65,1850.621-140.641,1850.578-140.668,1850.57Z" transform="translate(173.935 -1838.306)" fill="#f4ece5"/><path d="M-130.886,1847.565c-.844-.356-1.711-.665-2.558-1.016s-1.7-.706-2.56-1.017a14.018,14.018,0,0,0-5.1-.963,0,0,0,0,0,0,.008,15.371,15.371,0,0,1,5.349,1.117c1.622.6,3.192,1.427,4.854,1.91A.022.022,0,0,0-130.886,1847.565Z" transform="translate(164.601 -1836.175)" fill="#f4ece5"/><path d="M-138.74,1861.348a42.026,42.026,0,0,1-4.546-1.815,31.791,31.791,0,0,0-4.425-1.751c-.008,0-.012.011,0,.013a42.71,42.71,0,0,1,4.536,1.843,29.844,29.844,0,0,0,4.427,1.751C-138.729,1861.395-138.717,1861.355-138.74,1861.348Z" transform="translate(169.681 -1846.331)" fill="#f4ece5"/></g></g></g></g><path d="M-115.12,1764.482c10.622-2.547,22.44-6.849,21.871-20.581-.289-6.961-5.68-7.921-5.68-7.921s-1.033,13.15-5.951,17.316-15.506,6.579-16.338,9.273" transform="translate(188.623 -1649.752)" fill="#fdc4b1"/><path d="M-125.015,1824.226a4.551,4.551,0,0,1,1.026,2.785,3.772,3.772,0,0,1-.707,2.7,13.982,13.982,0,0,0-3.362,1.226h0c-1.266,1.251-4.447,4.3-6.225,5.189-1.568.781-2.439.35-1.353-.66a23.257,23.257,0,0,0,2.263-1.859c-.711.44-4.112,2.428-4.653,1.487s1.115-1.074,3.665-3.26c-1.913,1.142-4.394,2.385-5.024,1.533s3.252-2.246,4.054-2.987c-1.185.473-4.229,1.306-4.276.14s3.043-1.717,3.942-2.449l2.466-2.233c-.243-.228-2.386-.754-2.651-1.092s-.185-.807.985-1.149a7.884,7.884,0,0,1,3.977.408c.261.082.492.161.678.229h0a12.6,12.6,0,0,0,4.713.136Z" transform="translate(202.754 -1716.989)" fill="#fdc4b1"/><path d="M-33.037,1710.676s8.315,3.789,7.48,15.123l-.209,3.824-9.387-1.947Z" transform="translate(122.475 -1630.304)" fill="#5db894" fill-rule="evenodd"/><path d="M-376.268,1710.309c-12.4-5.354-37.1-11.323-36.155-34.022.477-11.507,9.39-13.093,9.39-13.093s1.708,21.739,9.838,28.626,25.633,10.875,27.009,15.33" transform="translate(412.449 -1593.81)" fill="#fdc4b1"/><path d="M-292.077,1809.072a7.521,7.521,0,0,0-1.7,4.6,6.235,6.235,0,0,0,1.168,4.456,23.121,23.121,0,0,1,5.557,2.028h0c2.093,2.068,7.351,7.11,10.29,8.579,2.591,1.292,4.032.578,2.237-1.091-.76-.707-2.925-2.059-3.741-3.073,1.176.728,6.8,4.014,7.692,2.458s-1.842-1.776-6.059-5.39c3.162,1.887,7.264,3.942,8.306,2.535s-5.376-3.713-6.7-4.939c1.959.782,6.991,2.16,7.069.231s-5.03-2.837-6.517-4.048l-4.077-3.691c.4-.377,3.945-1.246,4.382-1.805s.306-1.333-1.628-1.9c-1.96-.551-4.729.1-6.575.675-.431.136-.812.268-1.121.38h0a20.835,20.835,0,0,1-7.791.225Z" transform="translate(321.254 -1704.962)" fill="#fdc4b1"/></g><g transform="translate(0 57.228)"><path d="M-412.95,1611.349c-8.826,4.689-15.83,19.615-15.173,20.628s8.913,1.943,17.337,10.367c.78.779,3.477-10.4,3.144-19.252C-407.981,1614.128-407.962,1608.7-412.95,1611.349Z" transform="translate(428.166 -1610.676)" fill="#ffb52c"/></g></g></g></g></g><line x2="31.192" transform="translate(1387.669 1480.53)" fill="none" stroke="#5ac29f" stroke-width="1"/><g transform="matrix(1, 0, 0, 1, 1208.22, 1203.94)" filter="url(#g)"><ellipse cx="88.271" cy="88.271" rx="88.271" ry="88.271" transform="translate(109.5 9.62)" fill="none" stroke="#f8f8f8" stroke-width="5"/></g></g></g></svg>