<svg xmlns="http://www.w3.org/2000/svg" xmlns:xlink="http://www.w3.org/1999/xlink" width="152" height="88" viewBox="0 0 152 88">
  <defs>
    <filter id="타원_70" x="0" y="0" width="92.564" height="88" filterUnits="userSpaceOnUse">
      <feOffset dy="10" input="SourceAlpha"/>
      <feGaussianBlur stdDeviation="5" result="blur"/>
      <feFlood flood-opacity="0.051"/>
      <feComposite operator="in" in2="blur"/>
      <feComposite in="SourceGraphic"/>
    </filter>
    <filter id="타원_71" x="59.436" y="0" width="92.564" height="88" filterUnits="userSpaceOnUse">
      <feOffset dy="10" input="SourceAlpha"/>
      <feGaussianBlur stdDeviation="5" result="blur-2"/>
      <feFlood flood-opacity="0.051"/>
      <feComposite operator="in" in2="blur-2"/>
      <feComposite in="SourceGraphic"/>
    </filter>
    <filter id="사각형_371" x="27.111" y="0" width="93.607" height="88" filterUnits="userSpaceOnUse">
      <feOffset dy="10" input="SourceAlpha"/>
      <feGaussianBlur stdDeviation="5" result="blur-3"/>
      <feFlood flood-opacity="0.051"/>
      <feComposite operator="in" in2="blur-3"/>
      <feComposite in="SourceGraphic"/>
    </filter>
  </defs>
  <g id="그룹_6251" data-name="그룹 6251" transform="translate(-1584 -939)">
    <g transform="matrix(1, 0, 0, 1, 1584, 939)" filter="url(#타원_70)">
      <ellipse id="타원_70-2" data-name="타원 70" cx="31.282" cy="29" rx="31.282" ry="29" transform="translate(15 5)" fill="#ffdf35"/>
    </g>
    <g transform="matrix(1, 0, 0, 1, 1584, 939)" filter="url(#타원_71)">
      <ellipse id="타원_71-2" data-name="타원 71" cx="31.282" cy="29" rx="31.282" ry="29" transform="translate(74.44 5)" fill="#ffdf35"/>
    </g>
    <g transform="matrix(1, 0, 0, 1, 1584, 939)" filter="url(#사각형_371)">
      <rect id="사각형_371-2" data-name="사각형 371" width="63.607" height="58" transform="translate(42.11 5)" fill="#ffdf35"/>
    </g>
    <path id="패스_1603" data-name="패스 1603" d="M31,143.442c-7.591,0-13.745,4.865-13.745,10.866,0,3.906,2.607,7.33,6.521,9.245-.288,1.073-1.041,3.888-1.192,4.49-.187.747.273.738.575.537.236-.157,3.766-2.558,5.289-3.593a17.393,17.393,0,0,0,2.551.187c7.591,0,13.745-4.865,13.745-10.866S38.587,143.442,31,143.442Z" transform="translate(1596.602 816.931)" fill="#381e1f"/>
    <text id="고객센터" transform="translate(1646.537 980.372)" font-size="17" font-family="NotoSansCJKkr-Medium, Noto Sans CJK KR" font-weight="500" letter-spacing="-0.08em"><tspan x="0" y="0">고객센터</tspan></text>
  </g>
</svg>
