<svg xmlns="http://www.w3.org/2000/svg" width="34.892" height="33.293" viewBox="0 0 34.892 33.293">
  <g id="그룹_6255" data-name="그룹 6255" transform="translate(-956 -1551)">
    <line id="선_59" data-name="선 59" y2="16.753" transform="translate(966.35 1566.541)" fill="none" stroke="#5c5c5c" stroke-linecap="round" stroke-linejoin="round" stroke-width="2"/>
    <path id="패스_903" data-name="패스 903" d="M1319.979,770.09h12.546a4,4,0,0,0,3.954-3.389l1.894-12.222a3.884,3.884,0,0,0-3.838-4.48h-9.075v-7.25a3.935,3.935,0,0,0-3.935-3.935h-.059a2.125,2.125,0,0,0-2.1,1.787h0a37.5,37.5,0,0,1-3.3,10.337l-1.17,2.4h-6.87a2.5,2.5,0,0,0-2.5,2.5V767.6a2.5,2.5,0,0,0,2.5,2.495h6.855" transform="translate(-348.536 813.187)" fill="none" stroke="#5c5c5c" stroke-linecap="round" stroke-linejoin="round" stroke-width="2"/>
  </g>
</svg>
