<svg xmlns="http://www.w3.org/2000/svg" width="34.884" height="29.94" viewBox="0 0 34.884 29.94">
  <g id="그룹_6257" data-name="그룹 6257" transform="translate(-956 -1238)">
    <path id="패스_899" data-name="패스 899" d="M182.783,366.193h-3.23a3.653,3.653,0,0,0-3.654,3.654v15.089a3.654,3.654,0,0,0,3.654,3.654h5.731a3.653,3.653,0,0,1,2.583,1.071l4.474,4.473,4.474-4.473a3.653,3.653,0,0,1,2.583-1.071h5.731a3.654,3.654,0,0,0,3.654-3.654V369.847a3.653,3.653,0,0,0-3.654-3.654H187.243" transform="translate(781.101 872.807)" fill="none" stroke="#5c5c5c" stroke-linecap="round" stroke-linejoin="round" stroke-width="2"/>
    <ellipse id="타원_51" data-name="타원 51" cx="0.398" cy="0.414" rx="0.398" ry="0.414" transform="translate(980.462 1250.367)" fill="none" stroke="#5c5c5c" stroke-linecap="round" stroke-linejoin="round" stroke-width="2"/>
    <ellipse id="타원_52" data-name="타원 52" cx="0.398" cy="0.414" rx="0.398" ry="0.414" transform="translate(966.278 1250.367)" fill="none" stroke="#5c5c5c" stroke-linecap="round" stroke-linejoin="round" stroke-width="2"/>
    <ellipse id="타원_53" data-name="타원 53" cx="0.398" cy="0.414" rx="0.398" ry="0.414" transform="translate(973.37 1250.367)" fill="none" stroke="#5c5c5c" stroke-linecap="round" stroke-linejoin="round" stroke-width="2"/>
  </g>
</svg>
