<svg xmlns="http://www.w3.org/2000/svg" width="48" height="48" viewBox="0 0 48 48">
  <defs>
    <style>
      .cls-1 {
        fill: #fff;
      }

      .cls-2 {
        fill: none;
      }
    </style>
  </defs>
  <g id="ic_blog" transform="translate(-1831 -525)">
    <g id="ic_blog-2" data-name="ic_blog" transform="translate(1840 534)">
      <path id="패스_258" data-name="패스 258" class="cls-1" d="M849.041,525.142s-2.44,0-2.44,2.279a2.205,2.205,0,0,0,2.44,2.248s2.5,0,2.5-2.248A2.243,2.243,0,0,0,849.041,525.142Zm0,3.228a.949.949,0,1,1,.949-.949A.95.95,0,0,1,849.041,528.37Z" transform="translate(-832.943 -515.936)"/>
      <path id="패스_259" data-name="패스 259" class="cls-1" d="M835.639,518.444v1.424s.674-.031.674,1.225v3.643h1.424v-3.979S837.8,518.444,835.639,518.444Z" transform="translate(-825.307 -511.215)"/>
      <path id="패스_260" data-name="패스 260" class="cls-1" d="M819.9,520.686a1.961,1.961,0,0,0-1.255.581v-2.342h-1.477v6.153h1.492V524.6a1.416,1.416,0,0,0,1.24.636,2.176,2.176,0,0,0,2.081-2.3S821.9,520.686,819.9,520.686Zm-.325,3.248a.949.949,0,1,1,.949-.949A.95.95,0,0,1,819.573,523.933Z" transform="translate(-812.311 -511.552)"/>
      <path id="패스_261" data-name="패스 261" class="cls-1" d="M824.29,494.333H806.767a5.842,5.842,0,0,0-5.841,5.842V517.7a5.842,5.842,0,0,0,5.841,5.841H824.29a5.841,5.841,0,0,0,5.842-5.841V500.175A5.841,5.841,0,0,0,824.29,494.333Zm3.744,15.6a3.957,3.957,0,0,1-3.95,3.964H818.19l-2.011,3.274a.465.465,0,0,1-.068.1.673.673,0,0,1-1.166,0,.7.7,0,0,1-.066-.093l-2.011-3.275h-5.894a3.957,3.957,0,0,1-3.95-3.964v-9.4a3.957,3.957,0,0,1,3.95-3.964h17.11a3.957,3.957,0,0,1,3.95,3.964Z" transform="translate(-800.926 -494.333)"/>
      <path id="패스_262" data-name="패스 262" class="cls-1" d="M869.781,525.7a1.615,1.615,0,0,0-1.24-.562,2.037,2.037,0,0,0-2.089,2.263s-.023,2.191,2.032,2.191a1.69,1.69,0,0,0,1.3-.563v.345a.939.939,0,0,1-.941,1.079h-.356v1.308h.574a2.144,2.144,0,0,0,2.158-2.307V525.29h-1.435Zm-.883,2.666a.949.949,0,1,1,.949-.949A.949.949,0,0,1,868.9,528.369Z" transform="translate(-846.865 -515.898)"/>
    </g>
    <rect id="사각형_2673" data-name="사각형 2673" class="cls-2" width="48" height="48" transform="translate(1831 525)"/>
  </g>
</svg>
