<svg id="ic_check" xmlns="http://www.w3.org/2000/svg" width="75.735" height="75.735">
    <defs>
        <style>
            .cls-1{fill:#5ac29f}
        </style>
    </defs>
    <g id="그룹_5961" data-name="그룹 5961" transform="translate(17.982 9.515)">
        <g id="그룹_5960" data-name="그룹 5960">
            <path id="패스_2189" data-name="패스 2189" class="cls-1" d="M177.155 65.166a2.854 2.854 0 0 0-4.036 0l-34.242 34.147-12.355-13.418a2.854 2.854 0 0 0-4.2 3.867l14.367 15.6a2.851 2.851 0 0 0 2.039.92h.061a2.857 2.857 0 0 0 2.015-.832L177.15 69.2a2.854 2.854 0 0 0 .005-4.034z" transform="translate(-121.568 -64.327)"/>
        </g>
    </g>
    <g id="그룹_5963" data-name="그룹 5963">
        <g id="그룹_5962" data-name="그룹 5962">
            <path id="패스_2190" data-name="패스 2190" class="cls-1" d="M72.881 35.013a2.854 2.854 0 0 0-2.854 2.854A32.159 32.159 0 1 1 37.868 5.709a2.854 2.854 0 1 0 0-5.709 37.868 37.868 0 1 0 37.867 37.868 2.854 2.854 0 0 0-2.854-2.855z"/>
        </g>
    </g>
</svg>
