<svg xmlns="http://www.w3.org/2000/svg" width="48" height="48" viewBox="0 0 48 48">
  <defs>
    <style>
      .cls-1 {
        fill: #fff;
      }

      .cls-2 {
        fill: none;
      }
    </style>
  </defs>
  <g id="ic_fb" transform="translate(-1831 -456)">
    <path id="ic_fb-2" data-name="ic_fb" class="cls-1" d="M737.927,559.251c0,.42.074.58.545.571q2.5-.05,5.01,0c.467.008.589-.109.587-.582-.02-4.475-.014-8.951-.01-13.426,0-.713-.068-.606.631-.61.973-.006,1.945-.011,2.917,0,.291,0,.439-.057.467-.381.123-1.437.257-2.874.412-4.307.042-.381-.078-.464-.439-.458-1.232.022-2.465.007-3.7.009-.2,0-.384.022-.377-.284.02-.859-.02-1.721.035-2.577a1.606,1.606,0,0,1,1.793-1.627c.81,0,1.621-.008,2.432,0,.252,0,.336-.074.333-.331q-.015-2.165,0-4.329c0-.229-.069-.313-.3-.31-1.685.018-3.374-.024-5.058.051a5.065,5.065,0,0,0-4.06,2.063,6.247,6.247,0,0,0-1.175,3.642q-.036,1.629,0,3.259c.009.392-.078.541-.5.521-.728-.037-1.458,0-2.188-.016-.277-.007-.36.084-.357.358.011,1.427.013,2.854,0,4.281,0,.306.1.386.392.378.714-.016,1.427.016,2.14-.013.385-.016.495.1.492.49-.018,2.287-.009,4.573-.009,6.859C737.936,554.744,737.946,557,737.927,559.251Z" transform="translate(1113.078 -65.615)"/>
    <rect id="사각형_2672" data-name="사각형 2672" class="cls-2" width="48" height="48" transform="translate(1831 456)"/>
  </g>
</svg>
