<svg xmlns="http://www.w3.org/2000/svg" width="48" height="48" viewBox="0 0 48 48">
  <defs>
    <style>
      .cls-1 {
        fill: #fff;
      }

      .cls-2 {
        fill: none;
      }
    </style>
  </defs>
  <g id="ic_insta" transform="translate(-1831 -386)">
    <path id="ic_insta-2" data-name="ic_insta" class="cls-1" d="M468.211,717.172a4.868,4.868,0,1,1-4.868-4.868A4.867,4.867,0,0,1,468.211,717.172Zm7.019-5.9c.071,1.541.086,2,.086,5.9s-.015,4.361-.086,5.9a8.089,8.089,0,0,1-.5,2.711,4.841,4.841,0,0,1-2.772,2.772,8.089,8.089,0,0,1-2.712.5c-1.539.07-2,.085-5.9.085s-4.361-.015-5.9-.085a8.088,8.088,0,0,1-2.712-.5,4.841,4.841,0,0,1-2.772-2.772,8.09,8.09,0,0,1-.5-2.711c-.071-1.539-.086-2-.086-5.9s.015-4.361.086-5.9a8.091,8.091,0,0,1,.5-2.712,4.837,4.837,0,0,1,2.772-2.771,8.059,8.059,0,0,1,2.712-.5c1.54-.071,2-.086,5.9-.086s4.361.015,5.9.086a8.061,8.061,0,0,1,2.712.5,4.837,4.837,0,0,1,2.772,2.771A8.09,8.09,0,0,1,475.23,711.27Zm-4.388,5.9a7.5,7.5,0,1,0-7.5,7.5A7.5,7.5,0,0,0,470.842,717.172Zm2.048-7.8a1.752,1.752,0,1,0-1.752,1.752A1.751,1.751,0,0,0,472.89,709.376Zm5.056,7.8c0-3.967-.016-4.464-.088-6.021a10.715,10.715,0,0,0-.678-3.544,7.469,7.469,0,0,0-4.271-4.272,10.717,10.717,0,0,0-3.545-.678c-1.557-.072-2.055-.088-6.021-.088s-4.463.016-6.02.088a10.718,10.718,0,0,0-3.545.678,7.469,7.469,0,0,0-4.271,4.272,10.713,10.713,0,0,0-.678,3.544c-.072,1.557-.089,2.055-.089,6.021s.017,4.463.089,6.02a10.718,10.718,0,0,0,.678,3.545,7.47,7.47,0,0,0,4.271,4.271,10.718,10.718,0,0,0,3.545.678c1.557.072,2.055.089,6.02.089s4.464-.017,6.021-.089a10.717,10.717,0,0,0,3.545-.678,7.47,7.47,0,0,0,4.271-4.271,10.72,10.72,0,0,0,.678-3.545C477.93,721.634,477.946,721.137,477.946,717.172Z" transform="translate(1391.262 -307.568)"/>
    <rect id="사각형_2671" data-name="사각형 2671" class="cls-2" width="48" height="48" transform="translate(1831 386)"/>
  </g>
</svg>
