<svg xmlns="http://www.w3.org/2000/svg" width="48" height="48" viewBox="0 0 48 48">
  <defs>
    <style>
      .cls-1 {
        fill: #fff;
      }

      .cls-2 {
        fill: none;
      }
    </style>
  </defs>
  <g id="ic_youtube" transform="translate(-1831 -595)">
    <path id="패스_1605" data-name="패스 1605" class="cls-1" d="M-388.618,107.494c0-.434,0-.868.006-1.3.007-.934.014-1.9-.019-2.854-.015-.426-.036-.819-.065-1.2-.148-1.931-.375-3.778-1.513-5.155a5.793,5.793,0,0,0-4.074-1.71c-1.668-.189-3.409-.316-5.324-.389-3.6-.137-7.246-.056-10.77.022-1.815.04-3.691.082-5.539.229-2.4.191-4.84.581-5.969,3a14.894,14.894,0,0,0-.876,6.219c0,.243,0,.482,0,.717-.011,2.088-.015,3.97.061,5.865.1,2.568.244,6.086,3.244,7.3a16.234,16.234,0,0,0,4.9.855c1.268.083,2.555.095,3.8.107q.588.005,1.176.013.878.013,1.76.013c2.108,0,4.224-.049,6.285-.1q1.179-.027,2.357-.052l.2,0a23.2,23.2,0,0,0,7.1-.879c2.16-.737,2.757-2.961,3.056-5.039a31.769,31.769,0,0,0,.205-4.758C-388.615,108.1-388.617,107.8-388.618,107.494Zm-20.87,5.3V101.174l9.889,5.808Z" transform="translate(2260.768 512.191)"/>
    <rect id="사각형_2674" data-name="사각형 2674" class="cls-2" width="48" height="48" transform="translate(1831 595)"/>
  </g>
</svg>
