<svg xmlns="http://www.w3.org/2000/svg" xmlns:xlink="http://www.w3.org/1999/xlink" width="240.076" height="240.076" viewBox="0 0 240.076 240.076"><defs><filter id="a" x="0" y="0" width="240.076" height="240.076" filterUnits="userSpaceOnUse"><feOffset dy="10" input="SourceAlpha"/><feGaussianBlur stdDeviation="10" result="b"/><feFlood flood-opacity="0.161"/><feComposite operator="in" in2="b"/><feComposite in="SourceGraphic"/></filter><clipPath id="c"><ellipse cx="90.04" cy="90.04" rx="90.04" ry="90.04" fill="#fff7c7"/></clipPath></defs><g transform="translate(-487.152 -839.004)"><g transform="matrix(1, 0, 0, 1, 487.15, 839)" filter="url(#a)"><ellipse cx="90.038" cy="90.038" rx="90.038" ry="90.038" transform="translate(30 20)" fill="#f8f8f8"/></g><g transform="translate(517.148 859)"><ellipse cx="90.04" cy="90.04" rx="90.04" ry="90.04" transform="translate(0 0)" fill="#fff7c7"/><g transform="translate(0 0)" clip-path="url(#c)"><g transform="translate(-3.037 29.766)"><g transform="translate(36.218 435.91)"><g transform="translate(0 8.91)"><path d="M2629.894,2424.626l-14.812,6.331a3.087,3.087,0,0,0-2.033,3.663c.385,1.151,1.642,2.211,4.937,2.262,7.323.113,39.732-4.261,39.732-4.261v2.944l15.038-1.472s1.051-14.894-3.528-17.074Z" transform="translate(-2612.92 -2417.02)"/></g><g transform="translate(16.973)"><path d="M2665.01,2405.62l-23.876,13.105s2.554,5.687,13.861,1.9,25.473-9.5,25.473-9.5l-2.065-8.909Z" transform="translate(-2641.134 -2402.21)" fill="#fdc4b1"/></g></g><g transform="translate(72.277 389.592)"><path d="M2693.107,2380.445l3.6-55.228-23.847,3.761,2.155,51.3Z" transform="translate(-2672.859 -2325.217)" fill="#fdc4b1"/></g><g transform="translate(149.721 371.626)"><g transform="translate(14.091 41.841)"><g transform="translate(0 6.462)"><path d="M2833.584,2401.7l-8.063,12.724a3,3,0,0,0,.707,4.1c1.063.778,2.784,1.043,5.525-.558,6.091-3.559,29.888-23.418,29.888-23.418l1.912,2.48,11.4-8.745s-8.8-13.071-13.982-12.622Z" transform="translate(-2825.013 -2375.646)"/></g><g transform="translate(8.571)"><path d="M2850.374,2374.46l-11.114,22.955s5.79,3.516,12.622-5.321,14.767-20.717,14.767-20.717l-7.481-6.474Z" transform="translate(-2839.26 -2364.904)" fill="#fdc4b1"/></g></g><path d="M2851.641,2343.669l-32.893-48.315-17.158,15.069,35.073,42.135Z" transform="translate(-2801.59 -2295.354)" fill="#fdc4b1"/></g><g transform="translate(57.065 184.565)"><path d="M2652.141,1989.077l2.859-.222q-.025-2.231,0-4.444h36.486l13.308,21.736,4.044-1.54,15.557,13.985s2.957,7.895-5.394,27.479l12.175,54.254c14.906,22.733,41.8,64.025,61.684,96.076l-39.287,24.646-55.475-89-2.418,87.319-47.833-1.527s6.89-60.969,1.55-124.182S2652.141,1989.077,2652.141,1989.077Z" transform="translate(-2647.572 -1984.411)" fill="#f7dea2"/></g><g transform="translate(78.531 242.841)"><path d="M2712.314,2170.644,2696.7,2142.6a77.282,77.282,0,0,1-9.375-29.851l-1.557-31.124a.385.385,0,0,0-.768.039l-1.742,35.973c0,8.6,3.933,24.034,8.109,31.556l20.362,42.724Z" transform="translate(-2683.255 -2081.281)" fill="#e0c180"/></g><g transform="translate(41.825)"><path d="M2639.2,1813.636c-6.664-.548-6.785-16.35-6.1-27.047a27.086,27.086,0,0,0-4.211-16.093c-13.1-20.938-2.829-53.153-2.829-53.153,12.75-43.644,36.043-34.326,36.043-34.326s23.576-16.013,44.747,7.11c15.691,17.136,16.871,52.553,13.038,62.683s-10.174,21.389-2.574,33.86c2.685,4.406-2.013,19.095-14.483,16.968" transform="translate(-2622.24 -1677.617)" fill="#2b2e30"/></g><g transform="translate(103.199 44.8)"><path d="M2726.865,1759.6s-6.771,12.669,1.511,18.322,10.311-14.6,10.311-14.6l-1.956-11.234-3.412.877" transform="translate(-2724.259 -1752.087)" fill="#2b2e30"/></g><g transform="translate(70.682 73.597)"><path d="M2670.207,1807.717s9.678,27.756,6.236,34.8c0,0,19.037-2.489,24.619-9.318l-.65-33.248Z" transform="translate(-2670.207 -1799.954)" fill="#eea593"/></g><g transform="translate(46.2 16.477)"><ellipse cx="36.11" cy="31.565" rx="36.11" ry="31.565" transform="translate(0 70.741) rotate(-78.382)" fill="#fdc4b1"/></g><g transform="translate(53.057 14.596)"><path d="M2643.393,1730.023s20.408,2.747,30.953-13.444c0,0-4.111,7.62,4.59,15.186,0,0-1.8-7.293,1.056-11.653,0,0-.135,14.106,23.165,28.616l4.7-1.376-.453-25.953-20.306-16.737-18.5-2.783-17.251,6.406-7.369,11.941-1.11,3.079-1.952,2.981,2.648,3.513" transform="translate(-2640.911 -1701.879)" fill="#2b2e30"/></g><g transform="translate(63.642 52.2)"><rect width="4.06" height="5.819" rx="2.03" transform="translate(0.644 0) rotate(6.358)" fill="#2b2e30"/></g><g transform="translate(85.254 54.608)"><rect width="4.06" height="5.819" rx="2.03" transform="matrix(0.994, 0.111, -0.111, 0.994, 0.644, 0)" fill="#2b2e30"/></g><g transform="translate(60.557 47.449)"><path d="M2664.093,1759.091a24.526,24.526,0,0,0-5.491-.851,9.748,9.748,0,0,0-2.559.327,19.645,19.645,0,0,0-2.665.988,5.079,5.079,0,0,1,2.122-2.268,5.911,5.911,0,0,1,3.111-.793,7.482,7.482,0,0,1,3.062.724A6.482,6.482,0,0,1,2664.093,1759.091Z" transform="translate(-2653.378 -1756.49)" fill="#2b2e30"/><g transform="translate(22.87 2.478)"><path d="M2691.393,1762.086a6.489,6.489,0,0,1,2.774-1.295,7.49,7.49,0,0,1,3.146-.032,5.9,5.9,0,0,1,2.86,1.459,5.069,5.069,0,0,1,1.571,2.679,19.661,19.661,0,0,0-2.382-1.55,9.754,9.754,0,0,0-2.424-.882A24.514,24.514,0,0,0,2691.393,1762.086Z" transform="translate(-2691.393 -1760.608)" fill="#2b2e30"/></g></g><g transform="translate(73.374 60.154)"><path d="M2677.123,1777.608s-3.084,1.892-2.319,3.97,2.839.95,2.839.95-2.076-.774-1.638-2.175A20.578,20.578,0,0,1,2677.123,1777.608Z" transform="translate(-2674.682 -1777.608)" fill="#f2917d"/></g><g transform="translate(65.001 68.96)"><path d="M2661.232,1794.848c3.185,3.481,8.951,10.965,19.276,1.8,1.064-.944.8-2.6-.621-2.737l-17.559-1.655A1.486,1.486,0,0,0,2661.232,1794.848Z" transform="translate(-2660.764 -1792.247)" fill="#fff"/></g><g transform="translate(49.944 98.947)"><path d="M2697.966,1843.829l-10.637-1.736-27.673.158-7.841,9.964-16.079,84.025,50.019,4.413,18.529-74.922" transform="translate(-2635.736 -1842.093)" fill="#fff"/></g><g transform="translate(81.969 99.669)"><g transform="translate(36.362 3.365)"><g transform="translate(31.176 141.372)"><g transform="translate(2.915)"><path d="M2831.773,2096.5c.782-6.241-4.318-11.86-11.39-12.55s-13.44,3.811-14.222,10.052,4.319,11.86,11.391,12.551S2830.992,2102.745,2831.773,2096.5Z" transform="translate(-2806.082 -2083.883)" fill="#fdc4b1"/></g><g transform="translate(0 0.057)"><path d="M2806.787,2102.169s-5.77.974-5.545-4.988,4.251-13.554,17.21-13.19Z" transform="translate(-2801.236 -2083.978)" fill="#fdc4b1"/></g></g><path d="M2751.534,1848.887s60.97,17.435,57.058,143.878h-26.135s-3.609-74.161-33.044-102.632Z" transform="translate(-2749.413 -1848.887)" fill="#61b896"/></g><path d="M2715,1843.293s-30.54,24.242-25.455,70.814,30.586,62.531,58.978,59.157l-15.9-44.306,14.2-41.2-16.653-38.124a6.918,6.918,0,0,0-4.786-3.822Z" transform="translate(-2688.97 -1843.293)" fill="#61b896"/></g><g transform="translate(0 98.7)"><g transform="translate(0 127.768)"><g transform="translate(2.916)"><path d="M2583.255,2066.682c.782-6.241-4.318-11.86-11.391-12.55s-13.439,3.811-14.221,10.052,4.318,11.86,11.391,12.55S2582.473,2072.924,2583.255,2066.682Z" transform="translate(-2557.563 -2054.063)" fill="#fdc4b1"/></g><g transform="translate(0 0.057)"><path d="M2558.268,2072.349s-5.77.974-5.545-4.989,4.251-13.555,17.21-13.19Z" transform="translate(-2552.717 -2054.158)" fill="#fdc4b1"/></g></g><g transform="translate(10.176)"><path d="M2634.119,1841.681s-20.879,2.515-28.02,28.681-3.74,51.122-3.74,51.122l-32.727,47.461,20.4,16.8,29.757-42.18-1.119-75.879Z" transform="translate(-2569.632 -1841.681)" fill="#61b896"/></g><g transform="translate(55.073)"><path d="M2663.852,1841.681s-12.463,23.1-9.94,50.57,2.18,58.868-7.7,74.719l.339-61.773s-6.227-21.4,1.856-37.514C2648.408,1867.683,2649.814,1848.523,2663.852,1841.681Z" transform="translate(-2644.262 -1841.681)" fill="#61b896"/></g></g><g transform="translate(74.209 97.377)"><path d="M2706.49,1841.557s-14.14-3.8-28.848-1.121c0,0-6.106,12.707,5.754,14.713S2706.49,1841.557,2706.49,1841.557Z" transform="translate(-2676.07 -1839.482)" fill="#eea593"/></g><path d="M2722.318,1784.614s-7.111,25.255-36.043,18.267" transform="translate(-2605.927 -1720.245)" fill="none" stroke="#61b896" stroke-miterlimit="10" stroke-width="1"/><ellipse cx="13.428" cy="11.682" rx="13.428" ry="11.682" transform="translate(104.455 49.463)" fill="#61b896"/><ellipse cx="5.946" cy="4.168" rx="5.946" ry="4.168" transform="translate(77.099 79.325)" fill="#61b896"/><path d="M2756.038,1770.986s3.226,3.7,1.241,7.954c0,0-2.523,5.453-10.5,4.965C2746.782,1783.9,2755.808,1780.962,2756.038,1770.986Z" transform="translate(-2630.033 -1714.816)" fill="#86e2ba"/></g></g></g></g></svg>