<svg xmlns="http://www.w3.org/2000/svg" width="240.076" height="240.076">
    <defs>
        <clipPath id="clip-path">
            <circle id="타원_130" data-name="타원 130" class="cls-1" cx="90.04" cy="90.04" r="90.04"/>
        </clipPath>
        <clipPath id="clip-path-2">
            <circle id="타원_125" data-name="타원 125" class="cls-2" cx="90.038" cy="90.038" r="90.038"/>
        </clipPath>
        <filter id="타원_202" x="0" y="0" width="240.076" height="240.076" filterUnits="userSpaceOnUse">
            <feOffset dy="10"/>
            <feGaussianBlur stdDeviation="10" result="blur"/>
            <feFlood flood-opacity=".161"/>
            <feComposite operator="in" in2="blur"/>
            <feComposite in="SourceGraphic"/>
        </filter>
        <style>
            .cls-1{fill:#fff7c7}.cls-2{fill:#f8f8f8}.cls-4{fill:#fdc4b1}.cls-7{fill:#2b2e30}.cls-8{fill:#eea593}.cls-9{fill:#f2917d}.cls-10{fill:#fff}.cls-11{fill:#61b896}.cls-15{fill:#ffb52c}.cls-16{fill:#fed353}
        </style>
    </defs>
    <g id="test" transform="translate(-269.152 -106.004)">
        <g id="illust_2" transform="translate(-218 -733)">
            <g transform="translate(487.15 839)" style="filter:url(#타원_202)">
                <circle id="타원_202-2" data-name="타원 202" class="cls-2" cx="90.038" cy="90.038" transform="translate(30 20)" r="90.038"/>
            </g>
            <g id="그룹_5771" data-name="그룹 5771" transform="translate(517.148 859)">
                <circle id="타원_126" data-name="타원 126" class="cls-1" cx="90.04" cy="90.04" r="90.04"/>
                <g id="그룹_5770" data-name="그룹 5770" style="clip-path:url(#clip-path)">
                    <g id="그룹_5769" data-name="그룹 5769" transform="translate(-3.037 29.766)">
                        <g id="그룹_5730" data-name="그룹 5730" transform="translate(36.218 435.91)">
                            <g id="그룹_5728" data-name="그룹 5728" transform="translate(0 8.91)">
                                <path id="패스_2067" data-name="패스 2067" d="m2629.894 2424.626-14.812 6.331a3.087 3.087 0 0 0-2.033 3.663c.385 1.151 1.642 2.211 4.937 2.262 7.323.113 39.732-4.261 39.732-4.261v2.944l15.038-1.472s1.051-14.894-3.528-17.074z" transform="translate(-2612.92 -2417.02)"/>
                            </g>
                            <g id="그룹_5729" data-name="그룹 5729" transform="translate(16.973)">
                                <path id="패스_2068" data-name="패스 2068" class="cls-4" d="m2665.01 2405.62-23.876 13.105s2.554 5.687 13.861 1.9 25.473-9.5 25.473-9.5l-2.065-8.909z" transform="translate(-2641.134 -2402.21)"/>
                            </g>
                        </g>
                        <g id="그룹_5731" data-name="그룹 5731" transform="translate(72.277 389.592)">
                            <path id="패스_2069" data-name="패스 2069" class="cls-4" d="m2693.107 2380.445 3.6-55.228-23.847 3.761 2.155 51.3z" transform="translate(-2672.859 -2325.217)"/>
                        </g>
                        <g id="그룹_5736" data-name="그룹 5736" transform="translate(149.721 371.626)">
                            <g id="그룹_5734" data-name="그룹 5734" transform="translate(14.091 41.841)">
                                <g id="그룹_5732" data-name="그룹 5732" transform="translate(0 6.462)">
                                    <path id="패스_2070" data-name="패스 2070" d="m2833.584 2401.7-8.063 12.724a3 3 0 0 0 .707 4.1c1.063.778 2.784 1.043 5.525-.558 6.091-3.559 29.888-23.418 29.888-23.418l1.912 2.48 11.4-8.745s-8.8-13.071-13.982-12.622z" transform="translate(-2825.013 -2375.646)"/>
                                </g>
                                <g id="그룹_5733" data-name="그룹 5733" transform="translate(8.571)">
                                    <path id="패스_2071" data-name="패스 2071" class="cls-4" d="m2850.374 2374.46-11.114 22.955s5.79 3.516 12.622-5.321 14.767-20.717 14.767-20.717l-7.481-6.474z" transform="translate(-2839.26 -2364.904)"/>
                                </g>
                            </g>
                            <g id="그룹_5735" data-name="그룹 5735">
                                <path id="패스_2072" data-name="패스 2072" class="cls-4" d="m2851.641 2343.669-32.893-48.315-17.158 15.069 35.073 42.135z" transform="translate(-2801.59 -2295.354)"/>
                            </g>
                        </g>
                        <g id="그룹_5737" data-name="그룹 5737" transform="translate(57.065 184.565)">
                            <path id="패스_2073" data-name="패스 2073" d="m2652.141 1989.077 2.859-.222q-.025-2.231 0-4.444h36.486l13.308 21.736 4.044-1.54 15.557 13.985s2.957 7.895-5.394 27.479l12.175 54.254c14.906 22.733 41.8 64.025 61.684 96.076l-39.287 24.646-55.475-89-2.418 87.319-47.833-1.527s6.89-60.969 1.55-124.182 2.744-104.58 2.744-104.58z" transform="translate(-2647.572 -1984.411)" style="fill:#f7dea2"/>
                        </g>
                        <g id="그룹_5738" data-name="그룹 5738" transform="translate(78.531 242.841)">
                            <path id="패스_2074" data-name="패스 2074" d="M2712.314 2170.644 2696.7 2142.6a77.282 77.282 0 0 1-9.375-29.851l-1.557-31.124a.385.385 0 0 0-.768.039l-1.742 35.973c0 8.6 3.933 24.034 8.109 31.556l20.362 42.724z" transform="translate(-2683.255 -2081.281)" style="fill:#e0c180"/>
                        </g>
                        <g id="그룹_5768" data-name="그룹 5768">
                            <g id="그룹_5739" data-name="그룹 5739" transform="translate(41.825)">
                                <path id="패스_2075" data-name="패스 2075" class="cls-7" d="M2639.2 1813.636c-6.664-.548-6.785-16.35-6.1-27.047a27.086 27.086 0 0 0-4.211-16.093c-13.1-20.938-2.829-53.153-2.829-53.153 12.75-43.644 36.043-34.326 36.043-34.326s23.576-16.013 44.747 7.11c15.691 17.136 16.871 52.553 13.038 62.683s-10.174 21.389-2.574 33.86c2.685 4.406-2.013 19.095-14.483 16.968" transform="translate(-2622.24 -1677.617)"/>
                            </g>
                            <g id="그룹_5740" data-name="그룹 5740" transform="translate(103.199 44.8)">
                                <path id="패스_2076" data-name="패스 2076" class="cls-7" d="M2726.865 1759.6s-6.771 12.669 1.511 18.322 10.311-14.6 10.311-14.6l-1.956-11.234-3.412.877" transform="translate(-2724.259 -1752.087)"/>
                            </g>
                            <g id="Path_1244" data-name="Path 1244" transform="translate(70.682 73.597)">
                                <path id="패스_2077" data-name="패스 2077" class="cls-8" d="M2670.207 1807.717s9.678 27.756 6.236 34.8c0 0 19.037-2.489 24.619-9.318l-.65-33.248z" transform="translate(-2670.207 -1799.954)"/>
                            </g>
                            <g id="그룹_5741" data-name="그룹 5741" transform="translate(46.2 16.477)">
                                <ellipse id="타원_127" data-name="타원 127" class="cls-4" cx="36.11" cy="31.565" rx="36.11" ry="31.565" transform="rotate(-78.382 43.382 35.37)"/>
                            </g>
                            <g id="그룹_5742" data-name="그룹 5742" transform="translate(53.057 14.596)">
                                <path id="패스_2078" data-name="패스 2078" class="cls-7" d="M2643.393 1730.023s20.408 2.747 30.953-13.444c0 0-4.111 7.62 4.59 15.186 0 0-1.8-7.293 1.056-11.653 0 0-.135 14.106 23.165 28.616l4.7-1.376-.453-25.953-20.306-16.737-18.5-2.783-17.251 6.406-7.369 11.941-1.11 3.079-1.952 2.981 2.648 3.513" transform="translate(-2640.911 -1701.879)"/>
                            </g>
                            <g id="그룹_5743" data-name="그룹 5743" transform="translate(63.642 52.2)">
                                <rect id="사각형_2583" data-name="사각형 2583" class="cls-7" width="4.06" height="5.819" rx="2.03" transform="rotate(6.358 .322 5.798)"/>
                            </g>
                            <g id="그룹_5744" data-name="그룹 5744" transform="translate(85.254 54.608)">
                                <rect id="사각형_2584" data-name="사각형 2584" class="cls-7" width="4.06" height="5.819" rx="2.03" transform="rotate(6.28 .313 5.785)"/>
                            </g>
                            <g id="그룹_5747" data-name="그룹 5747" transform="translate(60.557 47.449)">
                                <g id="그룹_5745" data-name="그룹 5745">
                                    <path id="패스_2079" data-name="패스 2079" class="cls-7" d="M2664.093 1759.091a24.526 24.526 0 0 0-5.491-.851 9.748 9.748 0 0 0-2.559.327 19.645 19.645 0 0 0-2.665.988 5.079 5.079 0 0 1 2.122-2.268 5.911 5.911 0 0 1 3.111-.793 7.482 7.482 0 0 1 3.062.724 6.482 6.482 0 0 1 2.42 1.873z" transform="translate(-2653.378 -1756.49)"/>
                                </g>
                                <g id="그룹_5746" data-name="그룹 5746" transform="translate(22.87 2.478)">
                                    <path id="패스_2080" data-name="패스 2080" class="cls-7" d="M2691.393 1762.086a6.489 6.489 0 0 1 2.774-1.295 7.49 7.49 0 0 1 3.146-.032 5.9 5.9 0 0 1 2.86 1.459 5.069 5.069 0 0 1 1.571 2.679 19.661 19.661 0 0 0-2.382-1.55 9.754 9.754 0 0 0-2.424-.882 24.514 24.514 0 0 0-5.545-.379z" transform="translate(-2691.393 -1760.608)"/>
                                </g>
                            </g>
                            <g id="그룹_5748" data-name="그룹 5748" transform="translate(73.374 60.154)">
                                <path id="패스_2081" data-name="패스 2081" class="cls-9" d="M2677.123 1777.608s-3.084 1.892-2.319 3.97 2.839.95 2.839.95-2.076-.774-1.638-2.175a20.578 20.578 0 0 1 1.118-2.745z" transform="translate(-2674.682 -1777.608)"/>
                            </g>
                            <g id="그룹_5749" data-name="그룹 5749" transform="translate(65.001 68.96)">
                                <path id="패스_2082" data-name="패스 2082" class="cls-10" d="M2661.232 1794.848c3.185 3.481 8.951 10.965 19.276 1.8 1.064-.944.8-2.6-.621-2.737l-17.559-1.655a1.486 1.486 0 0 0-1.096 2.592z" transform="translate(-2660.764 -1792.247)"/>
                            </g>
                            <g id="그룹_5750" data-name="그룹 5750" transform="translate(49.944 98.947)">
                                <path id="패스_2083" data-name="패스 2083" class="cls-10" d="m2697.966 1843.829-10.637-1.736-27.673.158-7.841 9.964-16.079 84.025 50.019 4.413 18.529-74.922" transform="translate(-2635.736 -1842.093)"/>
                            </g>
                            <g id="그룹_5758" data-name="그룹 5758" transform="translate(81.969 99.669)">
                                <g id="그룹_5756" data-name="그룹 5756" transform="translate(36.362 3.365)">
                                    <g id="그룹_5753" data-name="그룹 5753" transform="translate(31.176 141.372)">
                                        <g id="그룹_5751" data-name="그룹 5751" transform="translate(2.915)">
                                            <path id="패스_2084" data-name="패스 2084" class="cls-4" d="M2831.773 2096.5c.782-6.241-4.318-11.86-11.39-12.55s-13.44 3.811-14.222 10.052 4.319 11.86 11.391 12.551 13.44-3.808 14.221-10.053z" transform="translate(-2806.082 -2083.883)"/>
                                        </g>
                                        <g id="그룹_5752" data-name="그룹 5752" transform="translate(0 .057)">
                                            <path id="패스_2085" data-name="패스 2085" class="cls-4" d="M2806.787 2102.169s-5.77.974-5.545-4.988 4.251-13.554 17.21-13.19z" transform="translate(-2801.236 -2083.978)"/>
                                        </g>
                                    </g>
                                    <g id="그룹_5755" data-name="그룹 5755">
                                        <g id="그룹_5754" data-name="그룹 5754">
                                            <path id="패스_2086" data-name="패스 2086" class="cls-11" d="M2751.534 1848.887s60.97 17.435 57.058 143.878h-26.135s-3.609-74.161-33.044-102.632z" transform="translate(-2749.413 -1848.887)"/>
                                        </g>
                                    </g>
                                </g>
                                <g id="그룹_5757" data-name="그룹 5757">
                                    <path id="패스_2087" data-name="패스 2087" class="cls-11" d="M2715 1843.293s-30.54 24.242-25.455 70.814 30.586 62.531 58.978 59.157l-15.9-44.306 14.2-41.2-16.653-38.124a6.918 6.918 0 0 0-4.786-3.822z" transform="translate(-2688.97 -1843.293)"/>
                                </g>
                            </g>
                            <g id="그룹_5766" data-name="그룹 5766" transform="translate(0 98.7)">
                                <g id="그룹_5763" data-name="그룹 5763">
                                    <g id="그룹_5761" data-name="그룹 5761" transform="translate(0 127.768)">
                                        <g id="그룹_5759" data-name="그룹 5759" transform="translate(2.916)">
                                            <path id="패스_2088" data-name="패스 2088" class="cls-4" d="M2583.255 2066.682c.782-6.241-4.318-11.86-11.391-12.55s-13.439 3.811-14.221 10.052 4.318 11.86 11.391 12.55 13.439-3.81 14.221-10.052z" transform="translate(-2557.563 -2054.063)"/>
                                        </g>
                                        <g id="그룹_5760" data-name="그룹 5760" transform="translate(0 .057)">
                                            <path id="패스_2089" data-name="패스 2089" class="cls-4" d="M2558.268 2072.349s-5.77.974-5.545-4.989 4.251-13.555 17.21-13.19z" transform="translate(-2552.717 -2054.158)"/>
                                        </g>
                                    </g>
                                    <g id="그룹_5762" data-name="그룹 5762" transform="translate(10.176)">
                                        <path id="패스_2090" data-name="패스 2090" class="cls-11" d="M2634.119 1841.681s-20.879 2.515-28.02 28.681-3.74 51.122-3.74 51.122l-32.727 47.461 20.4 16.8 29.757-42.18-1.119-75.879z" transform="translate(-2569.632 -1841.681)"/>
                                    </g>
                                </g>
                                <g id="그룹_5765" data-name="그룹 5765" transform="translate(55.073)">
                                    <g id="그룹_5764" data-name="그룹 5764">
                                        <path id="패스_2091" data-name="패스 2091" class="cls-11" d="M2663.852 1841.681s-12.463 23.1-9.94 50.57 2.18 58.868-7.7 74.719l.339-61.773s-6.227-21.4 1.856-37.514c.001 0 1.407-19.16 15.445-26.002z" transform="translate(-2644.262 -1841.681)"/>
                                    </g>
                                </g>
                            </g>
                            <g id="그룹_5767" data-name="그룹 5767" transform="translate(74.209 97.377)">
                                <path id="패스_2092" data-name="패스 2092" class="cls-8" d="M2706.49 1841.557s-14.14-3.8-28.848-1.121c0 0-6.106 12.707 5.754 14.713s23.094-13.592 23.094-13.592z" transform="translate(-2676.07 -1839.482)"/>
                            </g>
                            <path id="패스_2093" data-name="패스 2093" d="M2722.318 1784.614s-7.111 25.255-36.043 18.267" transform="translate(-2605.927 -1720.245)" style="fill:none;stroke:#61b896;stroke-miterlimit:10"/>
                            <ellipse id="타원_128" data-name="타원 128" class="cls-11" cx="13.428" cy="11.682" rx="13.428" ry="11.682" transform="translate(104.455 49.463)"/>
                            <ellipse id="타원_129" data-name="타원 129" class="cls-11" cx="5.946" cy="4.168" rx="5.946" ry="4.168" transform="translate(77.099 79.325)"/>
                            <path id="패스_2094" data-name="패스 2094" d="M2756.038 1770.986s3.226 3.7 1.241 7.954c0 0-2.523 5.453-10.5 4.965.003-.005 9.029-2.943 9.259-12.919z" transform="translate(-2630.033 -1714.816)" style="fill:#86e2ba"/>
                        </g>
                    </g>
                </g>
            </g>
        </g>
        <g id="그룹_5726" data-name="그룹 5726" transform="translate(299.148 126)" style="clip-path:url(#clip-path-2)">
            <g id="그룹_5725" data-name="그룹 5725" transform="translate(-33.269 -27.648)">
                <circle id="타원_122" data-name="타원 122" class="cls-1" cx="131.527" cy="131.527" r="131.527"/>
                <path id="패스_2045" data-name="패스 2045" class="cls-7" d="M1601.015 2304.356c7.234-.649 3.227-22.465 3.227-22.465 15.082-14.528 5.791-43.263 5.791-43.263-9.7-26.909-29.073-24.276-29.073-24.276s-14.335-7.13-25.848 4.736c-11.546 11.9-10.349 36.122-7.676 43.179s-1.258 20.24-2.128 23.762 1.313 13.336 10.248 11.766" transform="translate(-1468.907 -2139.226)"/>
                <path id="패스_2046" data-name="패스 2046" class="cls-15" d="M1610.09 2301.9c-6.751-6.343-55.167-15.274-58.644.731s6.955 70.568 6.955 70.568h60.283s1.683-61.645-8.594-71.299z" transform="translate(-1469.486 -2147.636)"/>
                <path id="패스_2047" data-name="패스 2047" class="cls-15" d="M1614.763 2301.374s7.606 1.918 11.853 11.778 8.81 36.177 8.81 36.177l-15.637 4.687z" transform="translate(-1476.102 -2148.438)"/>
                <path id="패스_2048" data-name="패스 2048" class="cls-10" d="M1601.2 2297.287c1.432 4.8 2.208 11.031-3.874 11.935-7.442 1.108-22.213-10.434-28.427-15.22 9.743-1.081 22.914-.148 32.301 3.285z" transform="translate(-1471.363 -2147.632)"/>
                <path id="패스_2049" data-name="패스 2049" class="cls-4" d="M1644.1 2348.573a4.052 4.052 0 0 0-2.261-.644h-.012a8.4 8.4 0 0 0-3.38.96l-1.586.451a6.544 6.544 0 0 0 1.752-3.424c.468-1.806-2.341-2.06-2.341-2.06l-.011.01a7.326 7.326 0 0 0-2.163.334 37.482 37.482 0 0 1-5.473.918c-.337.034-.671.069-1 .1-.127.013-.254.029-.38.044-.214.024-.428.052-.639.079-.152.02-.3.04-.456.063-.2.029-.392.061-.587.093q-.335.056-.667.122c-.217.043-.434.087-.648.137-.168.039-.333.084-.5.129s-.309.083-.463.129c-.17.051-.34.1-.508.162s-.308.111-.461.169a12.034 12.034 0 0 0-1.542.705c-.9.3-1.776.708-2.71 1.081-2.5 1-2.421 2.675-3.61 4.022-.856.969-2.093 1.18-1.587 2.339a22.06 22.06 0 0 0 3.143 4.717c1.983 2.363 5.2 1.6 8.131.708l.826-.107c2.476-.311 4.967-.248 7.44-.538a12.549 12.549 0 0 0 5.874-2.271c1.647-1.122 3.578-1.876 5.054-3.231s2.999-3.783.765-5.197z" transform="translate(-1475.894 -2152.828)"/>
                <path id="패스_2050" data-name="패스 2050" class="cls-4" d="M1567.284 2295.825c-3.479-2.2-17.742-.806-17.742 12.988 0 10.171 8.317 46.577 14.953 49.771s48.436-2.853 48.436-2.853l-3.661-10.821s-30.312-.5-32.919-3.372.949-39.385-9.067-45.713z" transform="translate(-1469.363 -2147.777)"/>
                <path id="패스_2051" data-name="패스 2051" class="cls-8" d="m1553.38 2333.014 23.6-3.979c.248 6.94-2.028 13.405 1.054 16.723a154.671 154.671 0 0 1-19.769 4.825 118.042 118.042 0 0 1-4.885-17.569z" transform="translate(-1469.76 -2151.296)"/>
                <path id="패스_2052" data-name="패스 2052" class="cls-15" d="M1567.563 2295.821c7.926 4.718 9.632 29.183 9.946 41.881l-31.009 2.61c-1.008-11.351.872-26.553 1.516-31.2 2.253-16.265 15.884-15.469 19.547-13.291z" transform="translate(-1469.018 -2147.743)"/>
                <g id="그룹_5720" data-name="그룹 5720" transform="translate(101.131 125.79)">
                    <path id="패스_2053" data-name="패스 2053" class="cls-8" d="M1574.536 2271.1c1.627 2.066.31 21.611-1.628 20.361 0 0 17.95 13.085 21.922 12.17s2.869-9.95 2.869-9.95-3.248-5.5-2.822-9.451z" transform="translate(-1572.908 -2271.099)"/>
                    <path id="패스_2054" data-name="패스 2054" class="cls-8" d="M1595.027 2284.94v.165c0 .175.011.35.025.524.009.115.021.23.033.346l.016.123a20.155 20.155 0 0 0 1.841 5.771c-7.8.95-16.276-3.851-21.824-7.875.224-2.4.346-5.01.332-7.267a15.891 15.891 0 0 0-.582-5.371 1.321 1.321 0 0 0-.149-.257l20.341 13.13a7.108 7.108 0 0 0-.033.711z" transform="translate(-1573.096 -2271.099)"/>
                </g>
                <g id="그룹_5721" data-name="그룹 5721" transform="translate(146.984 59.898)">
                    <path id="패스_2055" data-name="패스 2055" class="cls-16" d="M1649.556 2203.547c-2.252-6.219-13.558-7.628-17.767-3.852a5.571 5.571 0 0 0-2.476 3c-.7 2.18.706 6.068 3.491 5.762a4.976 4.976 0 0 0 2.67-1.766 21.282 21.282 0 0 1 1.928-2.032c.515-.392.758-.76 1.576-.813l1.91.779a2.037 2.037 0 0 1 .734 3.159c-.989 3.75-4.825 2.306-7.817 2.634a7.185 7.185 0 0 0-4.678 2.266c-2.246 2.455-3.31 6.83-.758 9.448 2.443 2.507 4.7.859 6.362-1.511s2.731-3.6 5.834-4.145c1.9-.335 3.834-.407 5.55-1.4 3.744-2.169 4.84-7.666 3.441-11.529z" transform="translate(-1624.339 -2197.614)"/>
                    <path id="패스_2056" data-name="패스 2056" class="cls-16" d="M1629.623 2228.854a2.819 2.819 0 0 0-3.47-.69 2.6 2.6 0 0 0-.81.8 2.26 2.26 0 0 0-.946.923 3.016 3.016 0 0 0 1.437 4.158 3.494 3.494 0 0 0 4-1.178 3.213 3.213 0 0 0-.211-4.013z" transform="translate(-1624.045 -2200.736)"/>
                </g>
                <g id="그룹_5722" data-name="그룹 5722" transform="translate(132.63 48.29)">
                    <path id="패스_2057" data-name="패스 2057" class="cls-16" d="M1617.09 2200.2c.312-2.082 1.887-2.436 3.306-3.663a5.308 5.308 0 0 0 1.793-3.491c.4-3.2-1.574-5.5-4.257-6.944-2.127-1.14-5.118-2.117-7.349-.822-4.277 1.138-2.806 10.213 1.755 9.725a1.777 1.777 0 0 0 1.6-1.114c.139-.422-.123-.783-.065-1.167.811-5.372 5.2-.944 3.5 1.062-.916 1.078-2.878 1.092-3.927 2.127a5.473 5.473 0 0 0-1.384 3.494c-.14 1.8.729 5.354 3.226 5.141 2.006-.167 1.601-3.001 1.802-4.348z" transform="translate(-1608.038 -2184.668)"/>
                    <path id="패스_2058" data-name="패스 2058" class="cls-16" d="M1616.573 2209.09a1.776 1.776 0 0 0-.357-.782.463.463 0 0 0-.192-.4 2.248 2.248 0 0 0-1.192-.394c-.052-.009-.1-.021-.155-.027a.816.816 0 0 0-.479.114 1.921 1.921 0 0 0-.223.065 1.323 1.323 0 0 0-.615 1.966 2.42 2.42 0 0 0 2.173 1.066 1.35 1.35 0 0 0 1.04-1.608z" transform="translate(-1608.564 -2187.026)"/>
                </g>
                <path id="패스_2059" data-name="패스 2059" class="cls-7" d="M1567.522 2248.362s5.3 9.922-1.183 14.347-8.074-11.433-8.074-11.433l1.532-8.8 2.671.686" transform="translate(-1470.264 -2142.352)"/>
                <ellipse id="타원_123" data-name="타원 123" class="cls-4" cx="23.643" cy="26.158" rx="23.643" ry="26.158" transform="rotate(-19.78 323.335 -185.399)"/>
                <path id="패스_2060" data-name="패스 2060" class="cls-7" d="M1605.528 2244.516s-14.783 1.991-22.422-9.739c0 0 2.977 5.52-3.326 11 0 0 1.3-5.283-.765-8.441 0 0 .1 10.218-16.78 20.729l-3.4-1 .327-18.8 14.71-12.124 13.4-2.016 12.5 4.639 5.338 8.65.8 2.231 1.414 2.159-1.919 2.545" transform="translate(-1470.323 -2140.456)"/>
                <ellipse id="타원_124" data-name="타원 124" class="cls-4" cx="4.566" cy="6.522" rx="4.566" ry="6.522" transform="rotate(-15.55 456.817 -257.452)"/>
                <g id="그룹_5723" data-name="그룹 5723" transform="translate(110.29 111.003)">
                    <rect id="사각형_2581" data-name="사각형 2581" class="cls-7" width="2.941" height="4.215" rx="1.47" transform="rotate(173.642 9.406 2.623)"/>
                    <rect id="사각형_2582" data-name="사각형 2582" class="cls-7" width="2.941" height="4.215" rx="1.47" transform="rotate(173.642 1.53 3.061)"/>
                </g>
                <path id="패스_2061" data-name="패스 2061" class="cls-7" d="M1605.955 2251.183a17.8 17.8 0 0 1-4-.468 7.005 7.005 0 0 1-1.723-.724 14.009 14.009 0 0 1-1.67-1.205 3.677 3.677 0 0 0 1.043 1.994 4.273 4.273 0 0 0 2.018 1.156 5.43 5.43 0 0 0 2.276.087 4.706 4.706 0 0 0 2.056-.84z" transform="translate(-1474.429 -2143.003)"/>
                <path id="패스_2062" data-name="패스 2062" class="cls-7" d="M1579.222 2254.12a4.706 4.706 0 0 0 2.195.318 5.416 5.416 0 0 0 2.188-.635 4.275 4.275 0 0 0 1.679-1.61 3.668 3.668 0 0 0 .529-2.186 14.176 14.176 0 0 1-1.328 1.573 7.029 7.029 0 0 1-1.5 1.118 17.788 17.788 0 0 1-3.763 1.422z" transform="translate(-1472.43 -2143.13)"/>
                <path id="패스_2063" data-name="패스 2063" class="cls-9" d="M1595.337 2260.643s2.234 1.37 1.68 2.876-2.056.688-2.056.688 1.5-.561 1.186-1.576a14.985 14.985 0 0 0-.81-1.988z" transform="translate(-1474.056 -2144.228)"/>
                <g id="그룹_5724" data-name="그룹 5724" transform="translate(139.395 112.326)">
                    <path id="패스_2064" data-name="패스 2064" class="cls-4" d="M1638.8 2287.7s5.974 46.8-1.353 53.848-11.066 2.818-13.9-2.06 5.193-49.358 5.193-49.358z" transform="translate(-1616.342 -2259.35)"/>
                    <path id="패스_2065" data-name="패스 2065" class="cls-4" d="M1615.717 2258.562a5.666 5.666 0 0 0 2.514 2.748c2.263 1.409 4.741 2.085 6.8 3.855a4.708 4.708 0 0 0-1.16.694 5.183 5.183 0 0 0-1.775 5.96.332.332 0 0 0 .177.189 6.114 6.114 0 0 0-.092 4.059.4.4 0 0 0 .281.273 5.01 5.01 0 0 0 3.665 7.29.376.376 0 0 0 .2-.019 7.133 7.133 0 0 0 .077 1.414 5.96 5.96 0 0 0 1.034 2.252 5.123 5.123 0 0 0 .5.813c.046.079.091.158.134.238.057.111 10.067-1.972 10.107-2.606.007-.061-.944-13.514-3.221-19.527a24.391 24.391 0 0 0-4.5-5.2 22.324 22.324 0 0 0-10.713-4.806c-1.605-.255-4.868-.24-4.028 2.373z" transform="translate(-1615.581 -2256.083)"/>
                </g>
                <path id="패스_2066" data-name="패스 2066" class="cls-10" d="M1589.156 2275.2c1.148 2.293 3.581.8 5.453.33 2.082-.519 5.266.109 6.565-2.134.987-1.7-.129-4.079-1.572-5.143a4.771 4.771 0 0 0-1.749-.788c-4.225-1.43-10.401 4.327-8.697 7.735z" transform="translate(-1473.426 -2144.91)"/>
            </g>
        </g>
    </g>
</svg>
