<svg xmlns="http://www.w3.org/2000/svg" xmlns:xlink="http://www.w3.org/1999/xlink" width="240.076" height="240.076" viewBox="0 0 240.076 240.076"><defs><filter id="a" x="0" y="0" width="240.076" height="240.076" filterUnits="userSpaceOnUse"><feOffset dy="10" input="SourceAlpha"/><feGaussianBlur stdDeviation="10" result="b"/><feFlood flood-opacity="0.161"/><feComposite operator="in" in2="b"/><feComposite in="SourceGraphic"/></filter><clipPath id="c"><ellipse cx="90.038" cy="90.038" rx="90.038" ry="90.038" fill="none"/></clipPath></defs><g transform="translate(-487.152 -1118.924)"><g transform="matrix(1, 0, 0, 1, 487.15, 1118.92)" filter="url(#a)"><ellipse cx="90.038" cy="90.038" rx="90.038" ry="90.038" transform="translate(30 20)" fill="#f8f8f8"/></g><g transform="translate(517.151 1140)"><g transform="translate(0 0)" clip-path="url(#c)"><g transform="translate(-39.746 -12.568)"><ellipse cx="131.528" cy="131.527" rx="131.528" ry="131.527" fill="#fff7c7"/><g transform="translate(131.528 101.486)"><g transform="translate(13.14)"><path d="M1985.092,2263.743h-3.584v3.585h4.962l22.749-22.752-2.479-2.479Z" transform="translate(-1981.507 -2233.919)" fill="#00a9b5"/><path d="M2005.469,2232.976h-5.094v6.609h5.094v-1.65l3.22,3.22,2.479-2.479Z" transform="translate(-1983.457 -2232.976)" fill="#00a9b5"/></g><path d="M2023.714,2232.976h-5.079v7.1h5.079v-2.14l20.273,20.271-3.221,3.22v-.905H2035.8v5.865h4.962l8.181-8.18Z" transform="translate(-1972.204 -2232.976)" fill="#da0"/><path d="M2042.081,2281.805h4.961v-11.569h-4.961Z" transform="translate(-1974.627 -2236.826)" fill="#cf302c"/><path d="M2031.524,2270.236h-54.312v11.569h58.166v-11.569Z" transform="translate(-1967.924 -2236.826)" fill="#ea4e4b"/><path d="M2031.723,2321.206v11.567h4.962v-11.567h-4.962Z" transform="translate(-1973.557 -2242.093)" fill="#da0"/><path d="M2022.649,2321.206h-55.8v11.567h58.167v-11.567Z" transform="translate(-1966.853 -2242.093)" fill="#fdcd04"/><rect width="4.959" height="11.568" transform="translate(79.918 90.68)" fill="#cf302c"/><path d="M2032.489,2334.106h-41.378v11.569h58.167v-11.569Z" transform="translate(-1969.36 -2243.426)" fill="#ea4e4b"/><rect width="4.959" height="34.134" transform="translate(25.907 44.979)" fill="#29a403"/><path d="M1987.8,2283.139h-4.96v34.134h11.571v-34.134Z" transform="translate(-1968.506 -2238.159)" fill="#3dc71f"/><path d="M2036.449,2317.273h4.958v-34.134h-4.958Z" transform="translate(-1974.045 -2238.159)" fill="#00a9b5"/><path d="M2028.506,2283.139h-4.962v34.134h11.571v-34.134Z" transform="translate(-1972.711 -2238.159)" fill="#34d3e8"/><path d="M2000.1,2235.454l-2.48-2.478-25.232,25.23,8.18,8.18,2.481-2.479,22.751-22.752Z" transform="translate(-1967.425 -2232.976)" fill="#34d3e8"/><path d="M2020.307,2235.454l-2.482-2.478-5.7,5.7-2.479,2.479,2.479,2.479,22.75,22.752,2.481-2.479,5.7-5.7Z" transform="translate(-1971.275 -2232.976)" fill="#fdcd04"/></g><g transform="translate(37.368 48.361)"><g transform="translate(50.715 102.007)"><path d="M1918.593,2337s.69-25.822.237-38.543,9.615-12.955,11.9-7.848-.1,14.759-.932,23.582-1.787,22.81-1.787,22.81c.927,4.52-5.525,5.635-7.957,4.393s-1.462-4.393-1.462-4.393Z" transform="translate(-1918.402 -2287.491)" fill="#fdc4b1" fill-rule="evenodd"/></g><g transform="translate(51.128 102.007)"><path d="M1918.986,2315.39c.072-7.723.076-11.734-.108-16.935a20.3,20.3,0,0,1,.075-2.729,81.776,81.776,0,0,1,5.863-8.151,5.487,5.487,0,0,1,5.963,3.032c2.287,5.106-.1,14.759-.932,23.583-.055.577-.11,1.176-.166,1.792-4.127-.049-7.7-.284-10.695-.591Z" transform="translate(-1918.862 -2287.492)" fill="#eea593" fill-rule="evenodd"/></g><g transform="translate(50.398 143.661)"><path d="M1918.562,2341.547l-.456-7.6c2.659.05,7.05.057,10.667.049-.4,4.423-.68,7.511-.68,7.511.927,4.52-5.912,6.436-8.344,5.194s-1.691-4.8-1.187-5.152Z" transform="translate(-1918.048 -2333.945)" fill="#fff" fill-rule="evenodd"/></g><g transform="translate(45.742 151.222)"><path d="M1918.025,2342.418c-.915.188-5.569,5.6-5.142,9.271h18.285s.341-4.2-3.612-9.313c-7.267,2.1-9.886.978-9.531.041Z" transform="translate(-1912.855 -2342.377)" fill="#fccc05" fill-rule="evenodd"/></g><g transform="translate(45.124 160.232)"><path d="M1913.14,2352.426h17.448a.975.975,0,0,1,.972.972h0a.976.976,0,0,1-.972.973H1913.14a.976.976,0,0,1-.973-.973h0a.975.975,0,0,1,.973-.972Z" transform="translate(-1912.167 -2352.426)" fill="#cd9e00" fill-rule="evenodd"/></g><g transform="translate(48.616 153.195)"><path d="M1916.793,2345.724a.6.6,0,0,1-.7-.242c-.106-.215.031-.455.308-.536a10.993,10.993,0,0,1,3.376-.355,5.834,5.834,0,0,1,2.718.709.358.358,0,0,1,.086.586.65.65,0,0,1-.758.061,4.591,4.591,0,0,0-2.106-.527,9.5,9.5,0,0,0-2.928.3Z" transform="translate(-1916.061 -2344.578)" fill="#cd9e00" fill-rule="evenodd"/></g><g transform="translate(48.271 154.712)"><path d="M1916.408,2347.417a.6.6,0,0,1-.7-.242c-.107-.214.031-.454.308-.536a11,11,0,0,1,3.376-.356,5.842,5.842,0,0,1,2.718.71.358.358,0,0,1,.087.587.652.652,0,0,1-.759.06,4.6,4.6,0,0,0-2.105-.526,9.5,9.5,0,0,0-2.928.3Z" transform="translate(-1915.676 -2346.27)" fill="#cd9e00" fill-rule="evenodd"/></g><g transform="translate(69.479 102.007)"><path d="M1952.653,2336.033s-.912-24.856-.458-37.578-9.615-12.955-11.9-7.848.1,14.759.932,23.582,1.669,22.558,1.669,22.558l3.729,6.735,6.029-7.449Z" transform="translate(-1939.328 -2287.491)" fill="#fdc4b1" fill-rule="evenodd"/></g><g transform="translate(69.479 102.007)"><path d="M1952.166,2314.934c-.114-7.5-.155-11.3.029-16.478.455-12.721-9.615-12.955-11.9-7.848s.1,14.759.932,23.582c.05.528.1,1.076.151,1.637,3.344-.16,6.943-.445,10.79-.892Z" transform="translate(-1939.328 -2287.491)" fill="#eea593" fill-rule="evenodd"/></g><g transform="translate(72.295 143.672)"><path d="M1952.978,2340.793a67.465,67.465,0,0,0,.209-6.836c-3.372.024-7.45.03-10.718.013.4,4.352.691,7.544.691,7.544l3.788,6.771,6.03-7.491Z" transform="translate(-1942.469 -2333.957)" fill="#fff" fill-rule="evenodd"/></g><g transform="translate(70.923 150.508)"><path d="M1943.062,2342.295a6.022,6.022,0,0,0-2.016,4.1,13.224,13.224,0,0,0,.375,5.257l19.75.752,2.258-1.017c.621-5.152-7.965-8.263-10.609-9.807-.7,1.2-7.68,4.831-9.758.714Z" transform="translate(-1940.939 -2341.581)" fill="#fccc05" fill-rule="evenodd"/></g><g transform="translate(87.848 154.329)"><path d="M1962.421,2346.389q-.353-.28-.73-.546a7.42,7.42,0,0,0-1.756,1.193.357.357,0,0,0,.025.556.51.51,0,0,0,.644-.038,6.6,6.6,0,0,1,1.817-1.165Z" transform="translate(-1959.814 -2345.843)" fill="#cd9e00" fill-rule="evenodd"/></g><g transform="translate(86.656 153.199)"><path d="M1960.578,2345.063c-.263-.165-.527-.326-.793-.48a6.771,6.771,0,0,0-1.178.877.356.356,0,0,0,.024.556.506.506,0,0,0,.643-.037,6.2,6.2,0,0,1,1.3-.916Z" transform="translate(-1958.484 -2344.582)" fill="#cd9e00" fill-rule="evenodd"/></g><g transform="translate(70.432 160.232)"><path d="M1941.364,2352.426h21.782a.975.975,0,0,1,.973.972h0a.976.976,0,0,1-.973.973h-21.782a.977.977,0,0,1-.973-.973h0a.976.976,0,0,1,.973-.972Z" transform="translate(-1940.391 -2352.426)" fill="#cd9e00" fill-rule="evenodd"/></g><g transform="translate(45.912 81.001)"><path d="M1915.17,2270.33c-.623,10.878-1.971,36.527-2.125,40.211l18.723.007.52-21.355c.993-.006,1.44-.076,2.434-.082l.591,21.449,18.848-.608c-.494-8.691-2.341-31.727-2.67-41.757,0,0-29.353-9.539-34.8.371Z" transform="translate(-1913.045 -2264.064)" fill="#61b896" fill-rule="evenodd"/></g><g transform="translate(76.398 16.954)"><path d="M1954.193,2236.741a36.868,36.868,0,0,0,12.584-10.193c5.756-7.218,11.037-19.917,11.037-19.917s6.613-3.928,8.552-6.219c1.348-1.593,1.094-2.724-.381-1.752a27.514,27.514,0,0,1-2.791,2.094c.71-.7,3.972-4.073,3.035-4.966s-1.558.987-4.809,3.322c1.86-1.892,4-4.412,3.193-5.383s-3.518,3.13-4.6,3.849c.881-1.238,2.707-4.524,1.369-4.909s-2.846,3.038-3.947,3.872l-3.281,2.224c-.2-.346-.2-2.975-.516-3.376s-.881-.442-1.608.816c-1.173,2.078-.494,6.207-.494,6.207-4.4,12.763-9.913,18.117-20.714,23.6-1.824.927-4.859,4.513-3.383,7.923s4.463,4.019,6.755,2.8Z" transform="translate(-1947.045 -2192.636)" fill="#fdc4b1" fill-rule="evenodd"/></g><g transform="translate(0 30.208)"><path d="M1904.942,2241.283a36.9,36.9,0,0,1-15.092-5.875c-7.681-5.122-16.578-15.609-16.578-15.609s-7.5-1.727-10.041-3.317c-1.769-1.107-1.871-2.263-.17-1.786a27.728,27.728,0,0,0,3.3,1.145c-.89-.45-5.023-2.671-4.4-3.806s1.785.466,5.592,1.7c-2.348-1.235-5.155-2.984-4.681-4.154s4.3,1.91,5.557,2.264c-1.218-.911-3.957-3.486-2.8-4.258s3.636,2.025,4.94,2.483l3.8,1.119c.081-.388-.718-2.895-.538-3.373s.7-.69,1.78.288c1.751,1.623,2.362,5.763,2.362,5.763,8.081,10.815,14.96,14.236,26.921,16.172,2.02.327,6,2.819,5.635,6.517s-3.027,5.186-5.581,4.728Z" transform="translate(-1861.843 -2207.418)" fill="#fdc4b1" fill-rule="evenodd"/></g><path d="M1949.957,2225.436c-9.28,6.5-32.406,6.9-45.056,4.115-1.558,4.861-2.911,8.7-4.469,13.564,4.236,1.994,6.147,3.846,10.593,4.263-1,8.591-2.258,31.217-2.258,31.217,8.411,4.372,41.014,1.023,46.189-3.758-2.4-6.29-7.149-18.69-8.4-31.433,3-.7,5.957-3.392,9-6.362-2.368-4.238-3.229-7.369-5.6-11.607Z" transform="translate(-1865.83 -2179.072)" fill="#fdd235" fill-rule="evenodd"/><path d="M1937.71,2230.892c-.136,8.4-15.842,8.594-17.061.906,3.753.011,5.869-.135,9.225-.341,2.141-.133,5.469-.2,7.836-.565Z" transform="translate(-1867.919 -2179.636)" fill="#eea593" fill-rule="evenodd"/><g transform="translate(54.95 43.405)"><rect width="13.345" height="9.284" fill="#eea593"/></g><g transform="translate(66.442 11.534)"><path d="M1956.713,2205.682c-2.257,2.49-7.508,1.457-13.411-3.894s-8.86-11.707-6.6-14.2,8.872-.17,14.775,5.18S1958.969,2203.193,1956.713,2205.682Z" transform="translate(-1935.941 -2186.592)" fill="#61b896"/></g><g transform="translate(38.514 9.508)"><path d="M1946.479,2199.914a4.766,4.766,0,0,0-.745.064c-1.975-8.488-9.167-15.645-17.743-15.645s-15.772,7.16-17.744,15.652a4.664,4.664,0,1,0-.043,9.19c1.9,8.593,9.142,14.988,17.787,14.988s15.879-6.393,17.787-14.982a4.661,4.661,0,1,0,.7-9.268Z" transform="translate(-1904.795 -2184.333)" fill="#fdc4b1" fill-rule="evenodd"/></g><g transform="translate(55.171 28.588)"><rect width="2.002" height="2.869" rx="1.001" fill="#2b2e30"/><g transform="translate(10.721)"><rect width="2.002" height="2.869" rx="1.001" fill="#2b2e30"/></g></g><g transform="translate(56.07 35.131)"><path d="M1924.694,2214.383c1.92,1.739,5.456,5.531,10.627-.01.532-.571.3-1.464-.481-1.464h-9.682A.816.816,0,0,0,1924.694,2214.383Z" transform="translate(-1924.374 -2212.909)" fill="#fff"/></g><g transform="translate(68.424 32.765)"><ellipse cx="3.236" cy="3.236" rx="3.236" ry="3.236" fill="#ffae9c"/></g><g transform="translate(48.247 32.765)"><ellipse cx="3.236" cy="3.236" rx="3.236" ry="3.236" fill="#ffae9c"/></g><g transform="translate(60.719 30.804)"><path d="M1930.582,2208.083s-1.408,1.1-.919,2.072a.945.945,0,0,0,1.443.311s-1.06-.266-.922-.978A10.163,10.163,0,0,1,1930.582,2208.083Z" transform="translate(-1929.559 -2208.083)" fill="#f2917d"/></g><g transform="translate(53.252 26.298)"><path d="M1926.456,2203.913a8.567,8.567,0,0,0-2.752-.252,4.154,4.154,0,0,0-1.274.341,6.707,6.707,0,0,0-1.2.723,2.763,2.763,0,0,1,.969-1.133,3.018,3.018,0,0,1,1.443-.518,3.933,3.933,0,0,1,1.5.154A3.638,3.638,0,0,1,1926.456,2203.913Z" transform="translate(-1921.231 -2203.057)" fill="#2b2e30"/><g transform="translate(11.255)"><path d="M1933.783,2203.913a3.637,3.637,0,0,1,1.309-.685,3.931,3.931,0,0,1,1.5-.154,3.022,3.022,0,0,1,1.443.518,2.763,2.763,0,0,1,.968,1.133,6.723,6.723,0,0,0-1.2-.723,4.16,4.16,0,0,0-1.275-.341A8.564,8.564,0,0,0,1933.783,2203.913Z" transform="translate(-1933.783 -2203.057)" fill="#2b2e30"/></g></g><g transform="translate(41.467 3.195)"><path d="M1945.551,2201c2.5-1.065,3.655-5.24,2.568-9.751-.727-3.018-3.654-7.216-6.1-7.433h0c-7.926-7.249-15.764-6.283-19.974-4.243a5.686,5.686,0,0,1,1.193-1.777.3.3,0,0,0-.319-.486,8.81,8.81,0,0,0-4.92,4.343c-12.415,2.374-9.639,14.362-9.639,14.362-.769,2.429,1.281,6.763,2.055,8.62a.381.381,0,0,0,.71-.02l1.094-3.055,2.662-4.087c6.772,0,9.411-4.432,9.411-4.432s-1.767,3.611-2.664,3.984a20.412,20.412,0,0,0,3.707-.176h0c6.882-.819,8.045-5.351,8.045-5.351a9.2,9.2,0,0,0,.4,1.015,8.035,8.035,0,0,0,2.844,3.472c1.871,1.361,3.938,1.9,5.324,1.521l3.177,3.286" transform="translate(-1908.088 -2177.292)" fill="#232323"/><g transform="translate(35.797 20.6)"><path d="M1948.01,2201.784l.775,4.473a.446.446,0,0,0,.85.1l1.7-3.965.64-2.125" transform="translate(-1948.01 -2200.266)" fill="#232323"/></g></g><g transform="translate(40.46)"><g transform="translate(11.821 11.78)"><path d="M1921.011,2189.334a.863.863,0,0,1-.153-1.713,49.375,49.375,0,0,1,17.1-.019.864.864,0,1,1-.3,1.7,47.675,47.675,0,0,0-16.487.018A.818.818,0,0,1,1921.011,2189.334Z" transform="translate(-1920.148 -2186.866)" fill="#61b896"/></g><path d="M1928.044,2182.854c4.688,0,8.487,2.393,8.487,5.345a3.442,3.442,0,0,1-.088.73c4.5.8,8.118,1.772,11.545,3.791a.743.743,0,0,0,1.125-.7c-1.052-10.735-8.295-18.29-21.069-18.29-13.021,0-20.074,7.587-21.076,18.361a.743.743,0,0,0,1.127.7c3.425-2.039,7.05-3.022,11.553-3.839a3.451,3.451,0,0,1-.092-.749C1919.557,2185.247,1923.357,2182.854,1928.044,2182.854Z" transform="translate(-1906.965 -2173.729)" fill="#61b896"/></g></g></g></g></g></g></svg>