<svg xmlns="http://www.w3.org/2000/svg" xmlns:xlink="http://www.w3.org/1999/xlink" width="240.076" height="240.076" viewBox="0 0 240.076 240.076"><defs><filter id="a" x="0" y="0" width="240.076" height="240.076" filterUnits="userSpaceOnUse"><feOffset dy="10" input="SourceAlpha"/><feGaussianBlur stdDeviation="10" result="b"/><feFlood flood-opacity="0.161"/><feComposite operator="in" in2="b"/><feComposite in="SourceGraphic"/></filter><clipPath id="c"><circle cx="89.525" cy="89.525" r="89.525" fill="none"/></clipPath></defs><g transform="translate(-487.152 -1384.963)"><g transform="matrix(1, 0, 0, 1, 487.15, 1384.96)" filter="url(#a)"><ellipse cx="90.038" cy="90.038" rx="90.038" ry="90.038" transform="translate(30 20)" fill="#f8f8f8"/></g><g transform="translate(-2883.308 -1246.506)"><g transform="translate(3400.46 2652.506)" clip-path="url(#c)"><g transform="translate(-9.15 -6.394)"><circle cx="95.384" cy="95.384" r="95.384" fill="#fff7c7"/><g transform="translate(63.886 24.286)"><rect width="35.385" height="41.915" transform="translate(35.547 87.412)" fill="#fff"/><g transform="translate(20.826 5.434)"><path d="M3486.184,2712.908c2.53-6.58,3.9-3.974,8.462-11.931a17.491,17.491,0,0,0,1.616-4.411,22.283,22.283,0,0,1,6.981-11.669c10.708-9.249,21.643-5.46,21.643-5.46s-1.961,18.192-2.563,21.816c2.676,3.641,5.375,7.361,5.375,7.361s5.636,29.385-3.209,31.863-10.455-1.5-14.775-3.57-8.535,3.584-14.989-.351c-4.93-3.005-2.426-10.5-5.033-11.907S3483.453,2720.011,3486.184,2712.908Z" transform="translate(-3485.213 -2678.669)" fill="#2b2e30"/><g transform="translate(27.987 7.751)"><path d="M3542.2,2687.363s5.312,7.989,8.021,11.157c6.816,7.969,6.528,5.469,10.765,12.322,4.573,7.4-.053,12.03-2.683,14.162s1.771,10.02-3.129,14.44c-6.415,5.787-7.959.33-12.372,3.572s-5.378,8.048-15.836,7.141-10.357-35.107-10.357-35.107,8.368-20.42,8.707-20.57S3542.2,2687.363,3542.2,2687.363Z" transform="translate(-3516.604 -2687.363)" fill="#2b2e30"/></g></g><g transform="translate(44.126 45.474)"><path d="M3511.348,2728.472s6.1,17.487,3.929,21.926c0,0,11.993-1.568,15.51-5.871l-.41-20.947Z" transform="translate(-3511.348 -2723.58)" fill="#eea593"/></g><g transform="translate(22.413 273.743)"><g transform="translate(0 5.613)"><path d="M3497.687,2990.7l-9.332,3.989a1.945,1.945,0,0,0-1.281,2.307c.242.726,1.034,1.394,3.111,1.426,4.613.071,25.032-2.685,25.032-2.685v1.855l9.475-.928s.662-9.384-2.223-10.757Z" transform="translate(-3486.994 -2985.909)"/></g><g transform="translate(10.694)"><path d="M3514.031,2981.762l-15.042,8.257s1.609,3.582,8.733,1.194,16.049-5.986,16.049-5.986l-1.3-5.613Z" transform="translate(-3498.988 -2979.613)" fill="#fdc4b1"/></g></g><g transform="translate(45.131 244.561)"><path d="M3525.232,2981.677l2.268-34.8-15.024,2.369,1.357,32.321Z" transform="translate(-3512.475 -2946.882)" fill="#fdc4b1"/></g><g transform="translate(93.923 233.242)"><g transform="translate(8.877 26.361)"><g transform="translate(0 4.072)"><path d="M3582.559,2984.732l-5.08,8.017a1.893,1.893,0,0,0,.445,2.583c.67.49,1.755.657,3.482-.352,3.838-2.242,18.831-14.753,18.831-14.753l1.2,1.563,7.184-5.51s-5.546-8.235-8.81-7.952Z" transform="translate(-3577.159 -2968.32)"/></g><g transform="translate(5.401)"><path d="M3590.219,2969.774l-7,14.463s3.647,2.214,7.952-3.353,9.3-13.052,9.3-13.052l-4.713-4.079Z" transform="translate(-3583.216 -2963.753)" fill="#fdc4b1"/></g></g><path d="M3598.735,2964.626l-20.724-30.44-10.81,9.494,22.1,26.546Z" transform="translate(-3567.202 -2934.186)" fill="#fdc4b1"/></g><g transform="translate(37.223 61.446)"><path d="M3536.649,2742.588l-6.7-1.094-17.435.1-4.94,6.277-3.969,43.777,27.391-29.684,9.635-5.577" transform="translate(-3503.604 -2741.495)" fill="#fff"/></g><g transform="translate(35.547 115.388)"><path d="M3504.6,2804.937l1.8-.14q-.016-1.406,0-2.8h22.987l8.385,13.694,2.548-.97,9.8,8.812s1.862,4.974-3.4,17.312l7.671,34.181c9.392,14.322,26.338,40.338,38.863,60.531l-24.752,15.528-34.951-56.07-1.524,55.013-30.136-.962s4.341-38.412.976-78.238S3504.6,2804.937,3504.6,2804.937Z" transform="translate(-3501.725 -2801.997)" fill="#f7dea2"/></g><g transform="translate(51.238 61.901)"><g transform="translate(22.909 2.12)"><g transform="translate(19.641 89.068)"><g transform="translate(1.837)"><path d="M3585.3,2852.236c.493-3.933-2.72-7.472-7.176-7.907s-8.468,2.4-8.96,6.333,2.721,7.473,7.176,7.906S3584.805,2856.168,3585.3,2852.236Z" transform="translate(-3569.111 -2844.285)" fill="#fdc4b1"/></g><g transform="translate(0 0.036)"><path d="M3570.549,2855.786s-3.636.613-3.494-3.143,2.679-8.541,10.843-8.31Z" transform="translate(-3567.051 -2844.325)" fill="#fdc4b1"/></g></g><path d="M3546.356,2744.383s38.414,10.984,35.948,90.647h-16.465s-2.274-46.723-20.819-64.661Z" transform="translate(-3545.02 -2744.383)" fill="#ff8685"/></g><path d="M3535.723,2742s-19.242,15.272-16.038,44.615,19.27,39.4,37.157,37.271l-10.016-27.915,8.943-25.956L3545.278,2746a4.359,4.359,0,0,0-3.015-2.408Z" transform="translate(-3519.324 -2742.005)" fill="#ff8685"/></g><g transform="translate(0 61.058)"><g transform="translate(0 80.498)"><g transform="translate(1.837)"><path d="M3480.1,2839.3c.492-3.933-2.72-7.472-7.176-7.907s-8.468,2.4-8.96,6.333,2.72,7.473,7.176,7.907S3479.609,2843.231,3480.1,2839.3Z" transform="translate(-3463.915 -2831.348)" fill="#fdc4b1"/></g><g transform="translate(0 0.036)"><path d="M3465.352,2842.849s-3.635.614-3.493-3.143,2.679-8.54,10.843-8.31Z" transform="translate(-3461.854 -2831.388)" fill="#fdc4b1"/></g></g><g transform="translate(6.412)"><path d="M3509.674,2741.059s-13.154,1.585-17.654,18.07a90.607,90.607,0,0,0-2.355,32.208l-20.619,29.9,12.855,10.583,18.748-26.575-.705-47.805Z" transform="translate(-3469.046 -2741.059)" fill="#ff8685"/></g><g transform="translate(34.698)"><path d="M3513.115,2741.059s-7.852,14.551-6.262,31.861,1.373,37.089-4.851,47.075l.214-38.919s-3.924-13.482,1.168-23.635C3503.384,2757.441,3504.271,2745.37,3513.115,2741.059Z" transform="translate(-3500.773 -2741.059)" fill="#ff8685"/></g></g><g transform="translate(46.349 60.457)"><path d="M3533.006,2741.692a46.716,46.716,0,0,0-18.175-.706s-3.847,8.006,3.625,9.27S3533.006,2741.692,3533.006,2741.692Z" transform="translate(-3513.841 -2740.385)" fill="#eea593"/></g><g transform="translate(62.829 21.838)"><path d="M3532.446,2703.623s-1.319,8.954,4.8,10.544,3.006-10.853,3.006-10.853l-3.551-6.245-1.837,1.246" transform="translate(-3532.326 -2697.068)" fill="#2b2e30"/></g><g transform="translate(29.855)"><path d="M3544.138,2692.157s-5.421-20.294-22.8-19.563-26,20.556-26,20.556" transform="translate(-3495.341 -2672.574)" fill="#2b2e30"/></g><g transform="translate(31.941 12.66)"><ellipse cx="22.751" cy="20.563" rx="22.751" ry="20.563" transform="matrix(0.001, -1, 1, 0.001, 0, 45.501)" fill="#fdc4b1"/></g><g transform="translate(28.836 9.073)"><path d="M3496.465,2707.091s12.686-2.714,15.493-14.559c0,0-.815,5.393,5.954,8.029,0,0-2.62-3.942-1.854-7.135,0,0,2.923,8.393,19.826,12.039l2.494-1.816-5.792-15.294-15.6-5.6-11.564,2.288-8.866,7.47-1.829,8.649,0,2.062-.522,2.183,2.318,1.519" transform="translate(-3494.198 -2682.751)" fill="#2b2e30"/></g><g transform="translate(66.323 26.195)"><ellipse cx="3.971" cy="5.673" rx="3.971" ry="5.673" transform="translate(0 0.581) rotate(-4.198)" fill="#fdc4b1"/></g><g transform="translate(38.386 33.457)"><g transform="translate(0 3.171)"><rect width="2.558" height="3.666" rx="1.279" transform="matrix(0.973, -0.231, 0.231, 0.973, 0, 0.592)" fill="#2b2e30"/></g><g transform="translate(13.328)"><rect width="2.558" height="3.666" rx="1.279" transform="translate(0 0.592) rotate(-13.385)" fill="#2b2e30"/></g></g><g transform="translate(49.64 28.559)"><path d="M3517.532,2708.3a21.136,21.136,0,0,0,3.17-1.483,8.033,8.033,0,0,0,1.281-.965,14.193,14.193,0,0,0,1.161-1.249,2.567,2.567,0,0,1-.524,1.555,4.61,4.61,0,0,1-1.452,1.321,6.336,6.336,0,0,1-1.835.733A4.534,4.534,0,0,1,3517.532,2708.3Z" transform="translate(-3517.532 -2704.607)" fill="#2b2e30"/></g><g transform="translate(34.974 34.319)"><path d="M3507.8,2711.338a21.158,21.158,0,0,1-3.481.365,8.067,8.067,0,0,1-1.595-.165,14.656,14.656,0,0,1-1.639-.471,2.571,2.571,0,0,0,1.251,1.06,4.6,4.6,0,0,0,1.926.383,6.324,6.324,0,0,0,1.95-.319A4.537,4.537,0,0,0,3507.8,2711.338Z" transform="translate(-3501.082 -2711.068)" fill="#2b2e30"/></g><g transform="translate(46.221 39.105)"><path d="M3514.523,2716.436s-1.426,1.779-.53,2.847a1.206,1.206,0,0,0,1.885-.04s-1.4-.018-1.434-.941A13.021,13.021,0,0,1,3514.523,2716.436Z" transform="translate(-3513.697 -2716.436)" fill="#f2917d"/></g><g transform="translate(34.314 2.597)"><path d="M3508.5,2679.137c2.368-.368,17.393-12.121,31.653,8.606l-17.528,6.29-8.1-9.388-14.177,1.259" transform="translate(-3500.342 -2675.488)" fill="#2b2e30"/></g><g transform="translate(23.82 5.678)"><path d="M3509.187,2679a17.282,17.282,0,0,0-13.207,4.74c-5.667,5.642-6.918,9.914-7.3,14.323-.739,8.577,2.563,14.02,1.281,17.063" transform="translate(-3488.572 -2678.943)" fill="#2b2e30"/></g><g transform="translate(49.072 152.104)"><path d="M3535.2,2899.481l-9.839-17.668a48.683,48.683,0,0,1-5.906-18.806l-.982-19.61a.242.242,0,0,0-.483.025l-1.1,22.664c0,5.421,2.478,15.142,5.109,19.882l12.828,26.918Z" transform="translate(-3516.895 -2843.179)" fill="#e0c180"/></g><path d="M3511.388,2725.119l10.338-3.191.618,4.529-8.64,1.338Z" transform="translate(-3467.226 -2677.927)" fill="#fff"/></g><g transform="translate(10.957 82.558)"><path d="M3426.468,2816.727a48.843,48.843,0,0,0-11.04,18.392c-3.891,11.595-4.7,29.792-4.7,29.792s-6.451,7.89-7.824,11.62c-.955,2.594-.126,3.886,1.27,2.008a36.477,36.477,0,0,1,2.525-3.871c-.568,1.192-3.1,6.871-1.526,7.557s1.492-1.936,4.478-6.317c-1.458,3.2-2.979,7.306-1.533,8.148s2.959-5.491,3.983-6.877c-.536,1.941-1.317,6.86.523,6.732s2.165-5.072,3.157-6.608l3.074-4.256c.4.342,1.6,3.612,2.174,3.968.561.347,1.3.151,1.631-1.745.516-3.12-2.2-7.95-2.2-7.95-.308-17.881,4.123-27.043,15.078-38.771,1.851-1.981,4-7.821.618-11.4s-7.377-2.977-9.68-.425Z" transform="translate(-3402.488 -2746.252)" fill="#fdc4b1" fill-rule="evenodd"/><path d="M3483.8,2816.727a48.832,48.832,0,0,1,11.04,18.392c3.892,11.595,4.7,29.792,4.7,29.792s6.45,7.89,7.825,11.62c.955,2.594.126,3.886-1.27,2.008a36.385,36.385,0,0,0-2.524-3.871c.567,1.192,3.1,6.871,1.526,7.557s-1.492-1.936-4.479-6.317c1.459,3.2,2.979,7.306,1.534,8.148s-2.959-5.491-3.984-6.877c.536,1.941,1.316,6.86-.522,6.732s-2.165-5.072-3.158-6.608l-3.074-4.256c-.4.342-1.6,3.612-2.173,3.968-.561.347-1.3.151-1.631-1.745-.517-3.12,2.2-7.95,2.2-7.95.309-17.881-4.123-27.043-15.077-38.771-1.851-1.981-4-7.821-.618-11.4s7.376-2.977,9.679-.425Z" transform="translate(-3410.062 -2746.252)" fill="#fdc4b1" fill-rule="evenodd"/><path d="M3420.1,2823.288c4.348,4.427,9.737,7.8,15.783,8.771l-2.505,5.047c-3.335-.389-13.972-5.326-15.9-9.14l2.623-4.679Z" transform="translate(-3404.113 -2747.19)" fill="#64b898" fill-rule="evenodd"/><path d="M3420.039,2821.679c2.329,3.825,10.5,8.084,16.4,9.246,8.08-7.285,13.133-22.162,2.7-23.5-1-.127-.86-1.45-1.941-1.033-5.86,2.254-14.053,8.463-17.151,15.291Z" transform="translate(-3404.391 -2745.348)" fill="#449876" fill-rule="evenodd"/><path d="M3489.643,2820.116c-3.846,4.872-8.839,8.807-14.746,10.421l3.034,4.749c3.275-.746,13.317-6.8,14.824-10.8l-3.112-4.37Z" transform="translate(-3410.34 -2746.846)" fill="#64b898" fill-rule="evenodd"/><path d="M3488.875,2818.277c-1.9,4.053-9.566,9.167-15.305,10.958-8.816-6.371-15.443-20.618-5.21-23.076.977-.235.7-1.534,1.818-1.238,6.068,1.61,14.882,6.9,18.7,13.356Z" transform="translate(-3409.069 -2745.193)" fill="#449876" fill-rule="evenodd"/><path d="M3434.94,2939.852s.888-38.433.3-54.8,12.368-16.663,15.309-10.095-.126,24.2-1.2,35.552-2.3,29.34-2.3,29.34c1.193,5.812-7.107,7.248-10.234,5.65s-1.88-5.65-1.88-5.65Z" transform="translate(-3405.98 -2752.358)" fill="#fdc4b1" fill-rule="evenodd"/><path d="M3435.449,2912.055c.092-9.934.1-20.312-.14-27a26.226,26.226,0,0,1,.1-3.511,105.285,105.285,0,0,1,7.542-10.485,7.058,7.058,0,0,1,7.67,3.9c2.941,6.569-.126,24.2-1.2,35.552-.071.742-.142,1.514-.212,2.3-5.309-.063-9.91-.365-13.757-.76Z" transform="translate(-3406.044 -2752.358)" fill="#eea593" fill-rule="evenodd"/><path d="M3434.9,2946.678l-.586-9.778c3.419.065,9.067.074,13.72.063-.518,5.69-.875,9.662-.875,9.662,1.192,5.813-7.6,8.279-10.732,6.68s-2.175-6.172-1.527-6.628Z" transform="translate(-3405.93 -2759.51)" fill="#f0f8ff" fill-rule="evenodd"/><path d="M3434.169,2947.861c-1.177.242-7.164,7.2-6.615,11.926h23.519s.438-5.4-4.646-11.978c-9.346,2.706-12.716,1.258-12.259.052Z" transform="translate(-3405.202 -2760.693)" fill="#fccc30" fill-rule="evenodd"/><path d="M3427.88,2960.808h22.442a1.253,1.253,0,0,1,1.251,1.251h0a1.254,1.254,0,0,1-1.251,1.251H3427.88a1.255,1.255,0,0,1-1.251-1.251h0a1.254,1.254,0,0,1,1.251-1.251Z" transform="translate(-3405.105 -2762.103)" fill="#cd9e1d" fill-rule="evenodd"/><path d="M3432.607,2952.13a.775.775,0,0,1-.9-.312c-.137-.275.039-.584.395-.688a14.125,14.125,0,0,1,4.343-.458,7.5,7.5,0,0,1,3.495.913.461.461,0,0,1,.112.755.838.838,0,0,1-.975.078,5.888,5.888,0,0,0-2.709-.677,12.218,12.218,0,0,0-3.765.39Z" transform="translate(-3405.651 -2761.001)" fill="#cd9e1d" fill-rule="evenodd"/><path d="M3432.11,2954.32a.777.777,0,0,1-.9-.312c-.137-.275.039-.585.4-.688a14.112,14.112,0,0,1,4.342-.458,7.508,7.508,0,0,1,3.5.914.461.461,0,0,1,.112.754.84.84,0,0,1-.975.078,5.906,5.906,0,0,0-2.709-.677,12.219,12.219,0,0,0-3.766.39Z" transform="translate(-3405.597 -2761.239)" fill="#cd9e1d" fill-rule="evenodd"/><path d="M3478.9,2938.609s-1.172-37.19-.588-53.555-12.368-16.663-15.309-10.095.126,24.2,1.2,35.552,2.145,29.015,2.145,29.015l4.8,8.664,7.755-9.582Z" transform="translate(-3408.916 -2752.358)" fill="#fdc4b1" fill-rule="evenodd"/><path d="M3478.277,2911.469c-.147-9.647-.2-19.756.038-26.415.585-16.363-12.368-16.663-15.309-10.095s.126,24.2,1.2,35.552c.064.68.13,1.385.193,2.1,4.3-.2,8.931-.572,13.879-1.147Z" transform="translate(-3408.916 -2752.358)" fill="#eea593" fill-rule="evenodd"/><path d="M3479.345,2945.709a86.673,86.673,0,0,0,.269-8.793c-4.337.03-9.583.037-13.786.015.51,5.6.889,9.7.889,9.7l4.873,8.708,7.756-9.634Z" transform="translate(-3409.356 -2759.512)" fill="#f0f8ff" fill-rule="evenodd"/><path d="M3466.579,2947.7s-2.1,1.5-2.592,5.273a16.993,16.993,0,0,0,.481,6.763l25.4.967,2.9-1.308c.8-6.626-10.244-10.628-13.645-12.614-.9,1.543-9.879,6.213-12.552.917Z" transform="translate(-3409.141 -2760.581)" fill="#fccc30" fill-rule="evenodd"/><path d="M3491.619,2952.995q-.455-.36-.938-.7a9.549,9.549,0,0,0-2.259,1.533.459.459,0,0,0,.032.715.655.655,0,0,0,.828-.048,8.459,8.459,0,0,1,2.337-1.5Z" transform="translate(-3411.789 -2761.179)" fill="#cd9e1d" fill-rule="evenodd"/><path d="M3489.239,2951.279q-.506-.318-1.02-.619a8.72,8.72,0,0,0-1.516,1.129.459.459,0,0,0,.03.715.654.654,0,0,0,.828-.048,7.923,7.923,0,0,1,1.677-1.177Z" transform="translate(-3411.603 -2761.002)" fill="#cd9e1d" fill-rule="evenodd"/><path d="M3464.392,2960.808h28.017a1.254,1.254,0,0,1,1.251,1.251h0a1.255,1.255,0,0,1-1.251,1.251h-28.017a1.255,1.255,0,0,1-1.25-1.251h0a1.254,1.254,0,0,1,1.25-1.251Z" transform="translate(-3409.065 -2762.103)" fill="#cd9e1d" fill-rule="evenodd"/><path d="M3431.668,2868.142c-.8,13.992-2.535,34.712-2.733,39.451l23.04.009.669-24.8c1.277-.009,1.853-.1,3.129-.106l.76,24.924,24.243-.781c-.635-11.181-4.055-34.843-4.478-47.744,0,0-37.627-3.7-44.63,9.048Z" transform="translate(-3405.355 -2751.019)" fill="#fdd235" fill-rule="evenodd"/><path d="M3430.529,2863.866s1.255-39.023,2.158-46.381c.8-6.515,4.131-10.329,9.3-12.2,4.594,5.01,16.983,5.15,20.946-1.369,6.688.908,11.227,4.062,11.9,13.078.829,11.089,3.895,46.829,3.895,46.829,1.369.342-28.828,5.85-48.2.039Z" transform="translate(-3405.528 -2745.089)" fill="#449876" fill-rule="evenodd"/><rect width="17.166" height="11.941" transform="translate(38.315 49.086)" fill="#eea593"/><path d="M3442.461,2806.153c2.445-1.781,8.224-2.935,12.283-3.082,3.386-.124,7.742.182,9.633,1.552-1.812,2.354-6.657,4.239-10.959,4.239s-8.714-1.918-10.957-2.708Z" transform="translate(-3406.822 -2744.994)" fill="#eea593" fill-rule="evenodd"/><path d="M3443.315,2804.7a16.163,16.163,0,0,0,9.91,3.6c4.775-.153,8.877-2.5,10.21-4.828l4.416,1.258c-4.689,9.359-23.077,10.025-29.3,1.552.659-.246,2.354-.882,4.767-1.579Z" transform="translate(-3406.398 -2745.04)" fill="#64b898" fill-rule="evenodd"/><g transform="translate(18.511 12.202)"><path d="M3424.086,2771.277c2.271,3.044,8.291,2.446,15.507-2.941s11.227-12.22,8.955-15.264-9.964-1.144-17.18,4.243S3421.814,2768.233,3424.086,2771.277Z" transform="translate(-3423.25 -2751.62)" fill="#61b896"/></g><g transform="translate(22.064 10.759)"><path d="M3433.007,2765.626a5.318,5.318,0,0,1,.831.153c3.133-9.34,11.995-16.62,21.643-15.7s16.978,9.75,18.286,19.516a5.272,5.272,0,1,1-.938,10.346c-3.066,9.463-11.9,15.883-21.623,14.955s-17.18-8.9-18.4-18.766a5.331,5.331,0,0,1-.8-.009,5.271,5.271,0,0,1,1-10.495Z" transform="translate(-3427.235 -2750.001)" fill="#fdc4b1" fill-rule="evenodd"/></g><g transform="translate(40.996 31.642)"><g transform="translate(12.063 1.151)"><rect width="2.262" height="3.243" rx="1.131" transform="translate(2.252 3.443) rotate(-174.551)" fill="#2b2e30"/></g><rect width="2.262" height="3.243" rx="1.131" transform="translate(2.252 3.443) rotate(-174.551)" fill="#2b2e30"/></g><g transform="translate(32.613 35.921)"><circle cx="3.658" cy="3.658" r="3.658" fill="#ffae9c"/></g><g transform="translate(55.315 38.087)"><circle cx="3.658" cy="3.658" r="3.658" fill="#ffae9c"/></g><g transform="translate(47.144 34.796)"><path d="M3456.21,2776.962s1.466,1.384.811,2.43a1.067,1.067,0,0,1-1.656.194s1.22-.186,1.141-1A11.476,11.476,0,0,0,3456.21,2776.962Z" transform="translate(-3455.365 -2776.962)" fill="#f2917d"/></g><g transform="translate(26.341 4.303)"><path d="M3434.76,2767.019c-2.7-1.468-3.55-6.288-1.844-11.246,1.143-3.319,4.886-7.729,7.667-7.709h0c9.7-7.3,18.411-5.378,22.93-2.63a6.412,6.412,0,0,0-1.152-2.127.338.338,0,0,1,.412-.513,9.96,9.96,0,0,1,5.069,5.414c13.715,4.005,9.3,17.195,9.3,17.195.6,2.816-2.167,7.471-3.238,9.478a.43.43,0,0,1-.8-.1l-.9-3.556-2.557-4.884c-7.62-.727-10.114-6-10.114-6s1.6,4.253,2.57,4.769a23,23,0,0,1-4.152-.6v0c-7.657-1.66-8.479-6.884-8.479-6.884a10.266,10.266,0,0,1-.556,1.1,9.076,9.076,0,0,1-3.573,3.6c-2.251,1.33-4.634,1.714-6.153,1.139l-3.928,3.357" transform="translate(-3432.032 -2742.761)" fill="#232323"/><g transform="translate(0.476 20.515)"><path d="M3436.862,2767.9l-1.353,4.95a.5.5,0,0,1-.966.021l-1.485-4.643-.492-2.46" transform="translate(-3432.566 -2765.771)" fill="#232323"/></g></g><g transform="translate(25.836)"><g transform="translate(13.825 13.149)"><path d="M3466.751,2756.624a.976.976,0,0,0,.356-1.912,55.876,55.876,0,0,0-19.237-1.857.976.976,0,0,0,.159,1.946,53.917,53.917,0,0,1,18.55,1.79A.988.988,0,0,0,3466.751,2756.624Z" transform="translate(-3446.973 -2752.682)" fill="#61b896"/></g><path d="M3456.173,2748.358c-5.274-.5-9.806,1.781-10.123,5.1a3.854,3.854,0,0,0,.021.831c-5.146.422-9.325,1.122-13.4,3.026a.84.84,0,0,1-1.19-.909c2.336-11.965,11.3-19.69,25.67-18.319,14.651,1.4,21.774,10.691,21.744,22.923a.84.84,0,0,1-1.344.661c-3.635-2.662-7.608-4.157-12.588-5.559a3.93,3.93,0,0,0,.185-.833C3465.466,2751.962,3461.447,2748.861,3456.173,2748.358Z" transform="translate(-3431.466 -2737.934)" fill="#61b896"/></g><path d="M3444.544,2771.172s4.453-.02,7.49-2.336A6.5,6.5,0,0,1,3444.544,2771.172Z" transform="translate(-3407.048 -2741.285)" fill="#2b2e30"/><path d="M3462.627,2769.549s2.977,3.31,6.727,4.038A6.5,6.5,0,0,1,3462.627,2769.549Z" transform="translate(-3409.009 -2741.362)" fill="#2b2e30"/><path d="M3450.175,2784.714s1.5-2.242,5.54-1.524,4.361,2.725,4.361,2.725" transform="translate(-3407.659 -2742.826)" fill="#fff"/></g></g></g></g></g></svg>