<svg xmlns="http://www.w3.org/2000/svg" width="245" height="72.397">
    <defs>
        <style>
            .cls-2{fill:#ffcf02}.cls-6{fill:#fff}
        </style>
    </defs>
    <g id="logo_gm_white" data-name="logo_gm/white" transform="translate(-220.102 -246.851)">
        <g id="그룹_1354" data-name="그룹 1354" transform="translate(254.933 288.534)">
            <path id="패스_1742" data-name="패스 1742" d="M319.515 370.394h-18.178l9.089 9.089z" transform="translate(-301.294 -359.041)" style="fill:#3cc91f"/>
            <path id="패스_1743" data-name="패스 1743" class="cls-2" d="m325.222 382.173 9.107 9.107v-18.214z" transform="translate(-314.926 -360.566)"/>
            <path id="패스_1744" data-name="패스 1744" d="m362.217 379.455 9.061-9.062h-18.122z" transform="translate(-330.868 -359.041)" style="fill:#efa2c6"/>
            <path id="패스_1745" data-name="패스 1745" d="M350.272 372.937v18.269l9.135-9.135z" transform="translate(-329.222 -360.492)" style="fill:#34d5ea"/>
            <path id="패스_1746" data-name="패스 1746" class="cls-2" d="m369.675 353.654-9.706-9.706-9.7 9.7v.008z" transform="translate(-329.222 -343.949)"/>
            <path id="패스_1747" data-name="패스 1747" d="M320.641 353.654v-.008l-9.7-9.7-9.705 9.706z" transform="translate(-301.238 -343.949)" style="fill:#ec4e4b"/>
        </g>
        <path id="패스_1748" data-name="패스 1748" class="cls-6" d="M220.644 262.572v-.088a15.53 15.53 0 0 1 15.875-15.633c4.585 0 7.613 1.035 10.336 2.935a3.34 3.34 0 0 1 1.382 2.677 3.3 3.3 0 0 1-5.32 2.595 10.584 10.584 0 0 0-6.617-2.073c-4.843 0-8.694 4.275-8.694 9.414v.085c0 5.529 3.805 9.59 9.171 9.59a10.627 10.627 0 0 0 6.27-1.814v-4.32h-4.5a2.859 2.859 0 0 1-2.9-2.85 2.9 2.9 0 0 1 2.9-2.894h7.613a3.3 3.3 0 0 1 3.328 3.325v7.344a4.494 4.494 0 0 1-2.337 4.232 20.155 20.155 0 0 1-10.6 3.02c-9.418.001-15.907-6.606-15.907-15.545z" transform="translate(-.309)"/>
        <path id="패스_1749" data-name="패스 1749" class="cls-6" d="M315 251.543a3.294 3.294 0 0 1 3.318-3.315H328.8c3.84 0 6.815 1.077 8.8 3.057a9.475 9.475 0 0 1 2.589 6.894v.089a9.2 9.2 0 0 1-6.047 9.176l4.621 5.6a3.863 3.863 0 0 1 1.074 2.541 3.086 3.086 0 0 1-3.147 3.059 3.972 3.972 0 0 1-3.276-1.721l-6.475-8.188h-5.3v6.591a3.324 3.324 0 0 1-6.647 0zm13.373 11.334c3.24 0 5.094-1.725 5.094-4.267v-.086c0-2.845-1.988-4.308-5.219-4.308h-6.6v8.661z" transform="translate(-54.158 -.786)"/>
        <path id="패스_1750" data-name="패스 1750" class="cls-6" d="M395.338 262.707v-.088c0-8.574 6.781-15.6 16.1-15.6s16.009 6.937 16.009 15.511v.085c0 8.575-6.772 15.6-16.094 15.6s-16.015-6.935-16.015-15.508zm25.16 0v-.088a9.169 9.169 0 0 0-9.148-9.477c-5.351 0-9.062 4.22-9.062 9.392v.085a9.17 9.17 0 0 0 9.147 9.48c5.351.001 9.065-4.222 9.065-9.392z" transform="translate(-100.009 -.099)"/>
        <path id="패스_1751" data-name="패스 1751" class="cls-6" d="M483.967 251.989a4.441 4.441 0 0 1-.259-1.249 3.3 3.3 0 0 1 3.413-3.232 3.351 3.351 0 0 1 3.233 2.37l6 18.483 6.041-18.312a3.5 3.5 0 0 1 3.365-2.63h.521a3.442 3.442 0 0 1 3.361 2.63l6.047 18.312 5.992-18.483a3.333 3.333 0 0 1 3.2-2.37 3.2 3.2 0 0 1 3.278 3.187 4.576 4.576 0 0 1-.26 1.294l-8.459 23.7a3.679 3.679 0 0 1-3.449 2.717h-.691a3.579 3.579 0 0 1-3.409-2.717l-5.954-17.278-5.954 17.278a3.578 3.578 0 0 1-3.408 2.717h-.691a3.68 3.68 0 0 1-3.451-2.717z" transform="translate(-150.443 -.324)"/>
        <path id="패스_1752" data-name="패스 1752" class="cls-6" d="M604.682 250.941a3.323 3.323 0 0 1 6.646 0v24.043a3.323 3.323 0 0 1-6.646 0z" transform="translate(-219.484 -.442)"/>
        <path id="패스_1753" data-name="패스 1753" class="cls-6" d="M642.612 251.03a3.293 3.293 0 0 1 3.324-3.319h.691a4.111 4.111 0 0 1 3.446 1.94l12.817 16.8V250.9a3.28 3.28 0 0 1 6.56 0v24a3.3 3.3 0 0 1-3.321 3.318h-.223a4.132 4.132 0 0 1-3.45-1.939l-13.287-17.409v16.159a3.278 3.278 0 0 1-6.557 0z" transform="translate(-241.131 -.442)"/>
        <path id="패스_1754" data-name="패스 1754" class="cls-6" d="M723.771 262.707v-.088a15.488 15.488 0 0 1 15.835-15.6c4.573 0 7.595 1.032 10.313 2.927a3.323 3.323 0 0 1 1.377 2.671 3.294 3.294 0 0 1-5.309 2.588 10.547 10.547 0 0 0-6.593-2.068c-4.834 0-8.678 4.265-8.678 9.392v.085c0 5.516 3.8 9.568 9.149 9.568a10.625 10.625 0 0 0 6.257-1.81v-4.31h-4.484a2.852 2.852 0 0 1-2.9-2.843 2.889 2.889 0 0 1 2.9-2.887h7.589a3.294 3.294 0 0 1 3.324 3.318v7.327a4.491 4.491 0 0 1-2.329 4.223 20.143 20.143 0 0 1-10.57 3.013c-9.409.004-15.881-6.587-15.881-15.506z" transform="translate(-287.449 -.099)"/>
        <path id="패스_1755" data-name="패스 1755" class="cls-6" d="M220.1 347.333a3.3 3.3 0 0 1 3.325-3.318h.732a3.425 3.425 0 0 1 3.025 1.723l8.022 13.058 8.072-13.1a3.251 3.251 0 0 1 2.977-1.682h.732a3.3 3.3 0 0 1 3.324 3.318v23.958a3.3 3.3 0 1 1-6.6 0v-15.039l-5.821 8.963a3.112 3.112 0 0 1-5.526 0l-5.737-8.83v14.992a3.241 3.241 0 0 1-3.279 3.233 3.2 3.2 0 0 1-3.24-3.233z" transform="translate(0 -55.452)"/>
        <path id="패스_1756" data-name="패스 1756" class="cls-6" d="M405.2 347.333a3.3 3.3 0 0 1 3.323-3.318h.732a3.422 3.422 0 0 1 3.022 1.723L420.3 358.8l8.071-13.1a3.259 3.259 0 0 1 2.977-1.682h.735a3.293 3.293 0 0 1 3.321 3.318v23.954a3.3 3.3 0 1 1-6.6 0v-15.039l-5.825 8.963a3.11 3.11 0 0 1-5.524 0l-5.738-8.83v14.992a3.239 3.239 0 0 1-3.28 3.233 3.2 3.2 0 0 1-3.236-3.233z" transform="translate(-105.639 -55.452)"/>
    </g>
</svg>
