<svg xmlns="http://www.w3.org/2000/svg" width="240.487" height="22.5" viewBox="0 0 240.487 22.5">
  <defs>
    <style>
      .cls-1 {
        fill: #fff;
      }

      .cls-2 {
        fill: #58af31;
      }

      .cls-3 {
        fill: #ffcf04;
      }

      .cls-4 {
        fill: #eea2c5;
      }

      .cls-5 {
        fill: #58c0da;
      }

      .cls-6 {
        fill: #e94e4c;
      }
    </style>
  </defs>
  <g id="gm_logo_white" data-name="gm_logo/white" transform="translate(-1256.123 -1560.988)">
    <path id="패스_1586" data-name="패스 1586" class="cls-1" d="M1266.12,1582.406a12.686,12.686,0,0,0,6.654-1.9,2.825,2.825,0,0,0,1.464-2.657v-4.611a2.071,2.071,0,0,0-2.09-2.087h-4.78a1.817,1.817,0,0,0-1.82,1.817,1.8,1.8,0,0,0,1.82,1.789h2.825v2.712a6.681,6.681,0,0,1-3.938,1.139,5.692,5.692,0,0,1-5.758-6.021v-.054a5.7,5.7,0,0,1,5.457-5.911,6.65,6.65,0,0,1,4.155,1.3,2.072,2.072,0,0,0,3.342-1.629,2.09,2.09,0,0,0-.868-1.682,10.549,10.549,0,0,0-6.49-1.842,9.75,9.75,0,0,0-9.969,9.815v.055C1256.123,1578.258,1260.2,1582.406,1266.12,1582.406Z" transform="translate(0 -0.686)"/>
    <path id="패스_1587" data-name="패스 1587" class="cls-1" d="M1300.825,1580.359v-4.149h3.338l4.076,5.154a2.5,2.5,0,0,0,2.063,1.083,1.945,1.945,0,0,0,1.985-1.927,2.435,2.435,0,0,0-.679-1.6l-2.907-3.526a5.794,5.794,0,0,0,3.8-5.777v-.055a5.951,5.951,0,0,0-1.63-4.339,7.583,7.583,0,0,0-5.539-1.924h-6.6a2.074,2.074,0,0,0-2.093,2.087v14.969a2.091,2.091,0,0,0,4.183,0Zm0-13.288h4.156c2.034,0,3.285.921,3.285,2.711v.054c0,1.6-1.17,2.685-3.206,2.685h-4.235Z" transform="translate(-15.561 -0.888)"/>
    <path id="패스_1588" data-name="패스 1588" class="cls-1" d="M1351.225,1572.589v-.054a10.107,10.107,0,0,0-20.2.054v.055a10.107,10.107,0,0,0,20.2-.055Zm-15.833,0v-.054a5.681,5.681,0,0,1,5.7-5.911,5.77,5.77,0,0,1,5.758,5.965v.055a5.681,5.681,0,0,1-5.7,5.911A5.773,5.773,0,0,1,1335.393,1572.589Z" transform="translate(-28.763 -0.686)"/>
    <path id="패스_1589" data-name="패스 1589" class="cls-1" d="M1396.556,1563a2.093,2.093,0,0,0-2.009,1.493l-3.775,11.633-3.8-11.525a2.172,2.172,0,0,0-2.118-1.655h-.325a2.2,2.2,0,0,0-2.118,1.655l-3.8,11.525-3.775-11.633a2.108,2.108,0,0,0-2.037-1.493,2.075,2.075,0,0,0-2.146,2.033,2.771,2.771,0,0,0,.161.788l5.325,14.913a2.313,2.313,0,0,0,2.173,1.709h.435a2.259,2.259,0,0,0,2.146-1.709l3.745-10.874,3.749,10.874a2.252,2.252,0,0,0,2.145,1.709h.436a2.317,2.317,0,0,0,2.172-1.709l5.321-14.913a2.846,2.846,0,0,0,.164-.814A2.015,2.015,0,0,0,1396.556,1563Z" transform="translate(-43.981 -0.753)"/>
    <path id="패스_1590" data-name="패스 1590" class="cls-1" d="M1427.535,1563.037a2.073,2.073,0,0,0-2.09,2.088v15.133a2.091,2.091,0,0,0,4.182,0v-15.133A2.072,2.072,0,0,0,1427.535,1563.037Z" transform="translate(-65.025 -0.787)"/>
    <path id="패스_1591" data-name="패스 1591" class="cls-1" d="M1458.642,1563.037a2.062,2.062,0,0,0-2.065,2.061v9.789l-8.064-10.575a2.591,2.591,0,0,0-2.174-1.22h-.434a2.076,2.076,0,0,0-2.094,2.088v15.105a2.064,2.064,0,0,0,4.129,0v-10.17l8.365,10.956a2.593,2.593,0,0,0,2.173,1.221h.134a2.075,2.075,0,0,0,2.093-2.088V1565.1A2.062,2.062,0,0,0,1458.642,1563.037Z" transform="translate(-72.078 -0.787)"/>
    <path id="패스_1592" data-name="패스 1592" class="cls-1" d="M1497.172,1571.154h-4.779a1.819,1.819,0,0,0-1.821,1.817,1.8,1.8,0,0,0,1.821,1.789h2.824v2.712a6.683,6.683,0,0,1-3.938,1.139,5.692,5.692,0,0,1-5.758-6.021v-.054a5.7,5.7,0,0,1,5.458-5.911,6.646,6.646,0,0,1,4.155,1.3,2.073,2.073,0,0,0,3.343-1.629,2.094,2.094,0,0,0-.869-1.682,10.551,10.551,0,0,0-6.492-1.842,9.749,9.749,0,0,0-9.965,9.815v.055c0,5.613,4.07,9.761,9.991,9.761a12.682,12.682,0,0,0,6.656-1.9,2.822,2.822,0,0,0,1.467-2.657v-4.611A2.074,2.074,0,0,0,1497.172,1571.154Z" transform="translate(-86.417 -0.686)"/>
    <path id="패스_1593" data-name="패스 1593" class="cls-1" d="M1550.544,1562.318h-.463a2.041,2.041,0,0,0-1.873,1.059l-5.079,8.242-5.05-8.217a2.15,2.15,0,0,0-1.9-1.084h-.46a2.072,2.072,0,0,0-2.091,2.089v15.131a2.016,2.016,0,0,0,2.036,2.035,2.04,2.04,0,0,0,2.063-2.035V1570.1l3.613,5.557a1.958,1.958,0,0,0,3.478,0l3.666-5.639v9.464a2.077,2.077,0,1,0,4.154,0v-15.077A2.074,2.074,0,0,0,1550.544,1562.318Z" transform="translate(-106.569 -0.51)"/>
    <path id="패스_1594" data-name="패스 1594" class="cls-1" d="M1632.6,1562.318h-.463a2.046,2.046,0,0,0-1.874,1.059l-5.077,8.242-5.052-8.217a2.149,2.149,0,0,0-1.9-1.084h-.46a2.075,2.075,0,0,0-2.092,2.089v15.131a2.014,2.014,0,0,0,2.037,2.035,2.04,2.04,0,0,0,2.064-2.035V1570.1l3.61,5.557a1.958,1.958,0,0,0,3.478,0l3.666-5.639v9.464a2.078,2.078,0,1,0,4.156,0v-15.077A2.074,2.074,0,0,0,1632.6,1562.318Z" transform="translate(-138.081 -0.51)"/>
    <g id="그룹_937" data-name="그룹 937" transform="translate(1447.383 1560.988)">
      <g id="그룹_935" data-name="그룹 935">
        <path id="패스_1595" data-name="패스 1595" class="cls-1" d="M1566.625,1568.959l14.456,14.529v-15.852l-6.659-6.648Z" transform="translate(-1566.625 -1560.988)"/>
        <path id="패스_1596" data-name="패스 1596" class="cls-1" d="M1596.756,1560.988l-6.659,6.648v15.852l14.456-14.529Z" transform="translate(-1575.639 -1560.988)"/>
      </g>
      <g id="그룹_936" data-name="그룹 936" transform="translate(1.879 1.409)">
        <path id="패스_1597" data-name="패스 1597" class="cls-2" d="M1581.075,1574.789h-11.356l5.678,5.678Z" transform="translate(-1569.692 -1567.697)"/>
        <path id="패스_1598" data-name="패스 1598" class="cls-3" d="M1580.118,1581.641l5.689,5.689v-11.378Z" transform="translate(-1573.686 -1568.144)"/>
        <path id="패스_1599" data-name="패스 1599" class="cls-4" d="M1597.941,1580.45l5.661-5.661H1592.28Z" transform="translate(-1578.356 -1567.697)"/>
        <path id="패스_1600" data-name="패스 1600" class="cls-5" d="M1591.024,1575.9v11.413l5.707-5.707Z" transform="translate(-1577.874 -1568.122)"/>
        <path id="패스_1601" data-name="패스 1601" class="cls-3" d="M1603.146,1569.338l-6.063-6.063-6.058,6.058v0Z" transform="translate(-1577.874 -1563.275)"/>
        <path id="패스_1602" data-name="패스 1602" class="cls-6" d="M1581.8,1569.338v-.005l-6.058-6.058-6.063,6.063Z" transform="translate(-1569.676 -1563.275)"/>
      </g>
    </g>
  </g>
</svg>
