<svg xmlns="http://www.w3.org/2000/svg" width="320" height="170.281">
    <defs>
        <style>
            .cls-4{fill:none;stroke:#2b2b2b;stroke-linecap:round;stroke-linejoin:round}
        </style>
    </defs>
    <g id="history5" transform="translate(-23.615 -3107.51)">
        <g id="타원_179" data-name="타원 179" transform="translate(23.615 3122.51)" style="fill:#fff;stroke:#5ac29f;stroke-width:2px">
            <circle cx="6" cy="6" r="6" style="stroke:none"/>
            <circle cx="6" cy="6" r="5" style="fill:none"/>
        </g>
        <text id="_2019" data-name="2019" transform="translate(48.615 3133.51)" style="font-family:NotoSansCJKkr-Medium,Noto Sans CJK KR;font-weight:500;letter-spacing:-.03em;fill:#191919;font-size:22px"><tspan x="0" y="0">2019</tspan></text>
        <text id="_온라인_기질분석_솔루션_런칭_기질육아_연구소_설립_예비사회적기업_지정_디지털_페어런팅_매거진_제작_정보화진흥원_프리미엄_오프라인_클래스_오픈_아이마음에_상처주지_않는_습관_출간" data-name="• 온라인 기질분석 솔루션 런칭 • 기질육아 연구소 설립 • 예비사회적기업 지정 • 디지털 페어런팅 매거진 제작 (정보화진흥원) • 프리미엄 오프라인 클래스 오픈 • 아이마음에 상처주지 않는 습관 출간" transform="translate(48.615 3162.791)" style="fill:#5c5c5c;font-size:16px;font-family:NotoSansCJKkr-Medium,Noto Sans CJK KR;font-weight:500;letter-spacing:-.03em"><tspan x="0" y="0" xml:space="preserve">•   온라인 기질분석 솔루션 런칭</tspan><tspan x="0" y="22" xml:space="preserve">•   기질육아 연구소 설립</tspan><tspan x="0" y="44" xml:space="preserve">•   예비사회적기업 지정</tspan><tspan x="0" y="66" xml:space="preserve">•   디지털 페어런팅 매거진 제작 (정보화진흥원)</tspan><tspan x="0" y="88" xml:space="preserve">•   프리미엄 오프라인 클래스 오픈</tspan><tspan x="0" y="110" xml:space="preserve">•   아이마음에 상처주지 않는 습관 출간</tspan></text>
        <g id="그룹_6009" data-name="그룹 6009" transform="translate(-1202.922 2192.063)">
            <path id="패스_1332" data-name="패스 1332" class="cls-4" d="m1314.569 940.893 1.611 1.612.744-.744a2.935 2.935 0 0 0 .86-2.031l.05-3.19 2.523-2.523a5.29 5.29 0 1 0-6.334-6.334l-2.523 2.523-3.19.051a2.935 2.935 0 0 0-2.03.86l-.744.744 1.645 1.644"/>
            <path id="패스_1333" data-name="패스 1333" class="cls-4" d="M1329.909 933.465a1.642 1.642 0 0 1-.425 2.626 1.589 1.589 0 0 1-1.465 0 1.642 1.642 0 0 1-.425-2.626 1.659 1.659 0 0 1 .138-.123" transform="translate(-11.014 -4.32)"/>
            <g id="그룹_693" data-name="그룹 693" transform="translate(1307.748 934.837)">
                <path id="선_124" data-name="선 124" class="cls-4" d="M2.888 0 0 2.888"/>
                <path id="선_125" data-name="선 125" class="cls-4" transform="translate(3.17 2.6)" d="M2.251 0 0 2.251"/>
            </g>
        </g>
    </g>
</svg>
