<svg xmlns="http://www.w3.org/2000/svg" width="189" height="102.803">
    <defs>
        <style>
            .cls-6{stroke:none}
        </style>
    </defs>
    <g id="history3" transform="translate(-23.615 -2761.43)">
        <g id="타원_177" data-name="타원 177" transform="translate(23.615 2775.43)" style="fill:#fff;stroke:#5ac29f;stroke-width:2px">
            <circle class="cls-6" cx="6" cy="6" r="6"/>
            <circle cx="6" cy="6" r="5" style="fill:none"/>
        </g>
        <text id="_2017" data-name="2017" transform="translate(48.615 2787.43)" style="font-family:NotoSansCJKkr-Medium,Noto Sans CJK KR;font-weight:500;letter-spacing:-.03em;fill:#191919;font-size:22px"><tspan x="0" y="0">2017</tspan></text>
        <text id="_법인설립_그로잉맘_심플육아_출간_사회적기업가육성사업" data-name="• 법인설립 • 그로잉맘 심플육아 출간 • 사회적기업가육성사업" transform="translate(48.615 2815.232)" style="fill:#5c5c5c;font-size:16px;font-family:NotoSansCJKkr-Medium,Noto Sans CJK KR;font-weight:500;letter-spacing:-.03em"><tspan x="0" y="0" xml:space="preserve">•   법인설립</tspan><tspan x="0" y="22" xml:space="preserve">•   그로잉맘 심플육아 출간</tspan><tspan x="0" y="44" xml:space="preserve">•   사회적기업가육성사업</tspan></text>
        <g id="그룹_6008" data-name="그룹 6008" transform="translate(-29.289 85.75)">
            <g id="그룹_1375" data-name="그룹 1375" transform="translate(127.905 2681.102)">
                <g id="그룹_1374" data-name="그룹 1374" transform="translate(6.339 11.177)">
                    <g id="그룹_691" data-name="그룹 691">
                        <path id="사각형_322" data-name="사각형 322" style="stroke:#2b2b2b;stroke-linecap:round;stroke-linejoin:round;fill:none" d="M0 0h12.408v8.98H0z"/>
                    </g>
                </g>
                <g id="다각형_1" data-name="다각형 1" style="fill:none">
                    <path class="cls-6" d="M9.869.614a1 1 0 0 1 1.347 0l7.96 7.253a1 1 0 0 1-.676 1.739H2.582a1 1 0 0 1-.674-1.739z" transform="translate(2 2)"/>
                    <path d="m10.542 1.353-7.96 7.253h15.92l-7.959-7.253m0-1c.24 0 .482.087.673.26l7.96 7.254c.675.615.24 1.739-.673 1.739H2.583c-.914 0-1.35-1.124-.674-1.74L9.869.615a.997.997 0 0 1 .673-.261z" style="fill:#2b2b2b;stroke:none" transform="translate(2 2)"/>
                </g>
            </g>
        </g>
    </g>
</svg>
