<svg xmlns="http://www.w3.org/2000/svg" width="1343" height="411" viewBox="0 0 1343 411">
  <g id="history2" transform="translate(-278 -3651)">
    <g id="_2018" data-name="2018">
      <line id="선_147" data-name="선 147" x1="90" transform="translate(871.391 3683.5)" fill="none" stroke="#5ac29f" stroke-width="2" stroke-dasharray="4"/>
      <g id="타원_84" data-name="타원 84" transform="translate(943 3665)" fill="#fff" stroke="#5ac29f" stroke-width="5">
        <ellipse cx="17.5" cy="18" rx="17.5" ry="18" stroke="none"/>
        <ellipse cx="17.5" cy="18" rx="15" ry="15.5" fill="none"/>
      </g>
      <text id="_2018-2" data-name="2018" transform="translate(763 3697)" fill="#191919" font-size="40" font-family="NotoSansCJKkr-Medium, Noto Sans CJK KR" font-weight="500" letter-spacing="-0.03em"><tspan x="0" y="0">2018</tspan></text>
      <text id="온라인_육아_상담_서비스_오픈_GS_SHOP_소셜임팩트_프로젝트_우수기업_선정_H-온드림_펠로우_선정_현대정몽구재단_신용보증기금_NEST_기업_선정_SOPOONG_배치_6기_" data-name="온라인 육아 상담 서비스 오픈   •
GS SHOP 소셜임팩트 프로젝트 우수기업 선정   •
H-온드림 펠로우 선정(현대정몽구재단)   •
신용보증기금 NEST 기업 선정   •
SOPOONG 배치 6기   •" transform="translate(658 3693)" fill="#5c5c5c" font-size="20" font-family="NotoSansCJKkr-DemiLight, Noto Sans CJK KR DemiLight" font-weight="300" letter-spacing="-0.03em"><tspan x="-247.28" y="0" xml:space="preserve">온라인 육아 상담 서비스 오픈   •</tspan><tspan x="-380" y="45" xml:space="preserve">GS SHOP 소셜임팩트 프로젝트 우수기업 선정   •</tspan><tspan x="-325.1" y="90" xml:space="preserve">H-온드림 펠로우 선정(현대정몽구재단)   •</tspan><tspan x="-254.74" y="135" xml:space="preserve">신용보증기금 NEST 기업 선정   •</tspan><tspan x="-182.16" y="180" xml:space="preserve">SOPOONG 배치 6기   •</tspan></text>
      <g id="ic_computer" transform="translate(690.414 3664.587)">
        <g id="그룹_677" data-name="그룹 677" transform="translate(3.866 0)">
          <rect id="사각형_319" data-name="사각형 319" width="39.655" height="26.367" fill="none" stroke="#2b2b2b" stroke-linecap="round" stroke-linejoin="round" stroke-width="3"/>
        </g>
        <g id="그룹_678" data-name="그룹 678" transform="translate(0 26.367)">
          <path id="패스_1320" data-name="패스 1320" d="M407.693,1232.378H368.038l-3.866,10.046h47.387Z" transform="translate(-364.172 -1232.378)" fill="none" stroke="#2b2b2b" stroke-linecap="round" stroke-linejoin="round" stroke-width="3"/>
        </g>
      </g>
    </g>
    <g id="_2019" data-name="2019">
      <line id="선_152" data-name="선 152" x2="90" transform="translate(960.5 3823.5)" fill="none" stroke="#5ac29f" stroke-width="2" stroke-dasharray="4"/>
      <g id="타원_86" data-name="타원 86" transform="translate(943 3805)" fill="#fff" stroke="#5ac29f" stroke-width="5">
        <ellipse cx="17.5" cy="18" rx="17.5" ry="18" stroke="none"/>
        <ellipse cx="17.5" cy="18" rx="15" ry="15.5" fill="none"/>
      </g>
      <text id="_2019-2" data-name="2019" transform="translate(1071 3837)" fill="#191919" font-size="40" font-family="NotoSansCJKkr-Medium, Noto Sans CJK KR" font-weight="500" letter-spacing="-0.03em"><tspan x="0" y="0">2019</tspan></text>
      <text id="_온라인_기질분석_솔루션_런칭_기질육아_연구소_설립_예비사회적기업_지정_디지털_페어런팅_매거진_제작_정보화진흥원_프리미엄_오프라인_클래스_오픈_아이마음에_상처주지_않는_습관_출간" data-name="•   온라인 기질분석 솔루션 런칭
•   기질육아 연구소 설립
•   예비사회적기업 지정
•   디지털 페어런팅 매거진 제작 (정보화진흥원)
•   프리미엄 오프라인 클래스 오픈
•   아이마음에 상처주지 않는 습관 출간" transform="translate(1254 3831)" fill="#5c5c5c" font-size="20" font-family="NotoSansCJKkr-DemiLight, Noto Sans CJK KR DemiLight" font-weight="300" letter-spacing="-0.03em"><tspan x="0" y="0" xml:space="preserve">•   온라인 기질분석 솔루션 런칭</tspan><tspan x="0" y="45" xml:space="preserve">•   기질육아 연구소 설립</tspan><tspan x="0" y="90" xml:space="preserve">•   예비사회적기업 지정</tspan><tspan x="0" y="135" xml:space="preserve">•   디지털 페어런팅 매거진 제작 (정보화진흥원)</tspan><tspan x="0" y="180" xml:space="preserve">•   프리미엄 오프라인 클래스 오픈</tspan><tspan x="0" y="225" xml:space="preserve">•   아이마음에 상처주지 않는 습관 출간</tspan></text>
      <g id="ic_rocket" transform="translate(-123.346 2878.31)">
        <path id="패스_1332" data-name="패스 1332" d="M1325.843,960.878l3.622,3.623,1.672-1.672a6.6,6.6,0,0,0,1.933-4.565l.113-7.171,5.672-5.672a21.514,21.514,0,0,0,5.766-20.006,21.512,21.512,0,0,0-20,5.767l-5.672,5.671-7.172.115a6.6,6.6,0,0,0-4.564,1.933l-1.672,1.672,3.7,3.7" fill="none" stroke="#2b2b2b" stroke-linecap="round" stroke-linejoin="round" stroke-width="3"/>
        <path id="패스_1333" data-name="패스 1333" d="M1333.4,933.619a3.691,3.691,0,0,1-.955,5.9,3.573,3.573,0,0,1-3.293,0,3.688,3.688,0,0,1-.645-6.182" transform="translate(2.17 0.851)" fill="none" stroke="#2b2b2b" stroke-linecap="round" stroke-linejoin="round" stroke-width="3"/>
        <g id="그룹_693" data-name="그룹 693" transform="translate(1310.51 947.265)">
          <line id="선_124" data-name="선 124" x1="6.493" y2="6.493" fill="none" stroke="#2b2b2b" stroke-linecap="round" stroke-linejoin="round" stroke-width="3"/>
          <line id="선_125" data-name="선 125" x1="5.06" y2="5.06" transform="translate(7.127 5.845)" fill="none" stroke="#2b2b2b" stroke-linecap="round" stroke-linejoin="round" stroke-width="3"/>
        </g>
      </g>
    </g>
  </g>
</svg>
