<svg xmlns="http://www.w3.org/2000/svg" width="1115" height="412" viewBox="0 0 1115 412">
  <g id="history1" transform="translate(-347 -3231)">
    <g id="_2015" data-name="2015">
      <line id="선_145" data-name="선 145" x2="90" transform="translate(960.5 3263.5)" fill="none" stroke="#5ac29f" stroke-width="2" stroke-dasharray="4"/>
      <g id="타원_82" data-name="타원 82" transform="translate(943 3245)" fill="#fff" stroke="#5ac29f" stroke-width="5">
        <ellipse cx="17.5" cy="18" rx="17.5" ry="18" stroke="none"/>
        <ellipse cx="17.5" cy="18" rx="15" ry="15.5" fill="none"/>
      </g>
      <text id="_2015-2" data-name="2015" transform="translate(1071 3277)" fill="#191919" font-size="40" font-family="NotoSansCJKkr-Medium, Noto Sans CJK KR" font-weight="500" letter-spacing="-0.03em"><tspan x="0" y="0">2015</tspan></text>
      <text id="_그로잉맘_계정_운영_시작" data-name="•   그로잉맘 계정 운영 시작" transform="translate(1254 3271)" fill="#5c5c5c" font-size="20" font-family="NotoSansCJKkr-DemiLight, Noto Sans CJK KR DemiLight" font-weight="300" letter-spacing="-0.03em"><tspan x="0" y="0" xml:space="preserve">•   그로잉맘 계정 운영 시작</tspan></text>
      <g id="ic_logo" transform="translate(3044.823 3770.272)">
        <path id="패스_1774" data-name="패스 1774" d="M-1845.15-480.068h-22.168l11.084,11.084Z" transform="translate(-0.119 -32.088)" fill="#3cc91f"/>
        <path id="패스_1775" data-name="패스 1775" d="M-1825.832-464.321l11.106,11.106v-22.211Z" transform="translate(-29.101 -35.33)" fill="#ffcf02"/>
        <path id="패스_1776" data-name="패스 1776" d="M-1766.264-469.017l11.05-11.051h-22.1Z" transform="translate(-62.995 -32.088)" fill="#efa2c6"/>
        <path id="패스_1777" data-name="패스 1777" d="M-1782.322-475.651v22.279l11.14-11.14Z" transform="translate(-59.497 -35.173)" fill="#34d5ea"/>
        <path id="패스_1778" data-name="패스 1778" d="M-1758.66-514.164-1770.5-526l-11.826,11.826v.01Z" transform="translate(-59.497)" fill="#ffcf02"/>
        <path id="패스_1779" data-name="패스 1779" d="M-1843.827-514.164v-.01L-1855.653-526l-11.836,11.836Z" fill="#ec4e4b"/>
      </g>
    </g>
    <g id="_2016" data-name="2016">
      <line id="선_146" data-name="선 146" x1="90" transform="translate(871.391 3403.5)" fill="none" stroke="#5ac29f" stroke-width="2" stroke-dasharray="4"/>
      <g id="타원_83" data-name="타원 83" transform="translate(943 3385)" fill="#fff" stroke="#5ac29f" stroke-width="5">
        <ellipse cx="17.5" cy="18" rx="17.5" ry="18" stroke="none"/>
        <ellipse cx="17.5" cy="18" rx="15" ry="15.5" fill="none"/>
      </g>
      <text id="_2016-2" data-name="2016" transform="translate(763 3417)" fill="#191919" font-size="40" font-family="NotoSansCJKkr-Medium, Noto Sans CJK KR" font-weight="500" letter-spacing="-0.03em"><tspan x="0" y="0">2016</tspan></text>
      <text id="카카오_브런치_금상_수상_경기콘텐츠진흥원_육성프로그램_선정_" data-name="카카오 브런치 금상 수상   •
경기콘텐츠진흥원 육성프로그램 선정   •" transform="translate(658 3413)" fill="#5c5c5c" font-size="20" font-family="NotoSansCJKkr-DemiLight, Noto Sans CJK KR DemiLight" font-weight="300" letter-spacing="-0.03em"><tspan x="-207.82" y="0" xml:space="preserve">카카오 브런치 금상 수상   •</tspan><tspan x="-310.76" y="45" xml:space="preserve">경기콘텐츠진흥원 육성프로그램 선정   •</tspan></text>
      <g id="ic_trophy" transform="translate(-801.004 3110.796)">
        <g id="그룹_688" data-name="그룹 688" transform="translate(1501.744 270.498)">
          <path id="패스_1330" data-name="패스 1330" d="M1507.559,270.5h16.178a3.568,3.568,0,0,1,3.568,3.568V284.76c0,7.382-5.985,13.986-13.367,13.986h0c-7.382,0-13.367-6.6-13.367-13.986V272.54" transform="translate(-1500.57 -270.498)" fill="none" stroke="#2b2b2b" stroke-linecap="round" stroke-linejoin="round" stroke-width="3"/>
          <path id="패스_1331" data-name="패스 1331" d="M1523.2,302.569v.114a2.153,2.153,0,0,1-2.153,2.154H1505.7a2.154,2.154,0,0,1-2.154-2.154v-.114" transform="translate(-1500.006 -264.425)" fill="none" stroke="#2b2b2b" stroke-linecap="round" stroke-linejoin="round" stroke-width="3"/>
          <line id="선_121" data-name="선 121" y2="12.165" transform="translate(13.368 28.247)" fill="none" stroke="#2b2b2b" stroke-linecap="round" stroke-linejoin="round" stroke-width="3"/>
        </g>
        <g id="그룹_689" data-name="그룹 689" transform="translate(1494.369 276.409)">
          <line id="선_122" data-name="선 122" y2="11.34" transform="translate(41.486)" fill="none" stroke="#2b2b2b" stroke-linecap="round" stroke-linejoin="round" stroke-width="3"/>
          <line id="선_123" data-name="선 123" y1="11.34" fill="none" stroke="#2b2b2b" stroke-linecap="round" stroke-linejoin="round" stroke-width="3"/>
        </g>
      </g>
    </g>
    <g id="_2017" data-name="2017">
      <line id="선_148" data-name="선 148" x2="90" transform="translate(960.5 3543.5)" fill="none" stroke="#5ac29f" stroke-width="2" stroke-dasharray="4"/>
      <g id="타원_85" data-name="타원 85" transform="translate(943 3525)" fill="#fff" stroke="#5ac29f" stroke-width="5">
        <ellipse cx="17.5" cy="18" rx="17.5" ry="18" stroke="none"/>
        <ellipse cx="17.5" cy="18" rx="15" ry="15.5" fill="none"/>
      </g>
      <text id="_2017-2" data-name="2017" transform="translate(1071 3557)" fill="#191919" font-size="40" font-family="NotoSansCJKkr-Medium, Noto Sans CJK KR" font-weight="500" letter-spacing="-0.03em"><tspan x="0" y="0">2017</tspan></text>
      <text id="_법인설립_그로잉맘_심플육아_출간_사회적기업가육성사업" data-name="•   법인설립
•   그로잉맘 심플육아 출간
•   사회적기업가육성사업" transform="translate(1254 3547)" fill="#5c5c5c" font-size="20" font-family="NotoSansCJKkr-DemiLight, Noto Sans CJK KR DemiLight" font-weight="300" letter-spacing="-0.03em"><tspan x="0" y="0" xml:space="preserve">•   법인설립</tspan><tspan x="0" y="45" xml:space="preserve">•   그로잉맘 심플육아 출간</tspan><tspan x="0" y="90" xml:space="preserve">•   사회적기업가육성사업</tspan></text>
      <g id="ic_home" transform="translate(-26 -878.864)">
        <g id="그룹_1374" data-name="그룹 1374" transform="translate(841.776 3457.022)">
          <g id="그룹_691" data-name="그룹 691" transform="translate(371.662 960.79)">
            <rect id="사각형_322" data-name="사각형 322" width="29.124" height="22.052" fill="none" stroke="#2b2b2b" stroke-linecap="round" stroke-linejoin="round" stroke-width="3"/>
          </g>
        </g>
        <g id="다각형_1" data-name="다각형 1" transform="translate(1202 4398)" fill="none">
          <path d="M24.743,1.015a2,2,0,0,1,2.513,0L47.6,17.444A2,2,0,0,1,46.341,21H5.659A2,2,0,0,1,4.4,17.444Z" stroke="none"/>
          <path d="M 25.99999237060547 3.856328964233398 L 8.488796234130859 17.9999942779541 L 43.51120758056641 17.9999942779541 L 25.99999237060547 3.856328964233398 M 25.99999809265137 0.5708847045898438 C 26.44504928588867 0.5708847045898438 26.89010047912598 0.7189254760742188 27.25666999816895 1.015005111694336 L 47.59748077392578 17.44411468505859 C 49.06457901000977 18.62908554077148 48.22668075561523 20.9999942779541 46.34080123901367 20.9999942779541 L 5.659191131591797 20.9999942779541 C 3.773311614990234 20.9999942779541 2.935420989990234 18.62908554077148 4.402519226074219 17.44411468505859 L 24.74332046508789 1.015005111694336 C 25.10989570617676 0.7189254760742188 25.55494689941406 0.5708847045898438 25.99999809265137 0.5708847045898438 Z" stroke="none" fill="#2b2b2b"/>
        </g>
      </g>
    </g>
  </g>
</svg>
