<svg xmlns="http://www.w3.org/2000/svg" xmlns:xlink="http://www.w3.org/1999/xlink" width="1280" height="612.279" viewBox="0 0 1280 612.279"><defs><linearGradient id="a" x1="0.5" y1="-0.06" x2="0.5" y2="1.485" gradientUnits="objectBoundingBox"><stop offset="0" stop-color="#fff"/><stop offset="0.333" stop-color="#fffefd" stop-opacity="0.992"/><stop offset="0.469" stop-color="#fffdf5" stop-opacity="0.969"/><stop offset="0.57" stop-color="#fffae9" stop-opacity="0.925"/><stop offset="0.653" stop-color="#fff7d8" stop-opacity="0.863"/><stop offset="0.725" stop-color="#fff3c1" stop-opacity="0.78"/><stop offset="0.79" stop-color="#ffeea5" stop-opacity="0.682"/><stop offset="0.848" stop-color="#ffe784" stop-opacity="0.565"/><stop offset="0.903" stop-color="#ffe05d" stop-opacity="0.427"/><stop offset="0.952" stop-color="#ffd833" stop-opacity="0.275"/><stop offset="0.998" stop-color="#ffcf04" stop-opacity="0.106"/><stop offset="1" stop-color="#ffcf02" stop-opacity="0.102"/></linearGradient><linearGradient id="b" x1="0.5" y1="-0.078" x2="0.5" y2="1.464" gradientUnits="objectBoundingBox"><stop offset="0.021" stop-color="#fff"/><stop offset="0.468" stop-color="#fefdfd"/><stop offset="0.629" stop-color="#fdf6f9"/><stop offset="0.743" stop-color="#fbeaf1"/><stop offset="0.836" stop-color="#f9d9e6"/><stop offset="0.916" stop-color="#f6c3d8"/><stop offset="0.985" stop-color="#f2a9c6"/><stop offset="1" stop-color="#f1a2c2"/></linearGradient><linearGradient id="c" x1="0.5" y1="-0.057" x2="0.5" y2="1.323" gradientUnits="objectBoundingBox"><stop offset="0.021" stop-color="#fff"/><stop offset="0.389" stop-color="#fdfefe" stop-opacity="0.992"/><stop offset="0.521" stop-color="#f9fdfb" stop-opacity="0.969"/><stop offset="0.616" stop-color="#f2fbf7" stop-opacity="0.925"/><stop offset="0.692" stop-color="#e8f9f0" stop-opacity="0.863"/><stop offset="0.758" stop-color="#daf5e8" stop-opacity="0.78"/><stop offset="0.816" stop-color="#caf1de" stop-opacity="0.682"/><stop offset="0.868" stop-color="#b6ebd2" stop-opacity="0.561"/><stop offset="0.917" stop-color="#9fe5c3" stop-opacity="0.424"/><stop offset="0.96" stop-color="#87dfb4" stop-opacity="0.271"/><stop offset="1" stop-color="#6bd8a3" stop-opacity="0.102"/></linearGradient><linearGradient id="d" x1="0.5" y1="-0.044" x2="0.5" y2="1.365" gradientUnits="objectBoundingBox"><stop offset="0.021" stop-color="#fff"/><stop offset="0.437" stop-color="#fdfefe"/><stop offset="0.604" stop-color="#f5fafe"/><stop offset="0.727" stop-color="#e9f4fc"/><stop offset="0.828" stop-color="#d8ecfb"/><stop offset="0.914" stop-color="#c1e1f9"/><stop offset="0.991" stop-color="#a6d3f6"/><stop offset="1" stop-color="#a3d2f6"/></linearGradient></defs><g transform="translate(1107 -3746.971)"><g transform="translate(-1277.148 3526.509)"><rect width="277.443" height="612.028" transform="translate(340.378 220.463)" fill="url(#a)"/><rect width="277.443" height="612.028" transform="translate(617.585 220.463)" fill="url(#b)"/><rect width="277.443" height="612.028" transform="translate(895.263 220.463)" fill="url(#c)"/><rect width="277.443" height="612.028" transform="translate(1172.706 220.463)" fill="url(#d)"/><rect width="414.405" height="33.982" rx="16.991" transform="translate(895.23 244.043)" fill="#448fd3"/><rect width="832.348" height="33.982" rx="16.991" transform="translate(617.585 369.104)" fill="#5ce5b0"/><rect width="555.17" height="33.982" rx="16.991" transform="translate(618.347 306.574)" fill="#28bdd1"/><rect width="555.356" height="33.982" rx="16.991" transform="translate(339.907 619.226)" fill="#ffcf02"/><rect width="739.111" height="33.982" rx="16.991" transform="translate(525.315 431.635)" fill="#a8ea49"/><rect width="1109.555" height="33.982" rx="16.991" transform="translate(340.378 494.165)" fill="#ffa4c9"/><rect width="1110.242" height="33.982" rx="16.991" transform="translate(339.907 556.696)" fill="#ffab7d"/><line y2="512.19" transform="translate(1218.549 220.463)" fill="none" stroke="#878787" stroke-miterlimit="10" stroke-width="1" stroke-dasharray="3 4"/><line y2="512.19" transform="translate(1264.426 220.463)" fill="none" stroke="#878787" stroke-miterlimit="10" stroke-width="1" stroke-dasharray="3 4"/><line y2="512.19" transform="translate(1310.303 220.463)" fill="none" stroke="#878787" stroke-miterlimit="10" stroke-width="1" stroke-dasharray="3 4"/><line y2="512.19" transform="translate(1356.179 220.463)" fill="none" stroke="#878787" stroke-miterlimit="10" stroke-width="1" stroke-dasharray="3 4"/><line y2="512.19" transform="translate(1402.056 220.463)" fill="none" stroke="#878787" stroke-miterlimit="10" stroke-width="1" stroke-dasharray="3 4"/><text transform="translate(282.154 642.595)" fill="#353535" font-size="17" font-family="NanumSquare_acEB, NanumSquare_ac"><tspan x="-96.22" y="0">부모 기질 분석</tspan></text><text transform="translate(286.006 578.13)" fill="#353535" font-size="17" font-family="NanumSquare_acEB, NanumSquare_ac"><tspan x="-66.98" y="0">한 달 상담</tspan></text><text transform="translate(286.218 516.192)" fill="#353535" font-size="17" font-family="NanumSquare_acEB, NanumSquare_ac"><tspan x="-62.73" y="0">육아 정보</tspan></text><text transform="translate(286.218 453.411)" fill="#353535" font-size="17" font-family="NanumSquare_acEB, NanumSquare_ac"><tspan x="-62.73" y="0">놀이 상담</tspan></text><text transform="translate(286.272 390.631)" fill="#353535" font-size="17" font-family="NanumSquare_acEB, NanumSquare_ac"><tspan x="-58.48" y="0">큐레이션</tspan></text><text transform="translate(282.154 328.693)" fill="#353535" font-size="17" font-family="NanumSquare_acEB, NanumSquare_ac"><tspan x="-96.22" y="0">언어 발달 상담</tspan></text><text transform="translate(281.149 265.912)" fill="#353535" font-size="17" font-family="NanumSquare_acEB, NanumSquare_ac"><tspan x="-110.84" y="0">패밀리 기질 분석</tspan></text><text transform="translate(524.238 712.063)" fill="#353535" font-size="14" font-family="NanumSquare_acB, NanumSquare_ac"><tspan x="-4.27" y="0">8</tspan></text><text transform="translate(431.71 712.063)" fill="#353535" font-size="14" font-family="NanumSquare_acB, NanumSquare_ac"><tspan x="-4.27" y="0">4</tspan></text><text transform="translate(1195.237 712.063)" fill="#353535" font-size="14" font-family="NanumSquare_acB, NanumSquare_ac"><tspan x="-4.27" y="0">1</tspan></text><text transform="translate(1240.823 712.063)" fill="#353535" font-size="14" font-family="NanumSquare_acB, NanumSquare_ac"><tspan x="-4.27" y="0">2</tspan></text><text transform="translate(1286.408 712.063)" fill="#353535" font-size="14" font-family="NanumSquare_acB, NanumSquare_ac"><tspan x="-4.27" y="0">3</tspan></text><text transform="translate(1331.993 712.063)" fill="#353535" font-size="14" font-family="NanumSquare_acB, NanumSquare_ac"><tspan x="-4.27" y="0">4</tspan></text><text transform="translate(1377.579 712.063)" fill="#353535" font-size="14" font-family="NanumSquare_acB, NanumSquare_ac"><tspan x="-4.27" y="0">5</tspan></text><text transform="translate(1423.164 712.063)" fill="#353535" font-size="14" font-family="NanumSquare_acB, NanumSquare_ac"><tspan x="-4.27" y="0">6</tspan></text><line y2="611.702" transform="translate(617.82 220.462)" fill="none" stroke="#000" stroke-miterlimit="10" stroke-width="0.5"/><line y2="612.029" transform="translate(895.263 220.462)" fill="none" stroke="#000" stroke-miterlimit="10" stroke-width="0.5"/><line y2="471.182" transform="translate(432.764 220.463)" fill="none" stroke="#878787" stroke-miterlimit="10" stroke-width="1" stroke-dasharray="3 4"/><line y2="471.182" transform="translate(525.292 220.463)" fill="none" stroke="#878787" stroke-miterlimit="10" stroke-width="1" stroke-dasharray="3 4"/><line x2="1109.771" transform="translate(340.378 729.318)" fill="none" stroke="#000" stroke-miterlimit="10" stroke-width="0.5"/><g transform="translate(1210.481 755.386)"><text transform="translate(142.6 33.446)" fill="#353535" font-size="17" font-family="NanumSquare_acB, NanumSquare_ac"><tspan x="-41.735" y="0">73개월 이상</tspan></text><path d="M1478.551,942.761c0-5.887-9.164-22.774-29.573-22.774-20.8,0-29.574,16.887-29.574,22.774Z" transform="translate(-1407.409 -865.656)" fill="#28bdd1"/><path d="M1439.076,857.44s-4.452-.954-9.951,2.115c-9.292,5.186-16.422,18.417-16.422,31.238,0,7.8-3.454,11.025-6.158,12.351a2.443,2.443,0,0,0-.773,3.811c2.642,3,5.394,6.3,8.862,8.323,13.147,7.649,21.093-.974,35.87-3.684,11.887-2.179,22.884,6.774,36.832-7.449a3.469,3.469,0,0,0-.864-5.463c-2.791-1.5-6.155-4.713-7.328-11.664C1476.652,872.245,1466.238,848.52,1439.076,857.44Z" transform="translate(-1405.164 -855.489)" fill="#2b2e30"/><path d="M1423.155,889.53s.4-26.705,22.125-28.068c23.587-1.479,29.558,13.019,30.179,27.432" transform="translate(-1408 -856.414)" fill="#448fd3"/><path d="M1473.477,887.58a6.287,6.287,0,0,0-1,.087c-2.641-11.358-12.266-19.779-23.741-19.779s-21.1,8.425-23.743,19.788a6.241,6.241,0,1,0-.058,12.3c2.55,11.5,12.234,20.055,23.8,20.055s21.247-8.554,23.8-20.047a6.236,6.236,0,1,0,.939-12.4Z" transform="translate(-1407.141 -857.444)" fill="#f9d3c3" fill-rule="evenodd"/><path d="M1476.732,894.67l-2.181-3.527s-12.377-3.544-19.166-10.333a22.848,22.848,0,0,1-6.394-12.416,23.1,23.1,0,0,1,4.8-.508c10.921,0,20.168,7.63,23.312,18.16a10.1,10.1,0,0,1,.412,3.007l-.061,5.378A.4.4,0,0,1,1476.732,894.67Z" transform="translate(-1412.073 -857.444)" fill="#2b2e30"/><path d="M1428.191,893.163l1.911-5.582s20.384-6.221,19.656-19.691c-11.459.02-21.065,8.438-23.7,19.786l1.187,5.433A.492.492,0,0,0,1428.191,893.163Z" transform="translate(-1408.458 -857.444)" fill="#2b2e30"/><g transform="translate(32.849 34.818)"><rect width="2.678" height="3.839" rx="1.339" fill="#2b2e30"/><rect width="2.678" height="3.839" rx="1.339" transform="translate(14.345)" fill="#2b2e30"/></g><path d="M1446.017,909.189c2.568,2.327,7.3,7.4,14.22-.013.713-.763.4-1.958-.643-1.958h-12.955A1.091,1.091,0,0,0,1446.017,909.189Z" transform="translate(-1411.536 -863.643)" fill="#fff"/><circle cx="4.33" cy="4.33" r="4.33" transform="translate(50.582 40.407)" fill="#fcc6b1"/><circle cx="4.33" cy="4.33" r="4.33" transform="translate(23.585 40.407)" fill="#fcc6b1"/><path d="M1454.342,900.344s-1.883,1.466-1.231,2.772a1.265,1.265,0,0,0,1.931.416s-1.418-.356-1.233-1.307A13.6,13.6,0,0,1,1454.342,900.344Z" transform="translate(-1412.701 -862.56)" fill="#f8b29c"/><path d="M1448.1,894.4s-4.289-2.3-6.992,1.088" transform="translate(-1410.831 -861.503)" fill="none" stroke="#2b2e30" stroke-miterlimit="10" stroke-width="1.371"/><path d="M1458.99,894.4s4.288-2.3,6.991,1.088" transform="translate(-1413.649 -861.503)" fill="none" stroke="#2b2e30" stroke-miterlimit="10" stroke-width="1.371"/></g><g transform="translate(670.372 746.661)"><text transform="translate(119.687 42.17)" fill="#353535" font-size="17" font-family="NanumSquare_acB, NanumSquare_ac"><tspan x="-38.93" y="0">12-36개월</tspan></text><path d="M820.722,943.234c0-5.887-5.827-20.247-24.519-20.247-18.593,0-24.519,14.36-24.519,20.247Z" transform="translate(-765.196 -857.405)" fill="#ffa4c9"/><path d="M815.995,865.861s-2.358-8.746,4.26-13.859a11.2,11.2,0,0,1,5.043-2.09c1.565-.26,3.413-2.533,4.666-4.338a1.032,1.032,0,0,1,1.695,0c2.664,3.845,6.393,19.29-12.788,21.842" transform="translate(-772.117 -845.132)" fill="#2b2e30"/><path d="M827.475,868.383a3.633,3.633,0,0,0-4.372-2.7c-.024.006-.046.018-.071.024a3.579,3.579,0,0,0-.073-.554,3.633,3.633,0,0,0-4.372-2.7c-.025.006-.046.018-.072.024a3.585,3.585,0,0,0-.073-.554,3.634,3.634,0,1,0-2.7,4.371c.025-.006.046-.018.072-.024a3.555,3.555,0,0,0,4.445,3.255c.024-.006.046-.018.071-.024a3.593,3.593,0,0,0,.073.555,3.634,3.634,0,1,0,7.072-1.672Z" transform="translate(-771.436 -847.337)" fill="#ffab7d"/><path d="M822.776,888.546c0,14.938-12.109,6.09-27.046,6.09s-27.046,8.847-27.046-6.09,12.109-25.107,27.046-25.107S822.776,873.609,822.776,888.546Z" transform="translate(-764.723 -848.018)" fill="#2b2e30"/><path d="M819.757,889.217a6.275,6.275,0,0,0-1,.088c-2.642-11.358-12.266-19.779-23.741-19.779s-21.1,8.425-23.743,19.788a6.31,6.31,0,0,0-1.054-.1,6.24,6.24,0,1,0,1,12.394c2.549,11.5,12.234,20.055,23.8,20.055s21.247-8.554,23.8-20.047a6.237,6.237,0,1,0,.938-12.4Z" transform="translate(-763.982 -848.977)" fill="#f9d3c3" fill-rule="evenodd"/><path d="M822.907,896.086l-2.18-3.527s-12.377-3.544-19.166-10.333a27.283,27.283,0,0,1-6.957-13.6,23.106,23.106,0,0,1,4.8-.508c10.922,0,20.731,8.813,23.873,19.343a10.062,10.062,0,0,1,.412,3.007l-.06,5.378A.4.4,0,0,1,822.907,896.086Z" transform="translate(-768.809 -848.756)" fill="#2b2e30"/><path d="M774.471,894.8l1.912-5.583s20.383-6.22,19.656-19.691c-11.459.021-21.065,8.439-23.7,19.787l1.186,5.433A.492.492,0,0,0,774.471,894.8Z" transform="translate(-765.299 -848.977)" fill="#2b2e30"/><g transform="translate(13.023 46.34)"><circle cx="4.33" cy="4.33" r="4.33" transform="translate(26.998 6.369)" fill="#fcc6b1"/><circle cx="4.33" cy="4.33" r="4.33" transform="translate(0 6.369)" fill="#fcc6b1"/><g transform="translate(6.696)"><g transform="translate(2.568 2.685)"><rect width="2.678" height="3.839" rx="1.339" fill="#2b2e30"/><rect width="2.678" height="3.839" rx="1.339" transform="translate(14.345)" fill="#2b2e30"/></g><path d="M792.3,913.435c2.569,2.326,7.3,7.4,14.22-.013.713-.764.4-1.958-.643-1.958H792.919A1.091,1.091,0,0,0,792.3,913.435Z" transform="translate(-788.098 -901.927)" fill="#fff"/><path d="M800.622,905.343s-1.883,1.466-1.23,2.772a1.264,1.264,0,0,0,1.93.416s-1.417-.356-1.232-1.306A13.677,13.677,0,0,1,800.622,905.343Z" transform="translate(-789.262 -900.963)" fill="#f8b29c"/><path d="M794.384,900.908s-4.289-2.3-6.992,1.087" transform="translate(-787.392 -900.143)" fill="none" stroke="#2b2e30" stroke-miterlimit="10" stroke-width="1.371"/><path d="M805.27,900.908s4.289-2.3,6.992,1.087" transform="translate(-790.21 -900.143)" fill="none" stroke="#2b2e30" stroke-miterlimit="10" stroke-width="1.371"/></g></g><path d="M787.279,880.48s-.387,6.577-3.064,9.891a.406.406,0,0,0,.475.628c3.793-1.6,12.466-8.91,13.224-15.485" transform="translate(-767.157 -849.921)" fill="#2b2e30"/></g><g transform="translate(938.164 751.578)"><text transform="translate(134.199 37.253)" fill="#353535" font-size="17" font-family="NanumSquare_acB, NanumSquare_ac"><tspan x="-41.055" y="0">36 -72개월</tspan></text><path d="M1145.61,942.442c0-5.888-8.354-22.775-27.046-22.775-18.593,0-27.046,16.887-27.046,22.775Z" transform="translate(-1083.405 -861.798)" fill="#5ce5b0"/><path d="M1162.5,917.593c.252-4.263,0-17.422-13.069-14.855a1.323,1.323,0,0,0-.986.843c-4.567,12.51,8.392,14.806,12.643,15.22A1.29,1.29,0,0,0,1162.5,917.593Z" transform="translate(-1092.226 -859.078)" fill="#2b2e30"/><path d="M1081.935,917.593c-.252-4.263,0-17.422,13.07-14.855a1.323,1.323,0,0,1,.986.843c4.566,12.51-8.393,14.806-12.643,15.22A1.291,1.291,0,0,1,1081.935,917.593Z" transform="translate(-1081.887 -859.078)" fill="#2b2e30"/><path d="M1145.545,885.759c0,14.937-12.109,6.089-27.047,6.089s-27.046,8.847-27.046-6.089,12.109-25.107,27.046-25.107S1145.545,870.822,1145.545,885.759Z" transform="translate(-1083.395 -852.495)" fill="#2b2e30"/><path d="M1142.526,886.431a6.269,6.269,0,0,0-1,.087c-2.642-11.358-12.266-19.78-23.741-19.78s-21.1,8.426-23.743,19.788a6.241,6.241,0,1,0-.058,12.3c2.549,11.5,12.235,20.055,23.8,20.055s21.247-8.554,23.8-20.047a6.169,6.169,0,0,0,.939.078,6.24,6.24,0,0,0,0-12.48Z" transform="translate(-1082.653 -853.455)" fill="#f9d3c3" fill-rule="evenodd"/><path d="M1145.675,893.3l-2.18-3.527s-12.377-3.544-19.166-10.332a27.281,27.281,0,0,1-6.957-13.6,23.116,23.116,0,0,1,4.8-.508c10.922,0,20.73,8.814,23.873,19.343a10.058,10.058,0,0,1,.413,3.007l-.061,5.379A.4.4,0,0,1,1145.675,893.3Z" transform="translate(-1087.48 -853.233)" fill="#2b2e30"/><path d="M1097.24,892.014l1.911-5.583s20.384-6.221,19.656-19.691c-11.459.02-21.065,8.438-23.7,19.786l1.186,5.433A.493.493,0,0,0,1097.24,892.014Z" transform="translate(-1083.97 -853.455)" fill="#2b2e30"/><g transform="translate(17.121 37.805)"><circle cx="4.33" cy="4.33" r="4.33" transform="translate(26.998 6.369)" fill="#fcc6b1"/><circle cx="4.33" cy="4.33" r="4.33" transform="translate(0 6.369)" fill="#fcc6b1"/><g transform="translate(6.697)"><g transform="translate(2.568 2.685)"><rect width="2.678" height="3.839" rx="1.339" fill="#2b2e30"/><rect width="2.678" height="3.839" rx="1.339" transform="translate(14.345)" fill="#2b2e30"/></g><path d="M1115.066,909.14c2.568,2.327,7.3,7.4,14.219-.013.713-.764.4-1.958-.642-1.958h-12.956A1.091,1.091,0,0,0,1115.066,909.14Z" transform="translate(-1110.866 -897.633)" fill="#fff"/><path d="M1123.39,901.049s-1.884,1.465-1.23,2.772a1.264,1.264,0,0,0,1.931.415s-1.418-.356-1.233-1.307A13.611,13.611,0,0,1,1123.39,901.049Z" transform="translate(-1112.031 -896.668)" fill="#f8b29c"/><path d="M1117.153,896.614s-4.288-2.306-6.992,1.087" transform="translate(-1110.161 -895.849)" fill="none" stroke="#2b2e30" stroke-miterlimit="10" stroke-width="1.371"/><path d="M1128.038,896.614s4.288-2.306,6.992,1.087" transform="translate(-1112.979 -895.849)" fill="none" stroke="#2b2e30" stroke-miterlimit="10" stroke-width="1.371"/></g></g><path d="M1110.048,877.694s-.388,6.577-3.064,9.89a.407.407,0,0,0,.475.629c3.793-1.6,12.466-8.911,13.225-15.485" transform="translate(-1085.828 -854.399)" fill="#2b2e30"/><g transform="translate(0.212)"><path d="M1151.893,885.351c-.437-1.8-3.017-4.566-7.181-7.249a53.609,53.609,0,0,0-28.4-8.036A51.076,51.076,0,0,0,1089.359,878c-4.309,2.8-6.97,5.694-7.211,7.514a1.02,1.02,0,0,0,1.475,1.038,63.383,63.383,0,0,1,5.905-2.6,76.239,76.239,0,0,1,55.008-.009q2.935,1.141,5.924,2.584A1.023,1.023,0,0,0,1151.893,885.351Z" transform="translate(-1082.138 -853.979)" fill="#a8ea49"/><path d="M1117.663,869.312a53.608,53.608,0,0,1,28.4,8.036,24.9,24.9,0,0,0-.823-4.535,53.861,53.861,0,0,0-27.577-7.526,51.157,51.157,0,0,0-26.1,7.4,24.878,24.878,0,0,0-.848,4.555A51.074,51.074,0,0,1,1117.663,869.312Z" transform="translate(-1083.49 -853.226)" fill="#daf4ba"/><path d="M1145.4,870.556c-3.128-11.27-13.96-19.587-26.858-19.587-12.849,0-23.649,8.255-26.823,19.462a51.158,51.158,0,0,1,26.1-7.4A53.861,53.861,0,0,1,1145.4,870.556Z" transform="translate(-1083.648 -850.969)" fill="#a8ea49"/></g></g><g transform="translate(391.621 757.88)"><text transform="translate(119.148 30.952)" fill="#353535" font-size="17" font-family="NanumSquare_acB, NanumSquare_ac"><tspan x="-35.87" y="0">0 -12개월</tspan></text><path d="M489.806,943.234c0-5.887-5.827-20.247-24.519-20.247-18.593,0-24.519,14.36-24.519,20.247Z" transform="translate(-434.28 -868.623)" fill="#ffcf02"/><path d="M488.841,889.217a6.268,6.268,0,0,0-1,.088c-2.642-11.358-12.267-19.779-23.741-19.779s-21.1,8.425-23.744,19.788a6.241,6.241,0,1,0-.057,12.3c2.549,11.5,12.234,20.055,23.8,20.055s21.247-8.554,23.8-20.047a6.237,6.237,0,1,0,.939-12.4Z" transform="translate(-433.066 -860.196)" fill="#f9d3c3" fill-rule="evenodd"/><circle cx="4.33" cy="4.33" r="4.33" transform="translate(40.021 41.489)" fill="#fcc6b1"/><circle cx="4.33" cy="4.33" r="4.33" transform="translate(13.023 41.489)" fill="#fcc6b1"/><g transform="translate(22.288 38.732)"><rect width="2.678" height="3.839" rx="1.339" fill="#2b2e30"/><rect width="2.678" height="3.839" rx="1.339" transform="translate(14.345)" fill="#2b2e30"/></g><path d="M469.706,906.443s-1.884,1.465-1.23,2.772a1.263,1.263,0,0,0,1.93.415s-1.417-.356-1.232-1.306A13.55,13.55,0,0,1,469.706,906.443Z" transform="translate(-438.626 -866.016)" fill="#f8b29c"/><path d="M463.468,902.008s-4.288-2.306-6.992,1.088" transform="translate(-436.756 -865.196)" fill="none" stroke="#2b2e30" stroke-miterlimit="10" stroke-width="1.371"/><path d="M474.354,902.008s4.288-2.306,6.992,1.088" transform="translate(-439.574 -865.196)" fill="none" stroke="#2b2e30" stroke-miterlimit="10" stroke-width="1.371"/><path d="M469.838,858.538l0,.02a6.665,6.665,0,0,1-2.956,4.67,9.782,9.782,0,0,0-4.143,5.125h0a6.1,6.1,0,0,0,6.088,7.678c8.4,0,7.474-11.343,1.187-17.552A.1.1,0,0,0,469.838,858.538Z" transform="translate(-437.706 -858.45)" fill="#2b2e30"/><path d="M477.533,913.535a3.777,3.777,0,0,0-.953-2.338,4.135,4.135,0,0,0-3.877-1.156,6.024,6.024,0,0,0-2.984,1.345,3.051,3.051,0,0,1-2.685.671,3.544,3.544,0,0,1-1.377-.738,6.027,6.027,0,0,0-4.409-1.309,3.626,3.626,0,0,0-3.135,2.573,6.565,6.565,0,0,0-.106,2.953,7.357,7.357,0,0,0,3.658,5.4v0s1.859,1.624,6.062,1.624h.108c.134,0,.265,0,.394-.008l.134-.005a13.036,13.036,0,0,0,2.472-.333l.113-.024c.035-.008.07-.018.1-.029a7.786,7.786,0,0,0,2.891-1.3v0a7.527,7.527,0,0,0,2.658-2.77A7.928,7.928,0,0,0,477.533,913.535Zm-8,.168-.036-.02C469.507,913.691,469.52,913.7,469.531,913.7Z" transform="translate(-436.979 -866.572)" fill="#ffab7d"/><g transform="translate(26.99 47.111)"><circle cx="3.756" cy="3.756" r="3.756" fill="#fff"/><circle cx="2.271" cy="2.271" r="2.271" transform="translate(1.485 6.07)" fill="#fff"/></g></g><line y2="611.702" transform="translate(1172.63 220.463)" fill="none" stroke="#000" stroke-miterlimit="10" stroke-width="0.5"/><line x1="1109.555" transform="translate(340.378 687.208)" fill="none" stroke="#878787" stroke-miterlimit="10" stroke-width="1" stroke-dasharray="3 4"/><line x2="1109.77" transform="translate(340.378 832.491)" fill="none" stroke="#000" stroke-miterlimit="10" stroke-width="0.5"/></g></g></svg>